<?xml version="1.0" encoding="UTF-8" standalone="no"?>
<!-- Created with Inkscape (http://www.inkscape.org/) -->

<svg
   xmlns:dc="http://purl.org/dc/elements/1.1/"
   xmlns:cc="http://creativecommons.org/ns#"
   xmlns:rdf="http://www.w3.org/1999/02/22-rdf-syntax-ns#"
   xmlns:svg="http://www.w3.org/2000/svg"
   xmlns="http://www.w3.org/2000/svg"
   xmlns:sodipodi="http://sodipodi.sourceforge.net/DTD/sodipodi-0.dtd"
   xmlns:inkscape="http://www.inkscape.org/namespaces/inkscape"
   width="210mm"
   height="297mm"
   viewBox="0 0 210 297"
   version="1.1"
   id="svg14360"
   inkscape:version="0.92.3 (2405546, 2018-03-11)"
   sodipodi:docname="caterpillar.svg">
  <defs
     id="defs14354">
    <clipPath
       clipPathUnits="userSpaceOnUse"
       id="clipPath1985-0-6">
      <rect
         style="opacity:0.247;fill:#404040;fill-opacity:0.71162792;fill-rule:nonzero;stroke:none;stroke-width:0.16499999;stroke-linecap:round;stroke-miterlimit:4;stroke-dasharray:none;stroke-dashoffset:0;stroke-opacity:0.42790701"
         id="rect1987-3-0"
         width="119.81845"
         height="54.806545"
         x="-172.9241"
         y="-5.3809524"
         ry="0.083521813"
         transform="scale(-1)" />
    </clipPath>
  </defs>
  <sodipodi:namedview
     id="base"
     pagecolor="#ffffff"
     bordercolor="#666666"
     borderopacity="1.0"
     inkscape:pageopacity="0.0"
     inkscape:pageshadow="2"
     inkscape:zoom="0.49497475"
     inkscape:cx="91.906887"
     inkscape:cy="629.31037"
     inkscape:document-units="mm"
     inkscape:current-layer="layer1"
     showgrid="false"
     inkscape:window-width="1920"
     inkscape:window-height="1009"
     inkscape:window-x="-8"
     inkscape:window-y="-8"
     inkscape:window-maximized="1" />
  <metadata
     id="metadata14357">
    <rdf:RDF>
      <cc:Work
         rdf:about="">
        <dc:format>image/svg+xml</dc:format>
        <dc:type
           rdf:resource="http://purl.org/dc/dcmitype/StillImage" />
        <dc:title></dc:title>
      </cc:Work>
    </rdf:RDF>
  </metadata>
  <g
     inkscape:label="Layer 1"
     inkscape:groupmode="layer"
     id="layer1">
    <g
       id="g14951"
       transform="translate(1.6036172,-49.704041)"
       style="fill:#11888a;fill-opacity:1">
      <path
         style="fill:#11888a;fill-opacity:1;stroke-width:1"
         d="m 97.676212,153.03909 c 0.407432,0.49093 0.332119,2.53544 -0.370665,10.06193 -0.485095,5.1952 -0.995542,12.15157 -1.134316,15.45861 l -0.252326,6.01278 2.236474,0.89162 c 3.219931,1.2837 6.698741,1.58702 7.506881,0.65452 0.48932,-0.56463 0.78019,-3.43021 1.33551,-13.1572 0.39046,-6.83945 0.79612,-12.70164 0.90147,-13.02709 0.16594,-0.51264 0.27042,-0.51264 0.78162,0 0.49195,0.49334 0.52851,1.62561 0.21986,6.80941 -0.7442,12.49875 -0.90897,20.78196 -0.39696,19.95524 0.26241,-0.4237 0.62607,-1.91594 0.80813,-3.3161 0.18206,-1.40016 1.00085,-6.8895 1.81954,-12.19856 0.81869,-5.30905 1.48852,-9.83242 1.48852,-10.05192 0,-0.21949 0.2798,-0.39908 0.62177,-0.39908 0.4471,0 0.62177,0.45715 0.62177,1.62731 0,1.50136 -2.65192,21.86602 -3.11956,23.95576 -0.29512,1.31881 1.36025,2.02055 5.48283,2.32424 3.68049,0.27114 5.78271,-0.18256 6.06787,-1.30956 0.0961,-0.37992 0.18317,-6.23545 0.19343,-13.0123 0.0103,-6.77684 0.15648,-12.54454 0.32493,-12.81711 0.71523,-1.15725 1.00384,1.98133 1.26889,13.79877 0.1631,7.27212 0.42663,12.18332 0.63386,11.81302 0.34905,-0.62373 0.50409,-1.98224 1.78063,-15.60282 0.65223,-6.95932 1.34069,-12.46921 1.72285,-13.78855 0.44862,-1.54872 1.06945,-0.14524 0.85143,1.92477 -2.52425,23.96656 -2.81198,28.59559 -1.80157,28.98332 0.76173,0.29231 1.25686,-0.0862 2.33189,-1.7826 l 0.91939,-1.45079 -0.24069,1.70125 -0.24069,1.70126 3.16661,0.26768 c 4.61744,0.39031 5.03047,0.3513 5.94312,-0.56135 0.78708,-0.78708 0.83036,-1.40056 0.8553,-12.12448 0.0206,-8.84145 0.12964,-11.07031 0.50202,-10.25917 0.30979,0.67476 0.48706,4.28998 0.50815,10.3628 0.0382,11.00842 0.0661,11.49864 0.62175,10.94297 0.22807,-0.22807 0.79991,-4.882 1.27076,-10.34208 0.78336,-9.08389 1.69985,-15.73067 2.24409,-16.27491 0.43192,-0.43192 0.19739,4.55814 -0.59285,12.61392 -1.12859,11.50485 -1.22713,14.87369 -0.43508,14.87369 0.34198,0 0.94791,-0.65285 1.34653,-1.45079 l 0.72474,-1.45079 8.3e-4,1.52995 c 3.6e-4,0.84148 0.18926,1.64653 0.41979,1.78901 0.77762,0.48059 7.22808,0.36046 8.18198,-0.15238 0.92201,-0.4957 0.93315,-0.60642 0.97654,-9.70973 0.0507,-10.63434 0.40112,-16.54563 0.99239,-16.74044 0.27218,-0.0897 0.3668,4.09768 0.27556,12.19528 -0.0982,8.71041 -0.009,12.2066 0.30214,11.90534 0.2426,-0.23457 0.63625,-1.82008 0.87476,-3.52335 0.23851,-1.70326 0.89545,-6.4544 1.45987,-10.55807 1.46294,-10.63651 2.69282,-16.94429 3.20408,-16.43304 0.28172,0.28173 0.26468,1.47783 -0.0521,3.65891 -0.25888,1.7822 -1.12076,8.27668 -1.91529,14.43218 -0.79453,6.15551 -1.53813,11.71807 -1.65244,12.36127 -0.16692,0.93929 -0.0686,1.14263 0.49962,1.0332 0.5007,-0.0964 0.99199,-1.16506 1.68105,-3.65652 1.10512,-3.99581 2.02061,-5.45539 1.57676,-2.51383 -0.15233,1.0095 -0.68912,3.01645 -1.19288,4.45988 -0.8417,2.41171 -0.86476,2.71649 -0.28456,3.76045 1.29667,2.3331 7.08421,3.25396 9.38024,1.4925 0.6213,-0.47665 3.52616,-5.91243 7.60904,-14.23859 3.63224,-7.40719 6.79605,-13.5316 7.03067,-13.60981 0.85446,-0.28482 0.37772,1.23561 -2.01771,6.435 -4.3816,9.51044 -5.83128,12.78033 -5.31602,11.99078 0.2785,-0.42675 1.23474,-1.919 2.12497,-3.3161 1.60504,-2.51888 2.56078,-2.73137 1.29751,-0.28846 -1.12703,2.17943 -0.46728,1.4167 2.29539,-2.65373 1.46532,-2.15894 2.89739,-3.93098 3.18236,-3.93786 0.98628,-0.0238 0.51092,1.49961 -1.16825,3.74394 -0.9277,1.23969 -3.21727,4.49234 -5.08812,7.22812 -1.87086,2.73578 -4.37941,6.39062 -5.57458,8.12186 l -2.17302,3.14772 1.05647,1.89025 c 1.21296,2.17021 2.01963,2.9536 2.77784,2.69765 0.29264,-0.0988 1.12938,0.0689 1.85942,0.3726 1.77927,0.74023 2.71502,0.3339 6.26274,-2.71954 3.01636,-2.5961 5.76627,-4.59853 6.3151,-4.59853 0.17483,0 0.21268,0.40223 0.0841,0.89384 -0.26729,1.02213 -0.28723,1.03095 3.21294,-1.42238 1.87968,-1.3175 2.30483,-1.47637 2.42232,-0.90519 0.0784,0.38102 -0.0149,0.84858 -0.20726,1.03902 -0.19237,0.19043 -3.9871,2.51862 -8.43274,5.17375 -4.44564,2.65512 -8.29005,4.99885 -8.54313,5.20826 -1.25232,1.03625 1.2796,4.79203 2.92673,4.34143 3.04671,-0.83351 9.39188,-1.98668 9.62864,-1.74991 0.63156,0.63156 -0.83212,1.23752 -4.67996,1.93746 -4.25238,0.77353 -5.13544,1.3203 -5.13544,3.1797 0,0.73589 0.23164,0.95706 1.00238,0.95706 1.43093,0 2.31371,0.41231 2.31371,1.08063 0,0.57959 -0.19493,0.63716 -2.48162,0.73286 -0.87657,0.0367 -1.78842,0.60215 -3.12285,1.93658 l -1.88477,1.88478 0.63578,1.52164 c 0.72918,1.74516 0.83737,4.9567 0.20669,6.13514 -0.5176,0.96715 -2.94066,1.10341 -3.82876,0.21531 -0.57876,-0.57876 -0.77513,-1.02552 -2.15833,-4.91055 -0.81994,-2.30295 -1.27459,-2.60125 -4.43718,-2.91123 -1.50419,-0.14744 -2.8099,-0.5666 -3.6118,-1.15947 -1.32973,-0.98311 -1.83841,-1.03778 -8.24597,-0.88618 l -3.85083,0.0911 -1.64145,1.72552 c -0.90279,0.94903 -1.64144,1.96063 -1.64144,2.24801 0,0.28737 0.46633,1.07669 1.03628,1.75404 1.70981,2.032 1.27493,3.27591 -1.65805,4.74259 -1.78608,0.89316 -2.81917,0.32867 -3.87032,-2.1148 -0.49311,-1.14626 -0.89656,-2.29013 -0.89656,-2.54192 0,-0.9666 -1.70355,-3.73618 -2.59206,-4.21411 -0.51221,-0.27552 -1.58415,-0.64647 -2.38209,-0.82433 -0.79793,-0.17786 -1.94726,-0.44359 -2.55407,-0.59052 -0.88256,-0.21369 -1.23823,-0.0612 -1.77787,0.76244 -0.62424,0.95271 -0.6228,1.13819 0.0193,2.48466 0.78381,1.64367 0.59676,2.95765 -0.64593,4.53747 -1.72996,2.19929 -4.61483,1.78261 -5.6501,-0.81609 -1.04229,-2.61633 -1.48666,-3.34302 -2.18891,-3.57957 -0.37073,-0.12487 -1.14037,-0.59523 -1.71032,-1.04524 -0.71939,-0.56799 -1.98957,-0.90168 -4.15368,-1.0912 -2.68211,-0.23488 -3.25078,-0.165 -4.07255,0.50043 l -0.95515,0.77343 0.86008,1.09342 c 0.47305,0.60138 0.85416,1.43706 0.84691,1.85706 -0.0288,1.66724 -1.95635,3.04346 -4.26275,3.04346 -1.55476,0 -2.35695,-0.81752 -4.56833,-4.65564 -1.30089,-2.25784 -1.56185,-2.4241 -5.40637,-3.4444 -2.76189,-0.73298 -2.86898,-0.73294 -3.405858,0.001 -0.480933,0.65771 -0.418968,0.91891 0.468108,1.97313 0.56234,0.66834 1.02242,1.37167 1.02242,1.563 0,0.19133 -0.73964,0.93369 -1.643657,1.64968 -1.129325,0.89444 -1.726587,1.74384 -1.908666,2.71439 -0.385392,2.05432 -0.997489,2.4054 -3.083085,1.76836 -2.006656,-0.61293 -2.39587,-1.31413 -2.419456,-4.35879 -0.0094,-1.20914 -0.427063,-3.14579 -0.973054,-4.51155 -0.820137,-2.05153 -1.152447,-2.44336 -2.32884,-2.74595 -1.094742,-0.28159 -1.662677,-0.17343 -2.808844,0.53494 -1.368668,0.84589 -1.487223,0.85477 -2.505434,0.18761 -2.018333,-1.32246 -5.357955,0.074 -5.775385,2.41504 -0.115144,0.64572 0.189979,2.73964 0.67805,4.65314 0.69107,2.7094 0.79289,3.7502 0.460224,4.70448 -0.234945,0.67397 -0.331274,1.5921 -0.214066,2.0403 0.254846,0.97454 -0.567687,2.68251 -1.125757,2.3376 -0.216545,-0.13383 -0.393715,-0.76392 -0.393715,-1.40021 0,-1.1634 -2.153783,-4.59736 -2.883473,-4.59736 -0.226643,0 -0.317666,1.3513 -0.216384,3.21247 l 0.174812,3.21247 -1.33239,-2.69433 -1.33239,-2.69433 -0.274838,3.86423 c -0.15116,2.12533 -0.387697,3.9771 -0.525639,4.11504 -0.137941,0.13794 -0.569916,-0.57505 -0.959939,-1.58442 -1.04777,-2.71158 -2.752495,-5.89365 -3.245424,-6.05796 -0.262614,-0.0875 -0.379088,0.46702 -0.297761,1.41772 0.113535,1.32713 0.05669,1.45558 -0.378735,0.8558 -0.447043,-0.61577 -0.577863,-0.45732 -1.026721,1.24354 -0.282917,1.07207 -0.522629,2.87255 -0.532694,4.00105 -0.01069,1.19927 -0.169257,1.88821 -0.381616,1.65805 -0.596967,-0.64703 -2.123747,-5.11323 -2.123747,-6.2125 0,-1.58336 -1.196211,-1.24742 -1.900392,0.53369 -2.166952,5.48097 -2.816761,6.32131 -4.88811,6.32131 -2.552461,0 -5.006085,-2.48148 -7.655031,-7.74191 -0.709151,-1.40828 -1.444549,-2.65641 -1.634222,-2.77363 -0.189668,-0.11723 -1.318454,0.26869 -2.50841,0.8576 -1.893884,0.93727 -2.898292,1.10691 -8.058284,1.36103 -8.039549,0.39593 -13.518339,-0.74411 -16.775668,-3.49072 -2.541783,-2.14326 -1.145123,-2.63779 1.93264,-0.68432 2.922661,1.85503 5.805098,2.52564 10.785205,2.5092 6.06251,-0.02 11.868175,-1.16719 13.634224,-2.69407 0.0738,-0.0638 -0.162518,-0.68978 -0.525158,-1.39105 -0.964494,-1.86513 -2.589663,-2.53261 -6.166345,-2.53261 -3.813927,0 -9.104583,-0.90351 -12.928778,-2.20789 -6.359648,-2.1692 -12.776337,-5.69589 -11.920548,-6.55168 0.221855,-0.22186 2.130516,0.45312 4.698322,1.66151 6.546617,3.08079 12.086411,4.55362 19.742188,5.24874 3.541109,0.32153 5.316881,-0.15985 6.975306,-1.89087 0.702801,-0.73357 1.613003,-1.23653 2.244557,-1.2403 0.584296,-0.003 1.322699,-0.1712 1.640899,-0.37268 1.307623,-0.82799 0.03084,-1.52291 -4.385233,-2.38677 -4.560132,-0.89204 -8.222962,-2.1403 -7.303653,-2.48903 0.27279,-0.10348 3.430674,0.21851 7.01752,0.71555 6.323697,0.87628 6.538473,0.88052 7.08007,0.13985 0.385935,-0.5278 0.473567,-1.34308 0.283567,-2.63822 -0.414068,-2.82255 -0.792779,-3.54906 -2.519672,-4.83366 -5.722449,-4.25683 -22.513014,-19.21192 -22.513014,-20.05199 0,-1.23176 1.388979,-0.30416 6.037448,4.03198 2.880804,2.68724 5.545472,5.03909 5.921493,5.22632 0.37602,0.18724 -0.290926,-0.55888 -1.482096,-1.65804 -2.26275,-2.08797 -4.673679,-4.96582 -4.673679,-5.57883 0,-0.79275 0.971869,-0.27284 2.211558,1.1831 3.226713,3.78958 6.678076,7.18655 11.758267,11.57299 3.009783,2.59876 5.585584,4.90826 5.724002,5.13223 0.490384,0.79346 1.583195,0.38659 3.359594,-1.25084 0.98932,-0.91193 2.060041,-1.65805 2.379377,-1.65805 0.777674,0 1.558498,-3.13581 1.088583,-4.37178 -0.198452,-0.52196 -1.000512,-1.78707 -1.782364,-2.81135 -4.191163,-5.49072 -15.619756,-23.30001 -15.619756,-24.34041 0,-1.27683 1.444105,0.62456 6.874509,9.05137 5.713184,8.86561 11.222424,16.6909 12.157977,17.26911 0.982741,0.60736 0.381305,-1.78195 -0.990609,-3.93541 -0.792103,-1.24333 -1.444959,-2.38921 -1.450791,-2.54638 -0.0058,-0.15718 -1.875915,-3.81587 -4.15573,-8.13044 -2.279816,-4.31456 -4.145119,-7.9632 -4.145119,-8.10809 0,-0.14489 0.233163,-0.25828 0.51814,-0.25198 0.284977,0.006 2.06749,2.94907 3.961142,6.53947 7.085035,13.43336 9.199609,16.86486 9.199609,14.92897 0,-0.26908 -0.726987,-1.62143 -1.615531,-3.00521 -0.888539,-1.38379 -1.739685,-2.9823 -1.891434,-3.55225 -0.251356,-0.94407 -0.153701,-0.90397 1.097387,0.45056 0.755315,0.81777 2.029479,2.40328 2.831477,3.52336 1.520574,2.12364 2.673809,2.57122 3.450877,1.33931 0.340049,-0.53909 -0.327269,-3.07714 -2.942607,-11.19182 -4.141409,-12.84969 -6.425589,-20.83057 -6.236903,-21.79162 0.07817,-0.39812 1.513951,3.28654 3.190635,8.18814 5.46725,15.98292 8.100324,22.79816 8.808087,22.79816 0.535093,0 0.480406,-0.3696 -1.257302,-8.49749 -3.336215,-15.6047 -4.195308,-19.96308 -4.085288,-20.7256 0.113261,-0.78499 0.148043,-0.77833 0.654829,0.1253 0.294366,0.52488 0.790989,2.11039 1.103597,3.52335 0.312612,1.41297 1.492682,6.76596 2.62238,11.89555 1.129698,5.12958 2.32663,10.25689 2.659848,11.394 0.603517,2.05951 0.612081,2.06701 2.221949,1.94532 3.314897,-0.25057 3.626357,-0.70726 2.431937,-3.56591 -0.707352,-1.69294 -0.470835,-2.6434 0.464602,-1.86706 0.321674,0.26697 0.584864,0.72169 0.584864,1.01049 0,0.2888 0.357325,0.96545 0.794055,1.50367 l 0.794056,0.97857 0.297727,-1.18201 c 0.164155,-0.65171 -0.191882,-5.95176 -0.793591,-11.81359 -1.448442,-14.1107 -1.754355,-19.12908 -1.166088,-19.12908 1.148902,0 1.738408,2.86805 3.407983,16.58048 1.166723,9.58244 2.005562,14.19935 2.710083,14.91611 0.429986,0.43746 1.625728,0.63305 4.134515,0.6763 5.365973,0.0925 4.96722,0.9043 6.437303,-13.10534 1.047982,-9.98709 2.45435,-19.20857 3.015006,-19.76923 0.08106,-0.0811 0.377484,0.12988 0.658718,0.46874 z"
         id="path14957"
         inkscape:connector-curvature="0" />
      <path
         style="fill:#11888a;fill-opacity:1;stroke-width:1"
         d="m 97.641732,152.99755 c 0.464395,0.55956 0.480996,1.39978 0.0934,4.72626 -0.833595,7.15417 -1.695656,18.99494 -1.695656,23.2905 0,3.93252 0.04937,4.17514 0.849609,4.17514 0.467283,0 1.395197,0.28214 2.06203,0.62697 1.857675,0.96064 5.985705,1.19378 6.795675,0.38381 0.72474,-0.72474 0.70439,-0.62455 0.83663,-4.11962 0.28766,-7.60296 1.25184,-21.39772 1.52668,-21.84241 0.80228,-1.29813 0.88015,0.85916 0.42554,11.78816 -0.26796,6.44176 -0.47259,12.55169 -0.45475,13.5776 l 0.0325,1.86531 0.55717,-1.24354 c 0.30644,-0.68394 1.35786,-6.69955 2.3365,-13.36801 1.28493,-8.7555 1.92899,-12.12447 2.31791,-12.12447 0.81715,0 0.67279,1.93474 -1.09794,14.71517 -1.12219,8.09956 -1.47903,11.76199 -1.18103,12.1215 0.6996,0.84398 3.22668,1.29671 6.79554,1.21744 2.13671,-0.0475 3.60524,-0.28127 4.0415,-0.64345 0.60784,-0.50463 0.68854,-1.95611 0.71438,-12.84987 0.0279,-11.75172 0.28461,-15.30041 0.93185,-12.88055 0.14917,0.55775 0.27378,3.08265 0.27689,5.61089 0.0102,8.25548 0.54424,19.69389 0.90279,19.33533 0.19281,-0.19281 0.53187,-2.20561 0.75347,-4.47288 2.30571,-23.59093 2.49316,-25.09856 3.11629,-25.06385 0.50911,0.0283 0.47253,1.82133 -0.15237,7.4699 -1.15919,10.47816 -1.74562,17.86765 -1.6301,20.54084 0.10999,2.54509 0.21907,2.87908 0.94025,2.87908 0.51394,0 1.17448,-0.61355 1.78502,-1.65804 l 0.96918,-1.65805 -0.26703,1.76167 c -0.14687,0.96893 -0.11074,1.76687 0.0803,1.77322 0.19103,0.006 1.99764,0.10915 4.0147,0.22845 2.90928,0.17208 3.87325,0.082 4.66326,-0.4356 l 0.99587,-0.65253 0.0356,-11.49315 c 0.0242,-7.80577 0.16026,-11.09418 0.42409,-10.24961 0.21365,0.68394 0.39686,5.53373 0.40712,10.77731 0.0174,8.87537 0.26293,11.76018 0.91166,10.71051 0.1449,-0.23446 0.55223,-3.67289 0.90516,-7.64096 0.93516,-10.51394 1.40601,-14.60069 1.96489,-17.05429 0.94312,-4.14052 0.84716,-0.38974 -0.30669,11.98762 -0.62112,6.66269 -1.0186,12.40248 -0.88329,12.75509 0.43063,1.12218 1.40566,0.69233 2.07165,-0.91331 l 0.64474,-1.55442 0.0213,1.53984 c 0.03,2.16188 0.97551,2.57518 5.15421,2.25294 1.82697,-0.14089 3.554,-0.4923 3.83784,-0.78093 0.37835,-0.38472 0.57588,-3.87903 0.74011,-13.09246 0.21296,-11.94721 0.31598,-13.33895 0.98734,-13.33959 0.15753,-1.5e-4 0.2267,5.6424 0.1537,12.53899 -0.0902,8.51729 0.003,12.4063 0.28995,12.12474 0.4593,-0.45043 0.74844,-2.17932 2.35481,-14.08011 1.38092,-10.23056 2.66895,-16.96724 3.15178,-16.48441 0.22612,0.22612 0.20073,1.52304 -0.0635,3.24258 -1.48993,9.69668 -3.66586,27.76418 -3.37836,28.05168 0.56281,0.56281 1.2408,-0.6326 1.95909,-3.45418 0.37303,-1.46531 0.94309,-3.13054 1.26679,-3.70049 0.56014,-0.98626 0.57594,-0.9499 0.32718,0.75313 -0.14375,0.98417 -0.61592,2.79818 -1.04927,4.03113 -1.39856,3.97915 -0.9548,5.00704 2.69914,6.25206 2.3764,0.80972 5.30854,0.57566 6.52491,-0.52087 0.47249,-0.42593 1.93625,-3.01278 3.25282,-5.74856 5.66053,-11.76238 10.86977,-21.98067 11.28017,-22.12681 0.82516,-0.29384 -0.0833,2.0287 -4.24741,10.85912 -2.26359,4.80012 -4.06186,8.78124 -3.99617,8.84693 0.0657,0.0657 0.80794,-1.04154 1.64944,-2.46051 1.87272,-3.15787 3.16778,-4.83316 3.18008,-4.11378 0.005,0.29629 -0.27537,1.08905 -0.62319,1.76167 -1.17529,2.27276 -0.23096,1.24224 2.26991,-2.4771 2.73088,-4.06141 3.21984,-4.54787 3.59319,-3.57494 0.15347,0.39995 -0.38392,1.49517 -1.38577,2.82424 -1.48452,1.96938 -12.0182,17.24811 -12.6916,18.40871 -0.27738,0.47806 0.93561,2.96 2.14268,4.3842 0.33815,0.39897 1.06449,0.72539 1.6141,0.72539 0.5496,0 1.37745,0.20239 1.83966,0.44976 1.31578,0.70419 2.6113,0.13927 5.63161,-2.45571 3.12656,-2.68623 6.28473,-5.04075 6.7613,-5.04075 0.17243,0 0.21596,0.37306 0.0967,0.82902 -0.30369,1.16133 0.0219,1.05646 2.57422,-0.82902 2.19942,-1.62481 3.10884,-2.00737 3.10884,-1.30778 0,0.6736 -1.52992,1.71635 -9.54329,6.50443 -4.4404,2.6532 -8.13868,4.88849 -8.2184,4.9673 -0.39295,0.38851 0.96008,3.20802 1.80519,3.76176 0.8802,0.57673 1.40359,0.53448 5.98829,-0.48341 2.76309,-0.61347 5.14457,-0.99462 5.29218,-0.847 0.59591,0.59591 -0.77078,1.15589 -4.16014,1.70456 -4.19565,0.67919 -5.15713,1.11569 -5.5043,2.49891 -0.37022,1.47509 0.0394,2.24548 1.05294,1.98043 0.93002,-0.24321 2.22729,0.56912 1.85943,1.16434 -0.12494,0.20215 -0.91564,0.36848 -1.75711,0.36961 -1.54941,0.002 -2.62294,0.69305 -4.55691,2.93301 -0.88489,1.02489 -0.89729,1.14443 -0.2955,2.85007 0.82301,2.33268 0.81204,5.16354 -0.0233,5.99884 -1.02732,1.02732 -2.88987,0.81562 -3.87817,-0.4408 -0.47251,-0.6007 -0.85911,-1.24656 -0.85911,-1.43525 0,-0.18868 -0.39317,-1.39389 -0.8737,-2.67824 -0.98995,-2.64587 -2.30852,-3.49909 -5.40758,-3.49909 -1.24163,0 -2.03684,-0.27027 -2.74404,-0.93265 -0.94861,-0.88847 -1.26405,-0.92636 -6.65891,-0.7998 l -5.66313,0.13285 -1.3637,1.31165 c -1.93087,1.85719 -2.10906,2.97157 -0.70886,4.43307 1.44481,1.50806 1.18249,2.90194 -0.77363,4.11089 -2.64441,1.63433 -3.85141,0.95209 -5.18786,-2.93238 -1.58592,-4.60957 -2.87025,-6.15265 -5.12093,-6.15265 -0.63631,0 -1.4993,-0.21382 -1.91777,-0.47515 -0.99761,-0.62302 -2.83875,-0.14069 -3.14489,0.82386 -0.13289,0.41872 0.0504,1.4602 0.4073,2.3144 1.21749,2.91386 -0.50798,5.62713 -3.5785,5.62713 -1.7446,0 -2.05619,-0.30671 -3.07289,-3.02476 -0.40909,-1.09367 -1.13479,-2.19669 -1.61267,-2.45115 -0.47788,-0.25447 -1.06509,-0.72867 -1.30491,-1.05377 -0.4883,-0.66196 -5.9933,-1.72399 -7.47151,-1.44142 -0.52517,0.1004 -1.26649,0.5269 -1.64739,0.94778 -0.64959,0.7178 -0.63828,0.83424 0.18245,1.87763 1.16271,1.47814 1.10538,2.07749 -0.33666,3.51953 -0.88256,0.88256 -1.60996,1.21165 -2.67817,1.21165 -1.7102,0 -2.66396,-0.8539 -4.4492,-3.98337 -1.63537,-2.86673 -2.17039,-3.25904 -5.64838,-4.1417 -2.8296,-0.71812 -3.0436,-0.72131 -3.709551,-0.0554 -0.665946,0.66594 -0.654124,0.77784 0.204881,1.93971 1.21866,1.64833 1.14956,2.32268 -0.327423,3.19515 -0.857836,0.50674 -1.444967,1.35195 -1.908433,2.74732 -0.368178,1.10848 -0.883167,2.09338 -1.144422,2.18868 -0.261254,0.0953 -1.221131,-0.0864 -2.133057,-0.40378 -1.656593,-0.57653 -1.658259,-0.57935 -1.899389,-3.20803 -0.284276,-3.09902 -1.397456,-7.11366 -2.137915,-7.7103 -1.168501,-0.94155 -3.175265,-1.02385 -4.255031,-0.1745 -1.009618,0.79416 -2.446631,0.80513 -2.930408,0.0224 -0.391365,-0.63324 -2.404985,-0.39257 -3.792187,0.45324 -1.841651,1.1229 -2.03575,2.38008 -1.037328,6.71866 0.624073,2.71188 0.750374,4.0541 0.47261,5.02259 -0.208483,0.72693 -0.379059,1.92916 -0.379059,2.6716 0,0.92357 -0.196371,1.3499 -0.621768,1.3499 -0.426002,0 -0.621767,-0.42705 -0.621767,-1.35635 0,-1.35055 -2.059556,-4.44682 -2.957911,-4.44682 -0.253843,0 -0.32984,1.22591 -0.199153,3.21247 l 0.211331,3.21247 -1.325087,-2.69433 c -1.32177,-2.68758 -1.325347,-2.69069 -1.427222,-1.24354 -0.05617,0.79794 -0.219563,2.66324 -0.363088,4.14512 l -0.260955,2.69433 -1.916728,-3.92438 c -2.096842,-4.29316 -2.884733,-5.07793 -2.621647,-2.61125 0.156918,1.47124 0.130157,1.51362 -0.46303,0.73312 -0.346267,-0.45561 -0.73432,-0.72363 -0.862347,-0.5956 -0.128026,0.12803 -0.357325,1.85314 -0.509555,3.83358 -0.152229,1.98045 -0.401774,3.60081 -0.554542,3.60081 -0.277296,0 -1.936852,-4.88564 -2.170753,-6.39058 -0.264417,-1.7013 -1.089656,-0.96302 -2.379054,2.12834 -0.740044,1.77428 -1.733625,3.64566 -2.207951,4.15861 -1.175311,1.27104 -2.984991,1.19721 -4.823894,-0.19679 -2.043995,-1.54948 -2.613278,-2.30192 -4.633691,-6.12451 -0.963989,-1.82386 -1.807081,-3.38408 -1.873532,-3.46718 -0.06645,-0.0831 -0.923313,0.23453 -1.904135,0.70584 -2.694621,1.29482 -5.087805,1.69184 -10.520535,1.74533 -7.197911,0.0709 -13.350838,-1.54353 -15.671769,-4.11195 -0.721495,-0.79843 -0.727675,-0.88596 -0.0801,-1.13446 0.44291,-0.16996 1.348784,0.19542 2.456149,0.99067 3.008174,2.16031 5.72503,2.69217 12.652841,2.47696 4.723516,-0.14674 6.678653,-0.38802 8.844457,-1.09149 1.529242,-0.49671 2.889209,-1.0791 3.022152,-1.29419 0.356836,-0.57738 -0.912233,-2.80666 -1.976986,-3.47284 -0.58008,-0.36293 -2.698372,-0.66314 -5.690912,-0.80653 -5.955453,-0.28536 -11.217433,-1.59532 -17.017639,-4.23651 -4.545504,-2.06984 -6.609537,-3.30292 -6.609537,-3.94864 0,-0.70964 1.240129,-0.39842 4.051837,1.01684 6.632986,3.33868 14.346057,5.31468 21.038011,5.38972 4.053122,0.0454 4.19813,0.0144 5.803166,-1.24196 0.905393,-0.70871 2.355894,-1.5193 3.223343,-1.80133 2.864016,-0.93115 1.888906,-1.71082 -3.650601,-2.91893 -2.735302,-0.59653 -5.532867,-1.40637 -6.216812,-1.79963 l -1.243536,-0.71503 1.658048,0.20281 c 0.911926,0.11154 4.046332,0.5204 6.965341,0.90857 6.526402,0.86788 6.739337,0.76619 6.285977,-3.00188 -0.332687,-2.76513 -0.30014,-2.72846 -8.06992,-9.09338 -5.232085,-4.28608 -16.994986,-15.0639 -16.994986,-15.57175 0,-1.10945 1.794492,0.1491 6.32686,4.43728 6.21161,5.87696 8.041443,7.0214 3.103285,1.94091 -3.29001,-3.38483 -4.19949,-4.66729 -3.309911,-4.66729 0.17439,0 2.152345,1.96535 4.395459,4.36744 4.64868,4.97815 15.213315,14.2856 16.215207,14.2856 0.367386,0 1.334865,-0.64768 2.149948,-1.43928 0.815088,-0.7916 1.8276,-1.54897 2.250025,-1.68305 0.914753,-0.29033 1.788987,-3.1374 1.370401,-4.4629 -0.158447,-0.50174 -0.889323,-1.65839 -1.624161,-2.57032 -3.332759,-4.13591 -15.954686,-23.73991 -15.954686,-24.78034 0,-1.0571 1.33637,0.74811 6.990846,9.4434 6.303842,9.69388 11.617818,17.19816 12.180327,17.20079 0.853547,0.004 0.009,-2.19894 -3.05353,-7.96489 -5.489729,-10.33573 -7.911655,-15.34276 -7.334224,-15.16259 0.298702,0.0932 1.205964,1.46483 2.016132,3.04807 1.832196,3.58049 9.000192,16.64181 9.826016,17.90468 0.335435,0.51296 0.774963,0.93265 0.976723,0.93265 0.739945,0 0.328504,-1.172 -1.250537,-3.5622 -0.889559,-1.34652 -1.753738,-2.91455 -1.920396,-3.4845 -0.29997,-1.02587 -0.294291,-1.02849 0.565386,-0.26086 0.477617,0.42648 1.737165,2.05862 2.798995,3.62698 2.095428,3.09501 3.401273,3.69429 4.191416,1.92352 0.331269,-0.74241 -0.11579,-2.50429 -2.235053,-8.80838 -2.596108,-7.72256 -7.171627,-22.98234 -7.171627,-23.91806 0,-1.06835 0.579948,0.4291 4.29678,11.09449 4.763612,13.6691 6.751661,18.85024 7.537426,19.6436 0.526575,0.53167 0.60115,0.46298 0.60115,-0.55373 0,-0.63838 -0.279364,-2.3105 -0.620806,-3.71581 -0.840158,-3.4579 -4.18829,-19.32723 -4.767832,-22.59835 -0.25664,-1.44855 -0.366851,-2.7335 -0.244914,-2.85544 0.497974,-0.49797 1.027886,1.5569 5.415809,21.00127 2.024439,8.97098 1.940939,8.77527 3.624268,8.49458 3.41823,-0.56999 3.33612,-0.51729 3.042994,-1.95291 -0.684389,-3.35188 -0.743991,-4.23681 -0.254026,-3.77159 0.265383,0.25198 0.798636,1.09136 1.185003,1.8653 1.760718,3.52691 1.928392,-0.48556 0.582094,-13.92979 -1.141648,-11.40057 -1.422865,-16.37322 -0.925953,-16.37322 1.046137,0 1.483513,2.27596 3.544765,18.44578 0.581241,4.55963 1.282794,9.39706 1.559008,10.74983 0.451656,2.21203 0.627364,2.49323 1.745737,2.79393 0.683945,0.18389 2.585298,0.31591 4.225228,0.29337 4.043816,-0.0556 4.200891,-0.26845 4.910481,-6.65473 0.312273,-2.81041 0.951437,-8.56065 1.420371,-12.77831 0.468929,-4.21766 1.17713,-9.04917 1.573781,-10.73668 0.632338,-2.69025 0.790756,-2.98438 1.285981,-2.38767 z"
         id="path14955"
         inkscape:connector-curvature="0" />
      <path
         style="fill:#11888a;fill-opacity:1;stroke-width:1"
         d="m 97.914585,153.28789 c 0.146289,0.2367 0.06489,2.05537 -0.180889,4.04149 -0.780099,6.30388 -1.694218,18.98362 -1.694218,23.50043 0,4.10842 0.04861,4.35964 0.843607,4.35964 0.463983,0 1.302529,0.3007 1.863434,0.66822 0.596126,0.39059 2.203521,0.73684 3.868911,0.83338 3.64349,0.21122 3.90109,-0.0781 4.03721,-4.53406 0.15701,-5.13984 0.99886,-19.37844 1.23603,-20.9056 0.11507,-0.74095 0.40722,-1.34717 0.64921,-1.34717 0.29972,0 0.36431,1.6849 0.20261,5.28503 -0.70352,15.66327 -0.78067,22.28155 -0.25394,21.78362 0.28881,-0.27302 0.94334,-3.35077 1.4545,-6.83945 2.53706,-17.31555 2.89304,-19.39761 3.29291,-19.25942 0.71372,0.24665 0.41531,4.16959 -1.18481,15.57563 -1.23163,8.77935 -1.42998,11.01809 -1.00078,11.29556 1.87757,1.21382 8.98312,1.57436 10.56754,0.53621 l 0.95233,-0.62399 0.049,-11.90766 c 0.027,-6.54921 0.17513,-12.46726 0.32923,-13.1512 l 0.28019,-1.24354 0.28798,1.65805 c 0.15838,0.91193 0.31531,4.7358 0.34873,8.4975 0.0334,3.76169 0.17769,9.07781 0.32059,11.81359 0.24767,4.7415 0.28371,4.8966 0.77051,3.31609 0.28088,-0.91192 0.51164,-2.21764 0.5128,-2.90158 0.002,-1.16491 0.20164,-3.19039 1.87652,-19.03726 0.66101,-6.25415 1.0412,-7.85374 1.63738,-6.88909 0.17052,0.2759 0.10489,1.93199 -0.14582,3.68021 -0.98146,6.84367 -1.82516,16.69481 -1.86889,21.82157 -0.0403,4.72066 0.039,5.39548 0.64803,5.51661 0.43012,0.0855 1.09926,-0.4585 1.76017,-1.43111 l 1.06625,-1.56913 -0.10212,1.57968 -0.10212,1.57968 4.20384,0.18767 c 3.48247,0.15547 4.31824,0.0733 4.87051,-0.47899 0.57833,-0.57834 0.67053,-2.15951 0.69581,-11.93252 0.0173,-6.67648 0.17426,-10.92813 0.38538,-10.43682 0.19593,0.45596 0.38246,5.21249 0.41451,10.57005 0.0552,9.22576 0.30079,11.96735 0.97446,10.87734 0.15865,-0.2567 0.57051,-3.69513 0.91524,-7.64096 0.83932,-9.60678 1.74366,-17.01254 2.22398,-18.21237 0.36246,-0.90543 0.39519,-0.86862 0.41617,0.46807 0.0125,0.79794 -0.4413,6.30059 -1.00848,12.22811 -1.28907,13.47175 -1.2946,13.88615 -0.18527,13.88615 0.56144,0 1.04738,-0.45634 1.43457,-1.34717 l 0.58554,-1.34716 0.0162,1.51007 c 0.0106,0.98352 0.24485,1.59781 0.6719,1.76168 1.4473,0.55538 7.97648,0.0479 8.70065,-0.67632 0.0943,-0.0943 0.26851,-5.93281 0.38722,-12.97456 0.12746,-7.56084 0.38329,-12.97064 0.6248,-13.21215 0.24853,-0.24853 0.41567,-0.25448 0.42605,-0.0152 0.009,0.21658 0.0205,5.9897 0.0247,12.82915 0.007,10.75922 0.0828,12.26733 0.56485,11.18873 0.30646,-0.68565 0.77489,-3.11054 1.04096,-5.38866 1.35842,-11.63071 3.68964,-25.29206 4.22464,-24.75707 0.18426,0.18426 0.15555,1.44721 -0.0638,2.80656 -1.07837,6.68309 -3.77849,28.47415 -3.55581,28.69683 0.55456,0.55455 1.52499,-1.12652 2.33252,-4.04061 0.46729,-1.68629 1.02544,-3.35728 1.24033,-3.71332 0.65236,-1.0809 -0.0573,2.86978 -0.91028,5.06754 -1.4525,3.74245 -0.78383,5.46661 2.50183,6.45102 2.11169,0.63268 4.32923,0.60255 5.96532,-0.0811 1.19373,-0.49877 1.86673,-1.63105 6.36308,-10.70543 2.76548,-5.58122 5.82317,-11.85879 6.79486,-13.95015 1.61111,-3.4676 2.49023,-4.63829 2.46636,-3.28435 -0.005,0.28498 -2.0374,4.85396 -4.51639,10.15328 -2.47899,5.29933 -4.34299,9.53363 -4.14223,9.40955 0.20075,-0.12407 1.10403,-1.49096 2.00727,-3.03752 2.1012,-3.59776 3.50384,-4.88416 1.92217,-1.76288 -0.61632,1.21625 -1.05986,2.2721 -0.98563,2.34633 0.0742,0.0742 1.60031,-2.01217 3.39128,-4.63644 2.2653,-3.3193 3.3882,-4.63951 3.68967,-4.33804 0.43567,0.43567 0.29713,0.68251 -3.05379,5.44099 -0.72245,1.02592 -3.56061,5.12327 -6.30703,9.10523 l -4.99348,7.23993 1.24624,2.29212 c 1.09718,2.01797 1.44064,2.32918 2.87167,2.60197 0.89398,0.17041 2.18851,0.42176 2.87671,0.55854 1.10934,0.22049 1.71986,-0.13634 5.38176,-3.14545 2.27175,-1.86678 4.65914,-3.66754 5.30531,-4.00168 1.1351,-0.58699 1.15939,-0.57864 0.71772,0.24663 -0.71043,1.32744 0.13364,1.07131 2.90104,-0.88031 1.35271,-0.95396 2.59231,-1.60163 2.75467,-1.43927 0.51243,0.51243 -1.09579,1.64307 -9.53806,6.70558 -8.19121,4.91197 -8.22034,4.93461 -7.96931,6.19137 0.13857,0.69375 0.69883,1.70852 1.24501,2.25504 l 0.99306,0.99368 4.48918,-0.92756 c 2.46907,-0.51017 4.95552,-1.02712 5.52548,-1.14878 0.98104,-0.20941 0.99895,-0.18192 0.33601,0.51572 -0.46065,0.48477 -1.92836,0.9185 -4.28945,1.26759 -4.1474,0.61321 -5.16582,1.282 -5.16582,3.3924 0,1.26659 0.1051,1.40741 0.89604,1.20057 1.03964,-0.27187 2.55725,0.40931 2.19994,0.98745 -0.13383,0.21655 -1.00336,0.39372 -1.9323,0.39372 -1.4698,0 -1.94396,0.25904 -3.65404,1.99632 -1.90092,1.93113 -1.94578,2.03314 -1.37404,3.12435 1.69684,3.23854 0.91805,7.31469 -1.39755,7.31469 -1.63837,0 -2.52694,-1.06983 -3.4428,-4.14512 -1.041,-3.49548 -1.83974,-4.23049 -4.87041,-4.48182 -1.5109,-0.12529 -2.80055,-0.51325 -3.55645,-1.06985 -1.09646,-0.80737 -1.62262,-0.86312 -6.97232,-0.73876 l -5.78637,0.13451 -1.41686,1.52354 c -1.69728,1.82508 -1.77583,2.66194 -0.403,4.29346 1.3425,1.59547 1.30638,2.11051 -0.2392,3.41103 -2.93286,2.46784 -4.40491,1.76253 -5.84503,-2.80054 -1.15939,-3.67352 -2.46487,-5.19495 -4.91209,-5.72459 -3.81167,-0.82495 -4.15304,-0.84984 -4.75893,-0.347 -0.77596,0.64399 -0.78404,1.60412 -0.0265,3.14563 1.17827,2.39752 -0.66866,5.56226 -3.23872,5.54962 -1.7847,-0.009 -2.10331,-0.29223 -3.25434,-2.89523 -1.29638,-2.93172 -3.25803,-4.30869 -7.04083,-4.94228 -2.29715,-0.38476 -3.04374,-0.35945 -4.24875,0.14404 -1.69169,0.70683 -1.78069,1.1137 -0.60484,2.76503 1.38242,1.94144 0.17696,3.92282 -2.66744,4.38441 -1.86155,0.30208 -2.36649,-0.0908 -4.65813,-3.62476 -0.97166,-1.4984 -2.01221,-2.92149 -2.31233,-3.16243 -0.72341,-0.58077 -4.95708,-1.78169 -6.28107,-1.78169 -1.475937,0 -1.870677,1.43706 -0.72866,2.65268 1.19143,1.26822 1.08348,1.96758 -0.457956,2.96679 -0.925191,0.59974 -1.509292,1.46024 -1.969583,2.90158 -0.686659,2.15019 -0.698149,2.15546 -3.336501,1.53139 l -1.450791,-0.34317 -0.271742,-3.09296 c -0.266709,-3.03566 -1.164231,-6.22132 -2.055274,-7.29495 -0.795523,-0.95855 -3.20307,-1.16747 -4.09997,-0.35579 -0.583624,0.52818 -1.107969,0.63788 -1.952355,0.40848 -2.446059,-0.66455 -4.582022,-0.43755 -5.691642,0.60488 -1.267718,1.19096 -1.366707,2.80681 -0.386064,6.30181 0.533672,1.90198 0.597901,3.06372 0.310884,5.6231 -0.373388,3.32961 -1.017365,4.0895 -1.421518,1.67738 -0.266071,-1.58802 -1.943551,-4.04745 -2.7606,-4.04745 -0.425256,0 -0.523163,0.68958 -0.417276,2.93896 l 0.138347,2.93896 -0.966335,-2.00228 c -0.531483,-1.10125 -1.215241,-2.25117 -1.519459,-2.55539 -0.461157,-0.46116 -0.523757,-0.22061 -0.37651,1.44676 0.09714,1.09993 0.01927,3.0258 -0.172992,4.2797 l -0.349603,2.27981 -1.160679,-2.8829 c -1.896682,-4.711 -3.765074,-6.77498 -3.300182,-3.64566 0.217523,1.46421 0.193921,1.50635 -0.406682,0.72605 -0.350681,-0.45561 -0.736214,-0.72977 -0.856734,-0.60925 -0.120523,0.12053 -0.382602,1.89227 -0.582405,3.93722 -0.347606,3.55777 -0.386844,3.66446 -0.909991,2.47454 -0.300695,-0.68394 -0.86291,-2.3526 -1.249363,-3.70813 -0.802197,-2.81378 -1.442995,-3.29641 -2.136921,-1.60946 -2.632303,6.39922 -3.624384,7.59751 -5.83146,7.04357 -1.698152,-0.42621 -4.278857,-3.02309 -5.700235,-5.73596 -0.755634,-1.44221 -1.727105,-3.21235 -2.158832,-3.93364 l -0.784952,-1.31143 -1.749949,0.96817 c -4.533579,2.50825 -16.541552,2.50274 -22.556198,-0.0104 -2.300114,-0.96105 -4.426153,-2.69872 -3.920523,-3.20435 0.285428,-0.28542 0.864966,-0.13832 1.796739,0.45608 3.719734,2.3729 4.84651,2.67261 10.783298,2.86826 6.120404,0.20171 10.166156,-0.2836 13.079382,-1.56894 2.149506,-0.94838 2.222829,-1.68917 0.352336,-3.55966 -1.351189,-1.35119 -1.537085,-1.40934 -4.505334,-1.40934 -6.305231,0 -14.435011,-2.07203 -20.905446,-5.32817 -3.059466,-1.53961 -5.408488,-3.37658 -4.317816,-3.37658 0.271401,0 2.21225,0.82188 4.312992,1.8264 4.78779,2.2894 9.692775,3.78905 15.018477,4.59174 7.057413,1.06369 9.644373,0.7965 11.806467,-1.21942 0.569954,-0.53142 1.629616,-1.09114 2.3548,-1.24381 1.480757,-0.31175 2.541331,-1.31314 1.959282,-1.84996 -0.20692,-0.19083 -2.36695,-0.73397 -4.800068,-1.20697 -4.100774,-0.79718 -7.74253,-1.94128 -7.349756,-2.30901 0.09202,-0.0861 2.032597,0.0953 4.312412,0.4032 8.926757,1.20553 9.617351,1.22151 9.932094,0.22984 0.369035,-1.16274 -0.126862,-5.06467 -0.744306,-5.8565 -0.265673,-0.3407 -2.441608,-2.19372 -4.835414,-4.11783 -5.935308,-4.77071 -19.095272,-16.61741 -19.41297,-17.47571 -0.46883,-1.26659 1.656973,0.30299 6.536988,4.82656 3.063388,2.83963 5.742644,5.16296 5.953904,5.16296 0.21126,0 -1.222599,-1.68838 -3.186353,-3.75194 -1.963754,-2.06357 -3.57046,-3.92888 -3.57046,-4.14512 0,-0.8978 0.849111,-0.23182 3.330288,2.61203 4.924152,5.64391 16.232139,15.64783 17.687606,15.64783 0.437874,0 1.343989,-0.57837 2.013591,-1.28525 0.669603,-0.70689 1.627142,-1.44459 2.127864,-1.63933 1.082953,-0.42119 2.019195,-3.1283 1.625039,-4.69874 -0.147184,-0.58643 -0.799141,-1.67587 -1.448793,-2.421 -3.046356,-3.49403 -16.577689,-24.5515 -16.08997,-25.03922 0.288152,-0.28815 0.966691,0.68399 7.562358,10.83459 6.028002,9.27697 10.809645,15.95871 11.420503,15.95871 0.579487,0 0.438773,-2.20829 -0.198821,-3.12024 C 58.578193,187.1617 49.504553,169.438 49.94801,169.438 c 0.218817,0 2.026362,3.03112 4.016769,6.73582 5.987856,11.14506 8.602796,15.63275 8.975036,15.40269 0.678117,-0.4191 0.343962,-1.67671 -0.892108,-3.3575 -0.684935,-0.93137 -1.529731,-2.41373 -1.877324,-3.29413 l -0.631986,-1.60073 1.074556,1.24353 c 0.591007,0.68395 1.705691,2.21096 2.477073,3.39336 1.836089,2.81441 2.793951,3.34223 3.956172,2.18001 0.478815,-0.47882 0.775224,-1.11905 0.658684,-1.42275 -1.56802,-4.0862 -8.540225,-26.73062 -9.573533,-31.09304 -0.662278,-2.79603 0.311066,-0.33276 3.11858,7.89227 2.875195,8.42329 6.289368,17.83989 7.620888,21.01909 1.052822,2.51375 2.096364,1.96923 1.434003,-0.74828 -0.995429,-4.08399 -5.13399,-23.9411 -5.524282,-26.50589 -0.252289,-1.65792 -0.25226,-1.65796 0.375432,-0.53997 0.650729,1.15902 0.812339,1.80897 3.277814,13.18259 0.815432,3.76169 1.973135,8.84813 2.572672,11.30318 l 1.090075,4.46373 2.126815,-0.26448 c 2.899722,-0.36059 3.439334,-0.91602 2.553746,-2.62855 -0.376166,-0.72742 -0.615936,-1.82317 -0.532826,-2.43498 0.139491,-1.02685 0.221088,-0.95834 1.06122,0.89107 0.525825,1.15751 1.12887,1.93159 1.428189,1.83326 0.874889,-0.2874 0.818826,-2.82959 -0.306582,-13.90191 -1.174726,-11.55757 -1.285824,-18.50232 -0.267347,-16.71219 0.597249,1.04976 0.619968,1.19264 2.313324,14.54928 0.592524,4.67363 1.374625,10.14252 1.737998,12.15311 0.780576,4.319 0.926223,4.42737 5.950061,4.42737 3.473941,0 4.379426,-0.42061 4.747288,-2.20517 0.102451,-0.49702 0.487943,-3.88815 0.856647,-7.53586 1.111398,-10.99542 1.837871,-16.66391 2.552407,-19.91573 0.652226,-2.96826 1.023798,-3.58696 1.597114,-2.65931 z"
         id="path14953"
         inkscape:connector-curvature="0" />
    </g>
  </g>
</svg>
