<?xml version="1.0" encoding="UTF-8" standalone="no"?>
<!-- Created with Inkscape (http://www.inkscape.org/) -->

<svg
   xmlns:dc="http://purl.org/dc/elements/1.1/"
   xmlns:cc="http://creativecommons.org/ns#"
   xmlns:rdf="http://www.w3.org/1999/02/22-rdf-syntax-ns#"
   xmlns:svg="http://www.w3.org/2000/svg"
   xmlns="http://www.w3.org/2000/svg"
   xmlns:xlink="http://www.w3.org/1999/xlink"
   xmlns:sodipodi="http://sodipodi.sourceforge.net/DTD/sodipodi-0.dtd"
   xmlns:inkscape="http://www.inkscape.org/namespaces/inkscape"
   width="210mm"
   height="200mm"
   viewBox="0 0 210 200"
   version="1.1"
   id="svg1441"
   inkscape:version="0.92.3 (2405546, 2018-03-11)"
   sodipodi:docname="Heliconius_3D.svg">
  <defs
     id="defs1435">
    <linearGradient
       inkscape:collect="always"
       xlink:href="#linearGradient2219"
       id="linearGradient1983-4"
       x1="-570.71173"
       y1="65.20504"
       x2="-548.22375"
       y2="66.469963"
       gradientUnits="userSpaceOnUse"
       gradientTransform="matrix(-1.2718402,-0.11706224,-0.11706425,1.2718183,-527.00325,101.13759)" />
    <linearGradient
       id="linearGradient2219"
       inkscape:collect="always">
      <stop
         id="stop2215"
         offset="0"
         style="stop-color:#656362;stop-opacity:1" />
      <stop
         id="stop2217"
         offset="1"
         style="stop-color:#c6c5c5;stop-opacity:1" />
    </linearGradient>
  </defs>
  <sodipodi:namedview
     id="base"
     pagecolor="#ffffff"
     bordercolor="#666666"
     borderopacity="1.0"
     inkscape:pageopacity="0.0"
     inkscape:pageshadow="2"
     inkscape:zoom="0.98994949"
     inkscape:cx="730.95077"
     inkscape:cy="487.14431"
     inkscape:document-units="mm"
     inkscape:current-layer="layer1"
     showgrid="false"
     inkscape:window-width="3440"
     inkscape:window-height="1377"
     inkscape:window-x="-8"
     inkscape:window-y="-8"
     inkscape:window-maximized="1" />
  <metadata
     id="metadata1438">
    <rdf:RDF>
      <cc:Work
         rdf:about="">
        <dc:format>image/svg+xml</dc:format>
        <dc:type
           rdf:resource="http://purl.org/dc/dcmitype/StillImage" />
        <dc:title></dc:title>
      </cc:Work>
    </rdf:RDF>
  </metadata>
  <g
     inkscape:label="Layer 1"
     inkscape:groupmode="layer"
     id="layer1"
     transform="translate(0,-97)">
    <path
       style="opacity:1;fill:#d2d2d2;fill-opacity:1;stroke:#787878;stroke-width:0.03496059;stroke-linecap:butt;stroke-linejoin:miter;stroke-miterlimit:4;stroke-dasharray:none;stroke-opacity:1"
       d="m 152.96369,215.76878 c 0.0753,1.80916 -0.19107,4.7091 -0.37779,5.41914 -0.18632,0.70994 -1.39234,5.2005 -2.05206,7.81012 -1.21589,4.80982 -2.64287,9.57857 -3.51283,14.46281 -0.628,3.52578 -0.66457,7.13664 -1.22488,10.67381 -0.29153,1.8385 -0.54127,3.70041 -1.10969,5.47296 -1.10337,3.44036 -2.38349,6.91382 -4.42554,9.89447 -1.00148,1.46173 -2.27136,2.78665 -3.74123,3.77635 -1.28377,0.86432 -2.75536,1.55325 -4.28529,1.78709 -2.78367,0.42542 -6.82711,1.55296 -8.41264,-0.7743 -12.75814,-18.72647 -0.90328,-54.40134 18.9766,-65.27553 2.91413,-1.59398 7.37108,0.31856 9.55773,2.81884 0.87358,0.9989 0.55202,2.60841 0.60744,3.93424 z"
       id="path1889-7-5"
       inkscape:connector-curvature="0"
       sodipodi:nodetypes="sssssssssssss" />
    <path
       style="fill:#1a1a1a;fill-opacity:1;stroke:none;stroke-width:0.06566077px;stroke-linecap:butt;stroke-linejoin:miter;stroke-opacity:1"
       d="m 188.63957,256.06785 c 0.24295,-0.0877 0.47139,0.29481 0.55881,0.53812 0.0753,0.20933 0.0369,0.46992 -0.076,0.66215 -0.0917,0.15745 -0.2718,0.39462 -0.44044,0.32514 -0.25427,-0.10558 -0.11727,-0.542 -0.12202,-0.81738 -9.5e-4,-0.0592 -0.007,-0.12786 -0.0183,-0.19947 -0.011,-0.0709 -0.0183,-0.14466 -0.0256,-0.21371 -0.003,-0.0683 -6.9e-4,-0.13188 0.0146,-0.18376 0.0146,-0.0511 0.0515,-0.0906 0.10704,-0.11142 z"
       id="path2001-1"
       inkscape:connector-curvature="0"
       sodipodi:nodetypes="sssssssss" />
    <path
       style="fill:#1a1a1a;fill-opacity:1;stroke:none;stroke-width:0.09249993px;stroke-linecap:butt;stroke-linejoin:miter;stroke-opacity:1"
       d="m 179.63334,251.03723 c -0.0519,-0.13335 -0.97379,-1.06127 -1.53194,-1.51222 -0.20093,-0.16221 -0.39784,-0.49045 -0.64663,-0.42367 -0.24331,0.0654 -0.37059,0.4252 -0.34086,0.67556 0.0519,0.43448 0.53846,0.69309 0.85071,0.9996 0.39821,0.39137 0.75057,1.1858 1.29488,1.06188 0.28678,-0.0654 0.63432,-0.13261 0.37377,-0.80115 z"
       id="path2003-3"
       inkscape:connector-curvature="0"
       sodipodi:nodetypes="sssssss" />
    <path
       style="opacity:1;fill:#d2d2d2;fill-opacity:1;stroke:#787878;stroke-width:0.03496059;stroke-linecap:butt;stroke-linejoin:miter;stroke-miterlimit:4;stroke-dasharray:none;stroke-opacity:1"
       d="m 143.04607,175.36396 c -0.76102,-2.49681 -1.89811,-4.87353 -3.09515,-7.19308 -4.27308,-8.2796 -9.32819,-16.14838 -14.52754,-23.87984 -4.2451,-6.31258 -8.77486,-12.44421 -13.58316,-18.33904 -4.33628,-5.31623 -8.9241,-10.43716 -13.739439,-15.32355 -2.73918,-2.77964 -5.416316,-5.68736 -8.601301,-7.94232 -0.853667,-0.6044 -1.727866,-1.4815 -2.77377,-1.46725 -0.636003,0.007 -1.337547,0.3906 -1.66196,0.93778 -0.78177,1.31919 -0.308704,3.08691 -0.05955,4.59998 0.359485,2.18471 1.487515,4.1709 2.211088,6.26337 0.647329,1.87232 1.187798,3.78292 1.905782,5.62931 0.750644,1.93011 1.734113,3.76327 2.506749,5.68466 0.597644,1.48592 0.767961,3.17422 1.644863,4.51449 0.674253,1.03047 2.090599,1.46447 2.674219,2.5489 0.92969,1.72747 0.31784,3.96892 1.0424,5.79221 0.45447,1.14452 1.58648,1.94108 2.01793,3.09448 0.68043,1.81873 0.24843,3.90878 0.80216,5.77003 0.452279,1.52114 1.175519,2.96862 2.027539,4.30735 0.61095,0.95997 1.74508,1.57437 2.18238,2.62486 0.58208,1.39853 0.15965,3.0339 0.432,4.52406 0.3714,2.02857 0.96425,4.01659 1.6323,5.96771 0.5595,1.63439 1.67295,3.08863 1.98323,4.78801 0.83971,4.59899 -2.98924,10.09814 -0.44191,14.01824 6.48356,9.97748 22.78945,21.12358 34.20645,17.77064 2.71452,-0.79714 3.13465,-8.48366 3.7347,-11.24851 0.96681,-4.4552 -1.1909,-9.08166 -2.51986,-13.44249 z"
       id="path1891-0-1"
       inkscape:connector-curvature="0"
       sodipodi:nodetypes="ssssssssssssssssssssssssss" />
    <path
       style="fill:#1a1a1a;fill-opacity:1;stroke:none;stroke-width:0.09249993px;stroke-linecap:butt;stroke-linejoin:miter;stroke-opacity:1"
       d="m 157.48089,191.2934 c 0.5838,0.52252 0.69281,1.40945 0.95373,2.14817 0.20312,0.57605 0.25573,1.19973 0.47332,1.77062 0.16878,0.44332 0.4681,0.82896 0.6405,1.27089 0.17243,0.44204 0.40022,1.24882 0.389,1.36905 -0.007,0.11982 0.20093,1.47989 0.34158,2.21302 0.13883,0.7278 0.49463,1.4256 0.49747,2.1667 0.003,0.63873 0.13372,1.54349 -0.41457,1.87072 -0.28131,0.16731 -0.73256,-0.0183 -0.94489,-0.26888 -0.21993,-0.25865 -0.11472,-0.67161 -0.11873,-1.01082 -0.003,-0.31198 0.0581,-0.62087 0.0858,-0.93139 0.0731,-0.85175 0.39382,-1.72276 0.20495,-2.55661 -0.16878,-0.7457 -0.82327,-1.29339 -1.15061,-1.9844 -0.61233,-1.2927 -0.93389,-2.70746 -1.50881,-4.01729 -0.3958,-0.90195 -1.97121,-1.88726 -1.3328,-2.63749 0.42696,-0.50177 1.39315,0.15782 1.88412,0.59763 z"
       id="path1961-0"
       inkscape:connector-curvature="0"
       sodipodi:nodetypes="ssssssssssssssss" />
    <path
       style="fill:#000000;fill-opacity:1;stroke:none;stroke-width:0.09249993px;stroke-linecap:butt;stroke-linejoin:miter;stroke-opacity:1"
       d="m 157.34148,180.14729 c 0.10631,0.007 0.76525,0.0183 1.12207,0.14613 0.63191,0.21737 1.22605,0.57462 1.72761,1.01593 0.54771,0.48201 0.99626,1.08706 1.34051,1.73028 0.24915,0.46605 0.38981,0.98736 0.50441,1.50338 0.15965,0.71618 0.29994,1.45494 0.24879,2.18676 -0.0526,0.74756 -0.25098,1.49538 -0.56454,2.1762 -0.32515,0.70599 -0.70542,1.45428 -1.33298,1.91269 -0.67714,0.49472 -1.98715,1.47075 -2.40377,0.74285 -0.54007,-0.94371 1.87594,-1.25164 2.40928,-2.19922 0.71535,-1.27092 1.07261,-2.8523 0.84505,-4.29288 -0.16148,-1.02097 -0.86909,-1.89687 -1.50743,-2.70979 -0.67031,-0.85354 -3.03819,-2.05473 -2.67166,-2.14365 z"
       id="path1942-7"
       inkscape:connector-curvature="0"
       sodipodi:nodetypes="cssssssssssssc" />
    <path
       style="opacity:1;fill:#333333;fill-opacity:1;stroke:none;stroke-width:0.09249993px;stroke-linecap:butt;stroke-linejoin:miter;stroke-opacity:1"
       d="m 144.26879,190.04216 c -0.10046,0.1622 -1.47469,2.52099 -1.49423,2.73343 -0.0183,0.21225 -0.87409,1.63307 -1.56511,2.90564 -0.0533,1.60644 0.0636,1.9003 0.13298,2.87583 -0.30067,1.34625 -0.42517,1.75973 -0.62874,2.64162 -0.1001,0.43316 -0.22212,0.86242 -0.29116,1.30161 -0.20349,1.29263 -0.37863,2.60063 -0.35949,3.90904 0.011,0.74197 -2.883,0.88156 -3.06947,1.59983 -0.17426,0.67285 -9.5e-4,1.72392 -0.37501,2.31052 -0.39982,0.62887 1.60329,1.22526 1.40583,1.94375 -0.25281,0.92061 -0.32003,1.93541 -0.0924,2.86253 0.26815,1.09203 0.88096,2.12483 1.65783,2.93782 1.13369,1.1865 2.53755,2.74713 4.1731,2.61225 0.6619,-0.0548 1.01762,-0.85548 1.4927,-1.31951 0.33391,-0.32623 0.55461,-0.78128 0.95154,-1.02649 0.85838,-0.53027 1.91506,-0.65692 2.90602,-0.8466 0.75349,-0.1443 1.52821,-0.29847 2.29113,-0.21773 0.66585,0.0701 1.58378,1.18653 1.91539,0.60486 0.88625,-1.55441 -4.21065,-3.60129 -3.99814,-3.58174 0.21262,0.0183 5.27997,4.49958 7.24026,2.8089 0.94007,-0.81083 -1.18126,-2.44376 -0.82261,-3.63227 0.21298,-0.70453 1.23353,-0.88441 1.59718,-1.52413 0.58161,-1.02298 0.74221,-2.26534 0.78813,-3.44113 0.0446,-1.14094 -0.28642,-2.26724 -0.50229,-3.38853 -0.29482,-1.53257 -0.77907,-3.02448 -1.0805,-4.55584 -0.51548,-2.6197 -0.70684,-5.29738 -1.24267,-7.91303 -0.19692,-0.96069 -0.29629,-1.9688 -0.72307,-2.85175 -0.74037,-1.53159 -1.63171,-3.19275 -3.09763,-4.05594 -0.90825,-0.53483 -2.08015,-0.56793 -3.12861,-0.45932 -1.28462,0.13298 -2.83098,0.32733 -3.63679,1.33639 -0.71927,0.90096 0.10302,2.54762 -0.44428,3.42992 z"
       id="path1932-0"
       inkscape:connector-curvature="0"
       sodipodi:nodetypes="ssccsssssssssssssssssssssssssss" />
    <path
       style="opacity:1;fill:#b7b7b7;fill-opacity:1;stroke:#787878;stroke-width:0.02950546;stroke-linecap:butt;stroke-linejoin:miter;stroke-miterlimit:4;stroke-dasharray:none;stroke-opacity:1"
       d="m 144.55814,192.78107 c -0.23966,-1.51533 -2.40358,-2.48874 -3.23993,-3.50386 -2.95235,-3.58387 -6.25179,-6.5873 -9.57359,-9.46426 -3.89464,-3.37322 -7.97432,-6.32522 -12.09992,-9.10516 -3.81843,-2.57301 -7.73207,-4.87364 -11.68885,-6.99518 -6.20703,-3.32807 -12.493559,-6.40077 -18.878875,-8.98043 -8.956983,-3.61842 -18.016879,-6.86312 -27.201353,-9.09006 -5.111517,-1.2394 -10.283862,-2.23893 -15.470345,-2.3627 -4.677104,-0.11179 -9.390374,0.30322 -13.994594,1.46385 -4.724158,1.19092 -9.555431,2.55325 -13.834507,5.60531 -3.145127,2.2432 -6.13773,5.26016 -8.366024,9.09957 -1.627035,2.80338 -2.907481,6.19198 -3.401115,9.74099 -0.545365,3.92066 -0.22139,8.12897 0.597498,11.95464 0.782281,3.655 2.363759,6.93199 4.007891,9.97134 1.070637,1.97918 2.205535,4.07029 3.754864,5.2725 0.189241,0.14759 0.450269,0.0417 0.63414,0.20312 0.558553,0.4899 0.713709,1.6034 1.239602,2.1599 0.75627,0.80028 1.805169,0.86725 2.6177,1.55033 0.664791,0.55872 1.126496,1.5333 1.807873,2.05151 0.516431,0.39298 1.144835,0.41143 1.676573,0.76207 0.597388,0.39418 1.095991,1.03653 1.67208,1.48862 0.388237,0.30395 0.803179,0.53483 1.197881,0.82132 1.026103,0.74482 1.991963,1.65419 3.041265,2.33219 0.486291,0.31418 1.040643,0.41746 1.501397,0.8001 0.663732,0.55109 1.107608,1.53144 1.761147,2.10605 0.57598,0.50642 1.265541,0.70585 1.866911,1.15026 0.935574,0.69123 1.815544,1.52406 2.694894,2.34801 0.966774,0.90582 1.829647,2.03106 2.834524,2.85084 0.670016,0.54649 1.473852,0.74643 2.111974,1.36365 0.41085,0.39747 0.664499,1.0609 1.06892,1.4713 1.052224,1.06788 2.23878,1.89403 3.46132,2.50762 0.570646,0.28642 1.2038,0.26084 1.777953,0.53279 0.476719,0.22614 0.912924,0.59424 1.365202,0.90359 0.774975,0.53002 1.545639,1.07252 2.310202,1.63165 0.654124,0.47847 1.529565,1.33471 1.947685,1.47445 0.418157,0.13882 2.498201,1.38501 3.779231,1.94524 0.725144,0.31673 1.453284,0.65923 2.206156,0.79922 0.745639,0.13845 1.513198,-0.1286 2.256389,0.0329 0.38904,0.0851 0.734277,0.48668 1.127701,0.48862 1.027236,0.007 1.982392,-0.76616 2.950809,-1.24704 3.272189,-1.62485 6.352763,-3.96277 9.640662,-5.5245 8.764892,-4.16312 17.765203,-7.3403 26.790499,-10.20455 2.81421,-0.89304 5.64921,-1.7171 8.51614,-2.17178 4.16776,-0.66113 8.38608,-0.38381 12.56988,-0.79973 3.52047,-0.34962 7.01405,-1.18153 10.53901,-1.42568 2.12735,-0.14722 5.79059,-0.1001 6.38973,-0.0183 0.59918,0.0774 2.17975,-0.28385 2.84958,-1.3285 0.61843,-0.96401 0.5876,-2.50414 0.5945,-3.80148 0.011,-2.64707 -0.28532,-5.01521 -0.17097,-7.65759 0.0486,-1.12239 0.934,-2.10211 0.76058,-3.19988 z"
       id="path1885-3-6"
       inkscape:connector-curvature="0"
       sodipodi:nodetypes="ssssssssssssssssssssssssssssssssssssssssssssssssss" />
    <path
       style="fill:#000000;fill-opacity:1;stroke:none;stroke-width:0.09249993px;stroke-linecap:butt;stroke-linejoin:miter;stroke-opacity:1"
       d="m 148.83509,177.28414 c 0.12568,-0.48172 -0.59801,-0.80518 -0.97119,-1.13474 -0.29519,-0.26047 -0.66227,-0.42629 -0.98537,-0.65126 -0.45732,-0.3182 -0.89415,-0.665 -1.34832,-0.98765 -1.08116,-0.76784 -2.21515,-1.46133 -3.27687,-2.25591 -1.04185,-0.77961 -1.9962,-1.67125 -3.03074,-2.4605 -0.70425,-0.53724 -1.44952,-1.01878 -2.16035,-1.54714 -1.76348,-1.31082 -3.50592,-2.65065 -5.21987,-4.02547 -1.13377,-0.9094 -2.20838,-1.89147 -3.34862,-2.79279 -1.29637,-1.02466 -2.64195,-1.98565 -3.96854,-2.971 -3.81047,-2.83042 -7.56055,-5.74662 -11.46351,-8.44815 -3.6251,-2.50919 -7.42644,-4.75462 -11.0934,-7.20207 -3.430419,-2.2896 -6.694389,-4.83152 -10.203235,-6.99902 -0.766207,-0.47339 -1.584802,-0.85683 -2.364052,-1.30837 -1.471221,-0.85245 -2.924358,-1.73628 -4.362298,-2.64367 -1.483971,-0.93647 -2.81107,-2.14544 -4.400219,-2.88957 -1.264664,-0.59222 -2.630597,-1.44314 -4.008732,-1.21737 -0.759996,0.12494 -1.918276,0.57258 -1.880939,1.3418 0.07964,1.63622 2.796749,1.71344 4.258727,2.45242 2.213974,1.11903 4.589862,1.89366 6.814906,2.99062 2.440077,1.2029 4.82455,2.52296 7.152544,3.93059 2.325769,1.40639 4.526699,3.0095 6.796789,4.50393 1.901499,1.25175 3.803559,2.50276 5.715949,3.73785 1.84397,1.19088 3.72677,2.32189 5.55225,3.54094 1.92544,1.28587 3.80941,2.633 5.69375,3.97823 2.74589,1.96026 5.4877,3.92756 8.17744,5.96413 3.2183,2.43668 6.31356,5.03267 9.52244,7.48173 1.21622,0.92818 2.47135,1.80455 3.68739,2.73299 1.16182,0.88718 2.31133,1.79074 3.44707,2.71099 1.6517,1.33829 3.24797,2.7438 4.89605,4.08651 0.27071,0.21993 0.47452,0.59548 0.81877,0.65108 0.54402,0.0881 1.41285,-0.0369 1.55218,-0.56913 z"
       id="path1969-2"
       inkscape:connector-curvature="0"
       sodipodi:nodetypes="ssssssssssssssssssssssssssssssss" />
    <path
       style="fill:#000000;fill-opacity:1;stroke:none;stroke-width:0.09249993px;stroke-linecap:butt;stroke-linejoin:miter;stroke-opacity:1"
       d="m 149.80581,176.44933 c -0.0596,-0.74277 -0.35072,-1.45293 -0.62044,-2.14777 -0.58402,-1.50696 -1.51696,-2.85917 -2.14496,-4.34842 -0.65387,-1.5508 -1.06662,-3.19424 -1.68271,-4.76046 -0.65087,-1.6544 -1.44795,-3.24809 -2.12527,-4.89194 -0.99381,-2.41198 -1.89413,-4.86144 -2.8437,-7.29121 -1.20003,-3.07066 -2.27367,-6.1941 -3.60632,-9.20963 -1.94195,-4.3939 -4.11712,-8.68518 -6.38586,-12.91961 -2.31678,-4.32419 -4.86255,-8.52242 -7.37214,-12.73764 -1.72042,-2.88982 -3.35706,-5.83747 -5.26785,-8.60513 -0.93795,-1.35857 -1.77503,-2.84635 -3.03322,-3.91507 -0.70056,-0.59511 -1.53585,-1.54959 -2.42423,-1.31396 -0.69562,0.18449 -1.16642,1.11526 -1.13847,1.8344 0.0727,1.87948 2.08819,3.14394 3.33846,4.54916 1.48693,1.67129 3.4881,2.84748 4.91186,4.57283 3.63617,4.40607 6.29544,9.54654 9.08562,14.53157 2.05556,3.67278 3.85131,7.48764 5.62546,11.30432 1.44948,3.11819 2.74652,6.30506 4.09776,9.46697 2.15549,5.04374 4.35204,10.07103 6.39617,15.1608 0.64955,1.6174 1.19678,3.27509 1.86435,4.88511 0.6877,1.65905 1.51952,3.25602 2.20411,4.91635 0.20459,0.4956 0.10449,1.23435 0.56754,1.50469 0.14358,0.0837 0.37662,0.0438 0.49174,-0.076 0.11873,-0.12348 0.076,-0.33902 0.0625,-0.50934 z"
       id="path1973-0"
       inkscape:connector-curvature="0"
       sodipodi:nodetypes="ssssssssssssssssssssssss" />
    <path
       style="fill:#4d4d4d;fill-opacity:1;stroke:none;stroke-width:0.09249993px;stroke-linecap:butt;stroke-linejoin:miter;stroke-opacity:1"
       d="m 145.98866,169.3424 c -0.60484,0.45797 -0.0669,1.52358 0.0329,2.27553 0.1264,0.95225 0.28276,1.93307 0.71258,2.79253 0.37497,0.75082 1.18776,1.21938 1.57665,1.96303 0.49159,0.94009 0.6851,2.01367 0.90076,3.05228 0.45199,2.17675 -0.78952,5.08049 0.8148,6.61967 0.67502,0.64754 1.98721,0.6954 2.79696,0.2276 1.09347,-0.63219 1.36024,-2.18982 1.61831,-3.42634 0.27107,-1.29927 0.3098,-2.72389 -0.11837,-3.98005 -0.4533,-1.32894 -1.5258,-2.37355 -2.47376,-3.40917 -0.98756,-1.07887 -2.28766,-1.8344 -3.31026,-2.88018 -0.39784,-0.40686 -0.78056,-0.83582 -1.09128,-1.31239 -0.35473,-0.54473 -0.37135,-1.32802 -0.86937,-1.74646 -0.15746,-0.13225 -0.42638,-0.2992 -0.58986,-0.17573 z"
       id="path1944-4"
       inkscape:connector-curvature="0"
       sodipodi:nodetypes="ssssssssssssss" />
    <path
       style="fill:#8c8c8c;fill-opacity:1;stroke:none;stroke-width:0.09249993px;stroke-linecap:butt;stroke-linejoin:miter;stroke-opacity:1"
       d="m 149.88542,179.74719 c -0.48881,-0.65605 -0.98482,-1.32741 -1.61783,-1.84569 -0.71035,-0.58167 -1.53651,-1.02967 -2.38864,-1.37125 -0.68923,-0.27655 -1.4234,-0.46633 -2.16294,-0.53235 -0.64879,-0.0581 -1.31632,-0.0256 -1.95053,0.12348 -0.66578,0.15636 -1.3241,0.41337 -1.89128,0.79553 -0.62789,0.42305 -1.15378,0.99993 -1.60248,1.60984 -0.41955,0.57023 -0.83201,1.1884 -0.991,1.87828 -0.20056,0.8691 -0.14613,1.81335 0.0873,2.67431 0.1991,0.73503 0.60981,1.41611 1.08769,2.00896 0.40278,0.49976 0.91304,0.91963 1.46008,1.25547 0.84311,0.5177 1.79125,0.86461 2.74396,1.1313 1.07725,0.30102 2.19794,0.5611 3.31574,0.51729 1.00743,-0.0409 2.02805,-0.27545 2.94284,-0.69875 0.54939,-0.25427 1.08025,-0.60783 1.46264,-1.07741 0.45801,-0.56227 0.80044,-1.25957 0.90909,-1.97666 0.14394,-0.94802 -0.049,-1.9501 -0.37377,-2.85223 -0.21884,-0.6075 -0.64485,-1.12231 -1.03071,-1.64009 z"
       id="path1934-7"
       inkscape:connector-curvature="0"
       sodipodi:nodetypes="ssssssssssssssssss" />
    <path
       style="fill:#1a1a1a;fill-opacity:1;stroke:none;stroke-width:0.09249993px;stroke-linecap:butt;stroke-linejoin:miter;stroke-opacity:1"
       d="m 155.59673,190.6958 c 0.70421,0.52011 1.17458,1.31853 1.59569,2.08603 1.11879,2.03917 2.03467,4.25559 2.39661,6.55311 0.23344,1.48245 1.27514,4.10058 -0.17134,4.49886 -1.80211,0.49607 -2.10818,-3.09083 -3.0515,-4.70457 -1.02764,-1.75812 -2.04091,-3.53652 -2.83478,-5.41184 -0.59001,-1.39371 -2.51051,-3.26146 -1.42113,-4.3121 0.89202,-0.86034 2.49002,0.55423 3.48697,1.29051 z"
       id="path1963-8"
       inkscape:connector-curvature="0"
       sodipodi:nodetypes="ssssssss" />
    <path
       style="fill:#000000;fill-opacity:1;stroke:none;stroke-width:0.09249993px;stroke-linecap:butt;stroke-linejoin:miter;stroke-opacity:1"
       d="m 153.08184,180.56942 c -0.0183,-0.0822 1.28443,-0.18668 1.92996,-0.25061 0.61657,-0.0617 1.24231,-0.22614 1.85449,-0.12933 0.71115,0.11252 1.39925,0.41505 2.00406,0.80576 0.56535,0.36547 1.05792,0.85599 1.45675,1.39813 0.41633,0.56596 0.72763,1.21682 0.94047,1.88628 0.16842,0.53089 0.24989,1.09469 0.25537,1.65174 0.007,0.66909 -0.11179,1.33884 -0.26889,1.98919 -0.12932,0.53483 -0.25427,1.0921 -0.55026,1.55624 -0.32551,0.5108 -0.79174,0.93761 -1.29564,1.27338 -0.4898,0.32659 -1.0443,0.60399 -1.62711,0.68582 -0.50028,0.0701 -1.01711,-0.049 -1.50457,-0.18084 -0.65763,-0.17864 -1.35706,-0.37179 -1.87466,-0.81533 -0.65478,-0.56062 -1.01174,-1.40697 -1.38442,-2.1842 -0.22577,-0.47075 -0.56936,-0.96379 -0.50631,-1.48208 0.0256,-0.19873 0.21847,-0.3361 0.32515,-0.50568 0.0595,-0.0946 0.065,-0.28714 0.17572,-0.28386 0.22029,0.007 0.21883,0.38462 0.31053,0.58554 0.31893,0.70044 0.47694,1.4708 0.8301,2.15465 0.19253,0.3734 0.38218,0.77065 0.69614,1.04961 0.49152,0.43696 1.117,0.75502 1.76064,0.89048 0.62592,0.13224 1.31884,0.1264 1.91623,-0.10229 0.61992,-0.23746 1.17077,-0.70537 1.55053,-1.24985 0.43894,-0.62964 0.63929,-1.42042 0.73643,-2.18182 0.0994,-0.77942 0.011,-1.58708 -0.16915,-2.35097 -0.13042,-0.54127 -0.33573,-1.07921 -0.6512,-1.5382 -0.41801,-0.60892 -0.96871,-1.14587 -1.59375,-1.53933 -0.4613,-0.29043 -0.99468,-0.48376 -1.533,-0.56957 -0.7509,-0.11983 -1.52485,-0.003 -2.27944,0.0902 -0.42846,0.0533 -0.90032,0.49655 -1.26737,0.26888 -0.26924,-0.16695 -0.23673,-0.92171 -0.23673,-0.92171 z"
       id="path1938-8"
       inkscape:connector-curvature="0"
       sodipodi:nodetypes="sssssssssssssssssssssssssssssss" />
    <path
       style="fill:#000000;fill-opacity:1;stroke:none;stroke-width:0.09249993px;stroke-linecap:butt;stroke-linejoin:miter;stroke-opacity:1"
       d="m 153.43869,182.74478 c 0.24258,-0.57466 0.8959,-0.87985 1.41916,-1.21916 0.26998,-0.17536 0.55468,-0.36693 0.87351,-0.41245 0.63505,-0.0902 1.29696,0.0855 1.90037,0.30358 0.57741,0.20897 1.13249,0.52322 1.58477,0.93856 0.40113,0.36813 0.69544,0.84795 0.9488,1.32996 0.24842,0.47309 0.44647,0.98228 0.54693,1.50722 0.13225,0.68962 0.1739,1.41208 0.0636,2.1055 -0.11581,0.72561 -0.32916,1.46999 -0.74794,2.07369 -0.28934,0.41717 -0.70483,0.7643 -1.16201,0.98568 -0.5812,0.28167 -1.25644,0.44475 -1.89913,0.3822 -0.64477,-0.0632 -1.29513,-0.33208 -1.79556,-0.74376 -0.62106,-0.51076 -0.98844,-1.28345 -1.33634,-2.00844 -0.3003,-0.62631 -0.56002,-1.29522 -0.63129,-1.98627 -0.0705,-0.68626 -0.41016,-1.75888 0.21116,-2.05878 0.20933,-0.10083 0.47507,0.1717 0.58679,0.37533 0.39905,0.72641 -0.1264,1.66815 0.007,2.48596 0.1001,0.6129 0.27619,1.2307 0.58716,1.76806 0.2097,0.3613 0.48801,0.70186 0.83533,0.93388 0.51197,0.34231 1.13004,0.55752 1.74353,0.61034 0.4468,0.0369 0.93554,-0.003 1.32721,-0.22065 0.49813,-0.27801 0.84603,-0.79188 1.12569,-1.28901 0.31053,-0.55201 0.52604,-1.17971 0.57376,-1.8112 0.0457,-0.60714 -0.076,-1.23206 -0.28423,-1.80441 -0.25939,-0.7126 -0.61138,-1.43792 -1.17026,-1.95025 -0.41473,-0.38015 -0.97025,-0.6083 -1.51744,-0.73949 -0.46463,-0.11179 -0.97247,-0.15161 -1.43315,-0.0256 -0.59246,0.16294 -1.04795,0.64199 -1.5676,0.96983 -0.24404,0.15416 -0.47113,0.59895 -0.72872,0.46852 -0.28825,-0.14649 -0.18632,-0.67128 -0.061,-0.96964 z"
       id="path1940-0"
       inkscape:connector-curvature="0"
       sodipodi:nodetypes="ssssssssssssssssssssssssssssss" />
    <path
       style="fill:#333333;fill-opacity:1;stroke:none;stroke-width:0.09249993px;stroke-linecap:butt;stroke-linejoin:miter;stroke-opacity:1"
       d="m 150.17651,186.37924 c 0.0183,0.3087 0.40523,0.51803 0.70133,0.60991 0.47098,0.14649 1.0794,0.13334 1.46979,-0.16732 0.75364,-0.58145 0.90091,-1.71954 1.03286,-2.66219 0.16038,-1.14474 -0.007,-2.33964 -0.31783,-3.45315 -0.18267,-0.6563 -0.51084,-1.27414 -0.89123,-1.83941 -0.49677,-0.73802 -1.12532,-1.38768 -1.78708,-1.98235 -0.74787,-0.6722 -1.63635,-1.16951 -2.44278,-1.77018 -0.59085,-0.44 -1.18334,-0.87842 -1.75501,-1.34315 -0.537,-0.43671 -1.04156,-0.91203 -1.57191,-1.3567 -0.59424,-0.49816 -1.11842,-1.10653 -1.80403,-1.46893 -0.0902,-0.0486 -0.23126,-0.16769 -0.29483,-0.0881 -0.198,0.24879 0.32149,0.54905 0.46891,0.83093 0.27144,0.51982 0.62442,1.01542 0.76306,1.58522 0.0793,0.32513 -0.0965,0.69258 0.0292,1.00255 0.29555,0.7327 1.02541,1.20619 1.59609,1.75272 0.25573,0.24513 0.52319,0.48172 0.816,0.68115 0.60689,0.41332 1.26612,0.6868 1.83293,1.15343 0.65891,0.54236 1.20764,1.20214 1.73671,1.87181 0.35291,0.44694 0.7768,0.8545 1.02552,1.36694 0.22943,0.47225 0.32112,1.00372 0.40526,1.52197 0.095,0.58266 0.14613,1.18091 0.0369,1.76053 -0.10558,0.54682 -0.33684,1.04925 -0.63951,1.51676 -0.11435,0.17535 -0.32515,0.756 -0.38422,0.55543 z"
       id="path1936-3"
       inkscape:connector-curvature="0"
       sodipodi:nodetypes="csssssssssssssssssssssssc" />
    <path
       style="fill:#1a1a1a;fill-opacity:1;stroke:none;stroke-width:0.09249993px;stroke-linecap:butt;stroke-linejoin:miter;stroke-opacity:1"
       d="m 157.99809,205.0969 c 0.22467,0.10595 0.51559,-0.0595 0.71593,-0.20677 0.34122,-0.24988 0.66585,-0.63501 0.70319,-1.05633 0.0716,-0.8115 -0.59472,-1.52077 -0.97539,-2.24105 -0.50621,-0.95769 -1.33408,-1.74226 -1.73152,-2.74994 -0.0866,-0.21919 -0.0369,-0.47853 -0.13298,-0.69404 -0.25135,-0.56994 -0.73249,-1.00866 -1.11974,-1.4968 -0.80888,-1.01955 -1.58963,-2.07092 -2.51252,-2.98846 -0.66172,-0.65795 -1.41993,-1.21193 -2.1533,-1.78892 -0.52326,-0.41165 -1.05573,-0.81248 -1.60215,-1.19286 -0.44304,-0.30833 -0.87573,-0.63986 -1.35801,-0.88244 -0.3445,-0.17353 -0.70454,-0.335 -1.084,-0.40277 -0.31784,-0.057 -0.73666,-0.22248 -0.96974,10e-4 -0.14576,0.13883 -0.0701,0.40727 -0.0256,0.60366 0.10156,0.44606 0.34158,0.86933 0.64612,1.21087 0.29957,0.3361 0.7817,0.46155 1.1109,0.76882 0.5408,0.50477 0.89663,1.17843 1.38577,1.73347 0.36778,0.41734 0.74502,0.82976 1.1623,1.19771 0.41669,0.3673 0.90755,0.64293 1.33199,1.00128 0.54723,0.46206 1.44897,1.3757 1.56084,1.47686 0.11216,0.10119 0.92575,0.98729 1.345,1.51755 0.16403,0.20678 0.29336,0.43953 0.45549,0.64794 0.28423,0.36496 0.47486,0.87824 0.90295,1.05265 0.10412,0.0424 0.24149,-0.0906 0.33574,-0.0292 0.42082,0.26925 0.30834,0.95171 0.50653,1.41012 0.30651,0.70949 0.72339,1.36678 1.05208,2.0663 0.16111,0.34231 0.10741,0.87989 0.44957,1.04125 z"
       id="path1965-2"
       inkscape:connector-curvature="0"
       sodipodi:nodetypes="sssssssssssssssssssssssssss" />
    <path
       style="fill:#1a1a1a;fill-opacity:1;stroke:none;stroke-width:0.09249993px;stroke-linecap:butt;stroke-linejoin:miter;stroke-opacity:1"
       d="m 148.68049,217.11657 c 0.97148,0.0745 2.00021,0.17609 2.84833,0.65609 0.83193,0.47024 1.30072,1.40196 1.99185,2.06189 0.43219,0.41259 1.02797,0.67815 1.34537,1.18423 0.28605,0.45574 0.37417,1.02009 0.43262,1.55482 0.0563,0.51025 0.28204,1.17532 -0.0804,1.53776 -0.10083,0.10083 -0.28459,0.0292 -0.42616,0.0183 -0.46342,-0.0292 -0.92085,-0.3613 -1.37108,-0.24732 -0.35145,0.0888 -0.64931,0.37738 -0.85031,0.67921 -0.0902,0.1359 -0.0665,0.32368 -0.13444,0.47247 -0.0804,0.17572 -0.13298,0.42787 -0.31747,0.48585 -0.4007,0.12567 -0.8487,-0.19911 -1.16869,-0.47116 -0.2192,-0.18632 -0.20824,-0.57871 -0.44717,-0.73803 -0.88888,-0.59164 -2.14635,-0.16403 -3.16818,-0.47342 -1.01383,-0.30761 -2.05381,-0.6859 -2.87489,-1.35539 -0.54635,-0.44551 -0.95852,-1.05915 -1.26832,-1.69229 -0.076,-0.15417 -0.17134,-0.32952 -0.13627,-0.49732 0.17171,-0.80758 0.93993,-1.38235 1.57016,-1.91583 0.34706,-0.29372 0.76281,-0.50615 1.18356,-0.67881 0.62402,-0.25682 1.29118,-0.40569 1.95645,-0.51686 0.30103,-0.0504 0.61028,-0.0902 0.9153,-0.0672 z"
       id="path1985-8"
       inkscape:connector-curvature="0"
       sodipodi:nodetypes="sssssssssssssssssssss" />
    <path
       style="opacity:1;fill:#b7b7b7;fill-opacity:1;stroke:#787878;stroke-width:0.02950546;stroke-linecap:butt;stroke-linejoin:miter;stroke-miterlimit:4;stroke-dasharray:none;stroke-opacity:1"
       d="m 145.75386,213.80743 c 0.98986,1.51416 1.96372,3.14961 2.51757,5.05207 0.21335,0.73156 0.30943,1.85796 0.27838,2.33869 -0.0329,0.48073 -2.15209,11.66684 -3.1349,17.53204 -0.68774,4.10445 -1.24833,8.24931 -1.93223,12.35493 -0.47541,2.85307 -0.74126,5.80653 -1.509,8.53126 -1.03809,3.68426 -2.78455,6.89319 -4.13313,10.37363 -0.67071,1.73083 -1.12868,3.6467 -1.96847,5.22563 -0.31784,0.59836 -0.82524,0.96519 -1.14038,1.56662 -0.3882,0.74036 -0.40157,1.84898 -0.89345,2.45556 -0.47,0.57944 -1.21819,0.46524 -1.76739,0.88569 -0.99432,0.76137 -1.63646,2.33643 -2.69336,2.90856 -0.44125,0.23819 -0.98391,-0.11544 -1.41449,0.16038 -0.96801,0.61915 -1.33247,2.45691 -2.28083,3.1332 -0.7098,0.5063 -1.56025,0.51145 -2.35579,0.55266 -0.78974,0.0409 -1.57205,-0.37581 -2.36069,-0.30504 -0.59472,0.0533 -1.14973,0.50411 -1.74497,0.54579 -0.72883,0.0508 -1.45072,-0.50725 -2.17349,-0.36656 -1.15817,0.2254 -2.07621,1.7042 -3.23745,1.89555 -0.86744,0.14357 -1.76823,-0.16147 -2.5861,-0.59124 -0.67882,-0.35729 -1.16862,-1.25448 -1.8478,-1.61002 -0.57083,-0.29847 -1.20512,-0.25353 -1.80473,-0.40478 -0.76204,-0.19216 -1.50469,-0.58119 -2.27787,-0.63712 -0.6588,-0.0479 -1.31267,0.18778 -1.97037,0.25974 -0.79712,0.0862 -1.60388,0.37537 -2.39409,0.20495 -0.6657,-0.14394 -1.296589,-0.55957 -1.886819,-1.01505 -0.8526,-0.65806 -1.50114,-1.75882 -2.34246,-2.44526 -0.83094,-0.6779 -1.79658,-0.98013 -2.64024,-1.62668 -0.262671,-0.20093 -0.46795,-0.54835 -0.747903,-0.69645 -0.87292,-0.46203 -1.846269,-0.38144 -2.773185,-0.52976 -0.785095,-0.12567 -1.588529,-0.069 -2.360618,-0.30504 -0.244771,-0.0749 -0.489615,-0.18047 -0.709653,-0.34852 -1.584328,-1.21204 -2.683241,-3.46623 -4.272281,-4.66574 -0.385058,-0.2908 -0.853558,-0.31016 -1.243292,-0.58908 -0.396237,-0.28349 -0.683898,-0.82483 -1.088794,-1.08344 -1.398009,-0.89304 -3.070855,-0.65876 -4.478436,-1.52139 -0.548361,-0.3361 -1.032241,-0.86195 -1.495845,-1.39313 -1.124669,-1.28868 -1.929418,-3.08257 -3.08598,-4.31437 -0.751046,-0.79973 -1.632405,-1.32495 -2.461741,-1.95426 -0.571121,-0.43335 -1.171285,-0.79122 -1.730606,-1.25387 -0.336834,-0.27874 -0.721162,-0.49746 -0.976053,-0.91382 -0.703077,-1.14861 -0.969367,-2.71008 -1.370353,-4.11603 -0.55322,-1.93958 -1.024751,-3.92789 -1.4234,-5.94082 -0.302128,-1.526 -0.683715,-3.05692 -0.731792,-4.63936 -0.05992,-1.97114 0.125308,-3.98934 0.557274,-5.86674 0.621427,-2.70193 1.61655,-5.27509 2.866235,-7.5074 1.353073,-2.41721 3.168655,-4.25902 4.892575,-6.1548 2.51559,-2.76671 7.477359,-7.39642 7.921162,-7.58149 0.443767,-0.18486 5.0626,-3.63322 7.677962,-5.18888 4.968417,-2.95529 10.024474,-5.66625 15.190533,-7.85406 5.58693,-2.36599 11.29667,-4.17467 17.03334,-5.67674 3.12266,-0.81763 6.27462,-1.47083 9.44196,-1.80977 2.64411,-0.28276 5.30609,-0.3806 7.95419,-0.18376 0.94474,0.0701 1.9296,0.0256 2.81699,0.48522 0.79371,0.41172 1.44718,1.24123 2.11537,1.97016 0.67878,0.7404 2.12995,1.34117 2.39196,2.49063 0.28167,1.23563 -0.12531,2.68392 -0.59454,3.80149 -0.37059,0.88251 -0.74765,1.13294 -0.68503,2.15362 0.0946,1.54152 0.48604,1.33621 1.38117,2.23885 0.59399,0.59891 1.18897,1.2185 1.6834,1.97487 z"
       id="path1887-6-8"
       inkscape:connector-curvature="0"
       sodipodi:nodetypes="ssssssssssssssssssssssssssssssssssssssssssssssssssssssssssss" />
    <path
       style="fill:#1a1a1a;fill-opacity:1;stroke:none;stroke-width:0.09249993px;stroke-linecap:butt;stroke-linejoin:miter;stroke-opacity:1"
       d="m 155.21759,224.11136 c 0.15563,0.29993 -0.40069,0.56596 -0.47624,0.89551 -0.0858,0.37578 0.13663,0.78107 0.0453,1.15552 -0.14394,0.59026 -0.83215,1.46868 -0.90324,1.58332 -0.0709,0.11471 -1.07426,1.44756 -1.7069,2.08508 -0.67129,0.67633 -1.47374,1.20875 -2.19837,1.82772 -1.02245,0.87312 -2.00439,1.79334 -3.03239,2.65992 -0.83748,0.70581 -1.88324,1.20163 -2.55377,2.06766 -0.28057,0.36204 -0.15307,1.05922 -0.56951,1.25043 -0.24185,0.11143 -0.54065,-0.0822 -0.76741,-0.22211 -0.21883,-0.13444 -0.27656,-0.49706 -0.52378,-0.5633 -0.17864,-0.0482 -0.38104,0.0537 -0.53027,0.16367 -0.14869,0.10923 -0.13481,0.49954 -0.31455,0.45589 -0.36058,-0.0873 -0.21335,-0.74 -0.14102,-1.10372 0.0994,-0.49885 0.45173,-0.91813 0.75817,-1.32404 1.40448,-1.8603 3.17483,-3.41976 4.88436,-5.00428 1.36129,-1.26176 3.01145,-2.21039 4.26815,-3.57638 0.25938,-0.28166 0.46934,-0.60797 0.66209,-0.93892 0.17755,-0.30504 0.23271,-0.68122 0.4518,-0.95831 0.22504,-0.28459 0.50116,-0.58091 0.85034,-0.67925 0.58113,-0.16403 1.51919,-0.30943 1.79713,0.22613 z"
       id="path1987-6"
       inkscape:connector-curvature="0"
       sodipodi:nodetypes="sssssssssssssssssssss" />
    <path
       style="fill:#1a1a1a;fill-opacity:1;stroke:none;stroke-width:0.09249993px;stroke-linecap:butt;stroke-linejoin:miter;stroke-opacity:1"
       d="m 143.82236,237.63652 c 0.2645,0.15563 0.40154,0.47325 0.65215,0.6509 0.55169,0.39141 1.23723,0.55073 1.82782,0.88029 0.57353,0.32002 1.09815,0.72107 1.65962,1.06174 0.96952,0.58835 1.96716,1.1291 2.94964,1.69558 0.81096,0.46746 1.6251,0.92938 2.43106,1.40536 1.52025,0.89782 3.03677,1.80233 4.53564,2.7354 0.86109,0.53608 1.73156,1.05973 2.56042,1.64458 0.62808,0.44317 1.39465,0.77295 1.8245,1.41022 0.14211,0.21006 0.26121,0.48406 0.20531,0.73094 -0.049,0.2181 -0.28057,0.34889 -0.44037,0.50484 -0.11215,0.10923 -0.26486,0.17609 -0.36094,0.29957 -0.0716,0.0932 -0.0413,0.27691 -0.15089,0.31929 -0.2254,0.0877 -0.45856,-0.16038 -0.67169,-0.27399 -1.4839,-0.79538 -2.75908,-1.93194 -4.17762,-2.83879 -1.03466,-0.66145 -2.09828,-1.27684 -3.15847,-1.8965 -2.41903,-1.41392 -7.14078,-4.09733 -7.30686,-4.15542 -0.16586,-0.0581 -2.53261,-1.81785 -3.49274,-3.02104 -0.35583,-0.44555 -0.76229,-0.94093 -0.80376,-1.50941 -0.007,-0.0943 0.0292,-0.20093 0.0953,-0.26669 0.13335,-0.12786 0.35145,-0.21116 0.53017,-0.16366 0.24769,0.0665 0.30542,0.42892 0.52385,0.56333 0.22723,0.13882 0.53802,0.0869 0.76741,0.22211 z"
       id="path1989-5"
       inkscape:connector-curvature="0"
       sodipodi:nodetypes="sssssssssssssssssssssss" />
    <path
       style="fill:#1a1a1a;fill-opacity:1;stroke:none;stroke-width:0.09249993px;stroke-linecap:butt;stroke-linejoin:miter;stroke-opacity:1"
       d="m 177.45477,249.10134 c -0.16623,-0.81577 -1.27102,-1.07577 -1.90852,-1.61112 -1.02574,-0.86143 -2.04892,-1.72593 -3.08376,-2.57637 -1.14903,-0.94414 -2.06042,-2.32996 -3.46983,-2.80463 -0.33245,-0.11252 -0.81717,-0.22869 -1.05281,0.0329 -0.20824,0.22979 -0.0734,0.65002 0.065,0.92716 0.27765,0.55635 0.9187,0.8398 1.40868,1.22237 1.62711,1.27009 3.3956,2.34823 5.07221,3.55205 0.88377,0.63445 1.57055,2.18745 2.62869,1.93449 0.2455,-0.0581 0.39138,-0.42856 0.34086,-0.67566 z"
       id="path2005-3"
       inkscape:connector-curvature="0"
       sodipodi:nodetypes="ssssssssss" />
    <path
       style="fill:#1a1a1a;fill-opacity:1;stroke:none;stroke-width:0.09249993px;stroke-linecap:butt;stroke-linejoin:miter;stroke-opacity:1"
       d="m 167.93985,242.1409 c 0,0 0.85151,0.25572 1.05281,-0.0329 0.12641,-0.1812 -0.0793,-0.45034 -0.20897,-0.62982 -0.55508,-0.77157 -1.60142,-1.04622 -2.2817,-1.70983 -0.88863,-0.86695 -1.58901,-1.91101 -2.30641,-2.92416 -0.63819,-0.90125 -1.11721,-1.99251 -1.77251,-2.79918 -0.2802,-0.34487 -0.90108,-0.41355 -1.31084,-0.24185 -0.21189,0.0888 -0.46287,0.354 -0.38582,0.57045 0.49338,1.38381 1.3226,2.47029 2.15409,3.5918 0.80534,1.08643 1.74011,2.07869 2.72274,3.00785 0.50065,0.47339 1.16701,0.76956 1.60745,1.29935 0.19691,0.23673 0.17097,0.66248 0.4403,0.81307 0.10265,0.0581 0.27472,0.069 0.35291,-0.0183 0.20495,-0.23235 -0.065,-0.92727 -0.065,-0.92727"
       id="path2007-9"
       inkscape:connector-curvature="0"
       sodipodi:nodetypes="cssssssssssssc" />
    <path
       style="fill:#1a1a1a;fill-opacity:1;stroke:none;stroke-width:0.09249993px;stroke-linecap:butt;stroke-linejoin:miter;stroke-opacity:1"
       d="m 155.56919,217.6597 c 0.44022,0.80912 0.85714,1.63238 1.22645,2.4762 0.26523,0.60575 0.56984,1.20637 0.70812,1.85289 0.0975,0.45537 0.29774,0.98378 0.0789,1.39466 -0.11946,0.22467 -0.48143,0.20495 -0.65723,0.3898 -0.29263,0.30651 -0.43325,0.73207 -0.59618,1.12348 -0.0928,0.22139 -0.0183,0.54598 -0.21372,0.68743 -0.24221,0.17682 -0.81896,0.0533 -0.89901,-0.007 -0.08,-0.061 -0.80062,-0.45143 -1.01605,-0.83272 -0.58307,-1.0316 -0.0409,-2.43035 -0.51183,-3.51785 -0.92246,-2.13283 -4.16169,-3.13886 -4.3399,-5.45574 -0.053,-0.6855 0.35729,-1.61587 1.02183,-1.79133 1.74397,-0.46053 3.37619,1.48862 4.65207,2.76345 0.25172,0.25135 0.37618,0.60509 0.54621,0.91788 z"
       id="path2011-7"
       inkscape:connector-curvature="0"
       sodipodi:nodetypes="ssssssssssssss" />
    <path
       style="fill:#1a1a1a;fill-opacity:1;stroke:none;stroke-width:0.09249993px;stroke-linecap:butt;stroke-linejoin:miter;stroke-opacity:1"
       d="m 156.11594,225.58387 c 0.15234,0.94578 1.61425,2.2482 1.67011,2.33898 0.0555,0.0913 1.0375,1.25997 1.3808,1.99106 0.45915,0.97793 0.475,2.11665 0.86956,3.12231 0.18339,0.46747 0.18887,1.30899 0.69047,1.33873 0.22943,0.011 0.17427,-0.48179 0.38583,-0.57053 0.40975,-0.17133 0.97693,0.53498 1.31084,0.24185 0.73387,-0.64425 0.0515,-1.97089 -0.1538,-2.92548 -0.22797,-1.05703 -0.72774,-2.03953 -1.17874,-3.02232 -0.43277,-0.94291 -0.77165,-1.97297 -1.4611,-2.7483 -0.4612,-0.51883 -1.2726,-0.64845 -1.71194,-1.18595 -0.17938,-0.2192 -0.0661,-0.69298 -0.33501,-0.78073 -0.24221,-0.0789 -0.48139,0.20494 -0.65716,0.3898 -0.29299,0.3065 -0.43331,0.73203 -0.59621,1.12348 -0.0928,0.22102 -0.25099,0.45048 -0.21336,0.68743 z"
       id="path2009-4"
       inkscape:connector-curvature="0"
       sodipodi:nodetypes="sssssssssssssss" />
    <path
       style="fill:#1a1a1a;fill-opacity:1;stroke:none;stroke-width:0.09249993px;stroke-linecap:butt;stroke-linejoin:miter;stroke-opacity:1"
       d="m 156.68125,212.45957 c -0.54989,0.0292 -1.17366,0.22321 -1.51707,0.65309 -0.29409,0.36817 -0.35327,0.92916 -0.25646,1.39042 0.11727,0.55873 0.50061,1.081 0.96228,1.41687 0.63268,0.46039 1.5456,0.9908 2.25339,0.65737 0.5819,-0.274 0.76932,-1.12915 0.76303,-1.7723 -0.007,-0.7039 -0.34633,-1.45567 -0.87284,-1.92292 -0.34853,-0.30906 -0.86697,-0.44573 -1.33229,-0.42253 z"
       id="path2013-1"
       inkscape:connector-curvature="0"
       sodipodi:nodetypes="ssssssss" />
    <path
       style="fill:#1a1a1a;fill-opacity:1;stroke:none;stroke-width:0.09249993px;stroke-linecap:butt;stroke-linejoin:miter;stroke-opacity:1"
       d="m 159.47493,211.90252 c -0.0709,-0.15636 -1.31909,-2.35831 -2.0571,-3.48877 -0.35583,-0.54455 -0.5462,-1.31772 -1.13983,-1.58324 -0.26486,-0.118 -0.63231,-0.0804 -0.86543,0.0921 -0.29994,0.22212 -0.44632,0.65766 -0.43766,1.03095 0.0292,1.30092 1.10578,2.35645 1.69005,3.51924 0.48709,0.96942 1.02552,1.91247 1.51309,2.88163 0.72671,1.44475 1.33429,2.94937 2.1043,4.37158 1.02665,1.89618 2.11442,3.76645 3.34708,5.53572 0.56356,0.80882 1.03717,1.68831 1.84397,2.31224 0.37139,0.28715 0.81279,-0.47057 1.22152,-0.70171 0.28495,-0.16148 0.70373,-0.18887 0.85819,-0.47803 0.15637,-0.29299 0.0493,-0.68706 -0.08,-0.99299 -0.77845,-1.84331 -2.33987,-3.16527 -3.41347,-4.81336 -1.62813,-2.49936 -4.02524,-6.45633 -4.58471,-7.68502 z"
       id="path2015-2"
       inkscape:connector-curvature="0"
       sodipodi:nodetypes="sssssssssssssss" />
    <path
       style="fill:#1a1a1a;fill-opacity:1;stroke:none;stroke-width:0.09249993px;stroke-linecap:butt;stroke-linejoin:miter;stroke-opacity:1"
       d="m 167.55311,225.3939 c 0,0 1.9916,2.4054 2.87172,3.69258 0.85725,1.25372 1.46636,2.66683 2.33658,3.91156 0.3467,0.49542 1.22104,0.80861 1.14304,1.40807 -0.0435,0.33208 -0.49502,0.48373 -0.81198,0.59183 -0.23966,0.0815 -0.68035,0.14905 -0.75941,0.0183 -0.0793,-0.12823 -1.16847,-2.06956 -1.84043,-3.04786 -0.97506,-1.41932 -2.03956,-2.77989 -3.16967,-4.07913 -0.45173,-0.51935 -1.53443,-0.79908 -1.43926,-1.48084 0.0661,-0.47529 0.84362,-0.45951 1.24782,-0.71834 0.14504,-0.0932 0.42159,-0.29883 0.42159,-0.29883"
       id="path2019-5"
       inkscape:connector-curvature="0"
       sodipodi:nodetypes="csssssssssc" />
    <path
       style="fill:#1a1a1a;fill-opacity:1;stroke:none;stroke-width:0.09249993px;stroke-linecap:butt;stroke-linejoin:miter;stroke-opacity:1"
       d="m 176.6532,241.08259 c 0.21079,-0.60224 -0.28533,-1.24656 -0.49641,-1.8485 -0.19984,-0.56918 -0.46912,-1.11187 -0.72617,-1.65759 -0.3109,-0.66017 -0.67418,-1.29478 -0.98665,-1.95423 -0.1896,-0.40072 -0.11142,-1.10145 -0.53952,-1.21616 -0.32405,-0.0862 -0.61792,0.31893 -0.81198,0.59183 -0.10156,0.14211 -0.16184,0.32696 -0.15234,0.50111 0.0183,0.4336 0.32112,0.80773 0.51077,1.19837 0.23563,0.48548 0.76883,1.35853 0.77837,1.41998 0.007,0.0617 0.41797,0.98104 0.60612,1.47985 0.18084,0.48019 0.25025,1.00808 0.50236,1.45513 0.10156,0.17974 0.19618,0.4222 0.3958,0.47579 0.21482,0.0581 0.43105,-0.12494 0.62716,-0.23052 0.10668,-0.0573 0.25208,-0.10156 0.29227,-0.21554 z"
       id="path2021-5"
       inkscape:connector-curvature="0"
       sodipodi:nodetypes="ssssssssssssss" />
    <path
       style="fill:#1a1a1a;fill-opacity:1;stroke:none;stroke-width:0.09249993px;stroke-linecap:butt;stroke-linejoin:miter;stroke-opacity:1"
       d="m 176.6532,241.08259 c 0.46809,0.20933 0.30541,0.97943 0.42447,1.47825 0.30834,1.2977 0.23966,2.69693 0.74404,3.93168 0.10302,0.25135 0.4918,0.40891 0.45271,0.6779 -0.0413,0.28166 -0.37417,0.58083 -0.65617,0.54561 -0.4385,-0.0548 -0.625,-0.65791 -0.78009,-1.07168 -0.27655,-0.73704 -0.18851,-2.22924 -0.20823,-2.35213 -0.0183,-0.12312 -1.27683,-1.87302 -0.897,-2.76405 0.13335,-0.31344 0.60868,-0.58455 0.91976,-0.44558 z"
       id="path2023-6"
       inkscape:connector-curvature="0"
       sodipodi:nodetypes="sssssssss" />
    <path
       style="fill:#1a1a1a;fill-opacity:1;stroke:none;stroke-width:0.09249993px;stroke-linecap:butt;stroke-linejoin:miter;stroke-opacity:1"
       d="m 156.56479,211.61571 c -0.43208,0.14649 0.21444,1.29237 0.20933,1.35235 -0.007,0.0599 -0.34049,0.76064 -0.59943,1.08111 -0.18742,0.23234 -0.59122,0.30248 -0.67539,0.58926 -0.12494,0.42674 0.0552,0.96811 0.37136,1.28152 0.42345,0.42071 1.1787,0.73109 1.72341,0.48687 0.51993,-0.23271 0.76087,-0.96756 0.7475,-1.53706 -0.0292,-1.23542 -0.60554,-3.65028 -1.77602,-3.25405 z"
       id="path2017-8"
       inkscape:connector-curvature="0"
       sodipodi:nodetypes="ssssssss" />
    <path
       style="fill:#1a1a1a;fill-opacity:1;stroke:none;stroke-width:0.09249993px;stroke-linecap:butt;stroke-linejoin:miter;stroke-opacity:1"
       d="m 157.57898,205.96473 c 0.0369,0.0888 0.54646,1.97808 1.02055,2.87916 0.32149,0.611 0.96717,1.03236 1.21691,1.67599 0.15271,0.39265 0.18303,0.83656 0.14175,1.25573 -0.0329,0.3266 0.0183,0.86399 -0.3003,0.93647 -0.78626,0.17828 -1.18294,-1.1092 -1.65918,-1.75962 -0.59549,-0.81328 -1.34467,-1.64209 -1.47086,-2.64202 -0.0924,-0.72963 0.24404,-1.46992 0.56064,-2.13382 0.0891,-0.18668 0.16184,-0.52556 0.3673,-0.50174 0.10412,0.007 -0.2466,-0.65886 0.12348,0.29007 z"
       id="path2027-4"
       inkscape:connector-curvature="0"
       sodipodi:nodetypes="ssssssssss" />
    <path
       style="fill:#1a1a1a;fill-opacity:1;stroke:none;stroke-width:0.09249993px;stroke-linecap:butt;stroke-linejoin:miter;stroke-opacity:1"
       d="m 159.1941,214.25484 c 0.007,-0.12786 0.50474,-2.03777 0.95947,-2.97541 0.58329,-1.20265 1.52562,-2.1964 2.23476,-3.32946 1.914,-3.05845 3.45734,-6.34374 5.44602,-9.35422 0.82685,-1.25168 1.37144,-2.89143 2.6889,-3.60893 0.31637,-0.17243 0.77399,-0.26559 1.07798,-0.072 0.29555,0.18778 0.39985,0.62847 0.38144,0.97783 -0.10412,1.96226 -1.79326,3.49724 -2.71013,5.23531 -1.00217,1.89957 -1.97914,3.81391 -3.05062,5.67534 -0.78378,1.36164 -1.61764,2.69449 -2.46915,4.01484 -0.80041,1.24111 -1.35607,2.71348 -2.48045,3.67103 -0.38783,0.33062 -0.89173,0.76225 -1.38763,0.64355 -0.36204,-0.0866 -0.78601,0.16038 -0.69051,-0.87769 z"
       id="path2029-4"
       inkscape:connector-curvature="0"
       sodipodi:nodetypes="sssssssssssss" />
    <path
       style="fill:#1a1a1a;fill-opacity:1;stroke:none;stroke-width:0.09249993px;stroke-linecap:butt;stroke-linejoin:miter;stroke-opacity:1"
       d="m 180.06966,211.53698 c 0.80902,0.35802 1.12006,1.37139 1.63587,2.09031 1.11813,1.55847 1.79304,3.46225 3.15664,4.81117 0.62632,0.61963 1.5079,0.91484 2.22548,1.42608 0.27655,0.19654 0.5876,0.36547 0.79894,0.63055 0.25244,0.31673 0.43748,0.70135 0.5203,1.0978 0.095,0.45325 0.0369,0.93201 -0.042,1.3887 -0.0621,0.36584 -0.14796,0.74059 -0.33355,1.06196 -0.20495,0.35619 -0.53027,0.63136 -0.83353,0.90889 -0.37096,0.33939 -0.78652,0.62905 -1.19865,0.91806 -0.26633,0.18632 -0.50799,0.61451 -0.81955,0.52439 -0.22979,-0.0665 -0.30724,-0.41012 -0.30432,-0.64933 0.007,-0.41201 0.28204,-0.79432 0.55176,-1.10616 0.3098,-0.35875 0.83756,-0.47306 1.1676,-0.81373 0.3076,-0.31783 0.65448,-0.67508 0.72364,-1.11182 0.0964,-0.6067 -0.10412,-1.29281 -0.47891,-1.7795 -0.51073,-0.6631 -1.4706,-0.8021 -2.1774,-1.25024 -0.35218,-0.22285 -0.72245,-0.43047 -1.02687,-0.71582 -0.54672,-0.51251 -0.94796,-1.16137 -1.40225,-1.75739 -1.03856,-1.36262 -2.01345,-2.77274 -3.02406,-4.15622 -0.17061,-0.23381 -0.42239,-0.42593 -0.51395,-0.7008 -0.0497,-0.15015 -0.0763,-0.33317 -0.007,-0.47426 0.0687,-0.13663 0.22906,-0.21627 0.37337,-0.26852 0.31674,-0.11507 0.69905,-0.21042 1.00677,-0.0742 z"
       id="path2033-5"
       inkscape:connector-curvature="0"
       sodipodi:nodetypes="ssssssssssssssssssssssss" />
    <path
       style="fill:#1a1a1a;fill-opacity:1;stroke:none;stroke-width:0.09249993px;stroke-linecap:butt;stroke-linejoin:miter;stroke-opacity:1"
       d="m 171.60123,194.91463 c -0.1644,0.3087 0.39824,0.62836 0.38144,0.97783 -0.0183,0.45439 -0.63816,0.76367 -0.61565,1.2181 0.0413,0.79491 0.88019,1.32726 1.28223,2.01414 0.86255,1.47335 1.72487,2.95463 2.42083,4.51365 1.05083,2.35407 1.68431,4.87481 2.63333,7.27173 0.14358,0.36204 0.36939,0.69456 0.46185,1.07274 0.10887,0.4457 0.0453,0.91729 0.1012,1.37278 0.0449,0.36693 -0.1823,1.08852 0.18668,1.09283 0.2477,0.003 0.11252,-0.48332 0.14285,-0.72919 0.0745,-0.60943 -0.2002,-1.30048 0.0943,-1.83962 0.0731,-0.13444 0.22906,-0.21627 0.37341,-0.26852 0.31674,-0.11507 0.77464,0.16988 1.00666,-0.0742 0.0522,-0.0548 0.0183,-0.1527 0.007,-0.22723 -0.14723,-0.7644 -0.63714,-1.4214 -0.92363,-2.14533 -0.73588,-1.8596 -1.3092,-3.78062 -2.04103,-5.6418 -0.7608,-1.93469 -1.46508,-3.9036 -2.44113,-5.73913 -0.48081,-0.90422 -0.9477,-1.85347 -1.67161,-2.57787 -0.19508,-0.19509 -0.42214,-0.40149 -0.69336,-0.45008 -0.23637,-0.0417 -0.59044,-0.0537 -0.70326,0.15891 z"
       id="path2031-0"
       inkscape:connector-curvature="0"
       sodipodi:nodetypes="ssssssssssssssssssss" />
    <path
       style="fill:url(#linearGradient1983-4);fill-opacity:1;stroke:none;stroke-width:0.09249993px;stroke-linecap:butt;stroke-linejoin:miter;stroke-opacity:1"
       d="m 188.26986,286.5999 c 0,0 0.48786,-26.14616 0.30687,-37.76039 -0.14613,-9.38462 0.88578,-18.97715 -1.18136,-28.13242 -0.27766,-1.22906 -0.8095,-2.41136 -1.47955,-3.47851 -0.63579,-1.01264 -2.05382,1.83948 -2.92378,2.90173 -1.45142,1.77233 -3.72111,3.4465 -3.78467,5.73643 -0.27875,10.03939 0.0413,19.47633 -0.11764,29.21258 -0.10996,6.7544 -0.11179,13.53634 -0.21883,20.29067 -0.0413,2.56998 -0.30067,10.34791 -0.30067,10.34791 z"
       id="path1975-0"
       inkscape:connector-curvature="0"
       sodipodi:nodetypes="cssssssscc" />
    <path
       style="fill:#1a1a1a;fill-opacity:1;stroke:none;stroke-width:0.09249993px;stroke-linecap:butt;stroke-linejoin:miter;stroke-opacity:1"
       d="m 178.27442,247.17042 c 0.0731,0.0292 0.96637,0.47759 1.26858,0.47828 0.30176,7.3e-4 -0.0954,-0.19873 0.1896,-0.27618 0.3673,-0.099 0.51402,1.33869 0.19984,1.12424 -0.34378,-0.2338 -0.007,-0.2981 -0.24806,-0.30394 -0.26889,-0.007 -0.68207,0.0146 -1.14685,-0.0533 -0.34925,-0.0519 -0.89918,-0.0709 -0.91906,-0.42389 -0.0146,-0.28458 0.20057,-0.72915 0.65621,-0.54557 z"
       id="path2025-8"
       inkscape:connector-curvature="0"
       sodipodi:nodetypes="csssssssc" />
    <path
       style="fill:#1a1a1a;fill-opacity:1;stroke:none;stroke-width:0.09249993px;stroke-linecap:butt;stroke-linejoin:miter;stroke-opacity:1"
       d="m 186.63924,263.89959 c -0.0292,-0.16586 0.17828,-0.29664 0.20313,-0.46331 0.0183,-0.12201 -0.0965,-0.25828 -0.0413,-0.36777 0.0369,-0.0705 0.15088,-0.0329 0.21591,0.007 0.11874,0.08 0.13481,0.22358 0.14212,0.37738 0.007,0.1538 0.007,0.20641 -0.0329,0.3906 -0.0292,0.12641 -0.12202,0.29445 -0.25208,0.29811 -0.11362,0.003 -0.21481,-0.13444 -0.23381,-0.2466 z"
       id="path1997-0"
       inkscape:connector-curvature="0"
       sodipodi:nodetypes="ssssssss" />
    <path
       style="fill:#1a1a1a;fill-opacity:1;stroke:none;stroke-width:0.09249993px;stroke-linecap:butt;stroke-linejoin:miter;stroke-opacity:1"
       d="m 186.84138,264.08963 c 0.21591,-0.0183 0.29957,0.46414 0.29592,0.50659 -0.003,0.0424 -0.0767,0.29117 -0.17719,0.4069 -0.0782,0.0906 -0.13152,0.1465 -0.24988,0.15965 -0.0764,0.007 -0.17354,0.0705 -0.20313,0 -0.0508,-0.11727 0.13116,-0.22468 0.16111,-0.34925 0.0292,-0.11764 -0.011,-0.24513 0.007,-0.36277 0.0292,-0.12823 0.0292,-0.34815 0.16184,-0.36021 z"
       id="path1999-2"
       inkscape:connector-curvature="0"
       sodipodi:nodetypes="ssssssss" />
    <path
       style="fill:#1a1a1a;fill-opacity:1;stroke:none;stroke-width:0.09249993px;stroke-linecap:butt;stroke-linejoin:miter;stroke-opacity:1"
       d="m 179.63488,262.54252 c 0.13736,-0.12531 0.37099,0.0522 0.5466,0.11471 0.46277,0.16476 0.84468,0.51646 1.30887,0.67757 0.68182,0.23673 2.05177,0.40321 2.12619,0.41018 0.0745,0.007 1.06607,-0.0486 1.59839,-0.0183 0.48662,0.0183 1.05295,-0.12202 1.45332,0.15526 0.1275,0.0884 0.23308,0.37497 0.2086,0.41556 -0.0256,0.0413 -1.01353,0.42089 -1.05606,0.41698 -0.042,-0.003 -1.98359,-0.0972 -2.02703,-0.0902 -0.0435,0.007 -2.32347,-0.2455 -2.36394,-0.27107 -0.0413,-0.0256 -1.06739,-0.55968 -1.63332,-0.76093 -0.19253,-0.0683 -0.53459,0.0457 -0.59461,-0.15052 -0.069,-0.22723 0.40113,-0.30541 0.4731,-0.53216 0.0369,-0.11545 -0.12933,-0.27984 -0.0413,-0.36094 z"
       id="path1993-6"
       inkscape:connector-curvature="0"
       sodipodi:nodetypes="ssssssssssssss" />
    <path
       style="fill:#1a1a1a;fill-opacity:1;stroke:none;stroke-width:0.09249993px;stroke-linecap:butt;stroke-linejoin:miter;stroke-opacity:1"
       d="m 162.46867,249.85153 c 0.36131,-0.0599 0.6428,0.35217 0.9507,0.55029 0.31455,0.20239 0.625,0.41493 0.91489,0.65199 0.35876,0.29372 0.98117,0.86162 1.01584,0.95054 0.0369,0.0891 0.99034,0.53034 1.00762,0.5748 0.0146,0.0446 0.94372,0.80455 1.00356,0.85296 0.0599,0.0486 0.92461,0.54349 1.36849,0.84368 0.43745,0.29554 0.8559,0.61922 1.2738,0.94202 0.74691,0.57707 1.50216,1.1465 2.20385,1.77767 0.35364,0.31819 0.64207,0.70807 1.00937,1.01114 0.54858,0.4526 1.18298,0.78979 1.76882,1.19297 0.98351,0.67672 1.93084,1.40646 2.93159,2.0575 0.54288,0.3529 1.30708,0.46181 1.66507,1.00157 0.11983,0.1812 0.1549,0.43689 0.0928,0.64484 -0.0679,0.22759 -0.24112,0.48288 -0.47314,0.53213 -0.74987,0.15964 -1.42051,-0.58445 -2.09418,-0.95025 -1.17406,-0.63745 -2.24934,-1.442 -3.37664,-2.15906 -0.87668,-0.5576 -1.81105,-1.03248 -2.63421,-1.66646 -0.83507,-0.6433 -1.50041,-1.48559 -2.31678,-2.15242 -1.2183,-0.99521 -2.57302,-1.8112 -3.83761,-2.74694 -0.87376,-0.64648 -1.7656,-1.27235 -2.59012,-1.98057 -0.29299,-0.25134 -0.76518,-0.42403 -0.83503,-0.80404 -0.0183,-0.11581 0.0782,-0.2265 0.15051,-0.31929 0.0957,-0.12385 0.24916,-0.19107 0.36095,-0.29993 0.16001,-0.15563 0.21993,-0.46831 0.44041,-0.50481 z"
       id="path1991-3"
       inkscape:connector-curvature="0"
       sodipodi:nodetypes="sssssssssssssssssssssssss" />
    <path
       sodipodi:nodetypes="csssssssssscc"
       inkscape:connector-curvature="0"
       id="path2048-5"
       d="m 187.88659,220.49509 c 0.25244,0.31673 0.43748,0.70135 0.5203,1.0978 0.095,0.45325 0.0369,0.93201 -0.042,1.3887 -0.0621,0.36584 -0.14796,0.74059 -0.33355,1.06196 -0.20495,0.35619 -0.53027,0.63136 -0.83353,0.90889 -0.37096,0.33939 -0.78652,0.62905 -1.19865,0.91806 -0.26633,0.18632 -0.50799,0.61451 -0.81955,0.52439 -0.22979,-0.0665 -0.30724,-0.41012 -0.30432,-0.64933 0.007,-0.41201 0.28204,-0.79432 0.55176,-1.10616 0.3098,-0.35875 0.83756,-0.47306 1.1676,-0.81373 0.3076,-0.31783 1.2039,-0.81639 1.14589,-1.25477 -0.0833,-0.63081 -0.15965,-1.0251 -0.2835,-1.67823 -0.16293,-0.60432 -0.46725,-1.38586 0.43007,-0.3974 z"
       style="fill:#1a1a1a;fill-opacity:1;stroke:none;stroke-width:0.09249993px;stroke-linecap:butt;stroke-linejoin:miter;stroke-opacity:1" />
    <path
       style="fill:#1a1a1a;fill-opacity:1;stroke:none;stroke-width:0.09249993px;stroke-linecap:butt;stroke-linejoin:miter;stroke-opacity:1"
       d="m 185.27199,226.26414 c 0,0 0.14687,0.46177 0.1286,0.69744 -0.007,0.14613 -1.5e-4,0.39462 -0.14577,0.41511 -0.2276,0.0329 -0.34925,-0.33719 -0.39824,-0.56153 -0.0413,-0.18157 -0.0369,-0.42816 0.10412,-0.54748 0.0793,-0.0665 0.31089,-0.003 0.31089,-0.003"
       id="path2035-2"
       inkscape:connector-curvature="0"
       sodipodi:nodetypes="cssssc" />
    <path
       style="fill:#1a1a1a;fill-opacity:1;stroke:none;stroke-width:0.09249993px;stroke-linecap:butt;stroke-linejoin:miter;stroke-opacity:1"
       d="m 184.96753,225.61481 c -0.24733,-0.19947 -0.62917,-0.23198 -0.93854,-0.16147 -0.20166,0.0464 -0.39422,0.18595 -0.50455,0.36057 -0.0877,0.13846 -0.23162,0.40606 -0.0877,0.48471 0.1549,0.0844 0.22468,-0.29152 0.38663,-0.36094 0.17535,-0.0749 0.38619,-0.0811 0.57082,-0.0329 0.21665,0.0566 0.35364,0.43448 0.56656,0.36277 0.118,-0.0413 0.13079,-0.2276 0.1286,-0.35217 -9.5e-4,-0.10777 -0.0369,-0.23271 -0.12203,-0.3003 z"
       id="path2037-2"
       inkscape:connector-curvature="0"
       sodipodi:nodetypes="sssssssss" />
  </g>
</svg>
