<?xml version="1.0" encoding="UTF-8" standalone="no"?>
<!-- Created with Inkscape (http://www.inkscape.org/) -->

<svg
   xmlns:dc="http://purl.org/dc/elements/1.1/"
   xmlns:cc="http://creativecommons.org/ns#"
   xmlns:rdf="http://www.w3.org/1999/02/22-rdf-syntax-ns#"
   xmlns:svg="http://www.w3.org/2000/svg"
   xmlns="http://www.w3.org/2000/svg"
   xmlns:sodipodi="http://sodipodi.sourceforge.net/DTD/sodipodi-0.dtd"
   xmlns:inkscape="http://www.inkscape.org/namespaces/inkscape"
   width="210mm"
   height="297mm"
   viewBox="0 0 210 297"
   version="1.1"
   id="svg14360"
   inkscape:version="0.92.3 (2405546, 2018-03-11)"
   sodipodi:docname="pupa.svg">
  <defs
     id="defs14354">
    <clipPath
       clipPathUnits="userSpaceOnUse"
       id="clipPath1985-0-6">
      <rect
         style="opacity:0.247;fill:#404040;fill-opacity:0.71162792;fill-rule:nonzero;stroke:none;stroke-width:0.16499999;stroke-linecap:round;stroke-miterlimit:4;stroke-dasharray:none;stroke-dashoffset:0;stroke-opacity:0.42790701"
         id="rect1987-3-0"
         width="119.81845"
         height="54.806545"
         x="-172.9241"
         y="-5.3809524"
         ry="0.083521813"
         transform="scale(-1)" />
    </clipPath>
  </defs>
  <sodipodi:namedview
     id="base"
     pagecolor="#ffffff"
     bordercolor="#666666"
     borderopacity="1.0"
     inkscape:pageopacity="0.0"
     inkscape:pageshadow="2"
     inkscape:zoom="0.49497475"
     inkscape:cx="91.906887"
     inkscape:cy="629.31037"
     inkscape:document-units="mm"
     inkscape:current-layer="layer1"
     showgrid="false"
     inkscape:window-width="1920"
     inkscape:window-height="1009"
     inkscape:window-x="-8"
     inkscape:window-y="-8"
     inkscape:window-maximized="1" />
  <metadata
     id="metadata14357">
    <rdf:RDF>
      <cc:Work
         rdf:about="">
        <dc:format>image/svg+xml</dc:format>
        <dc:type
           rdf:resource="http://purl.org/dc/dcmitype/StillImage" />
        <dc:title></dc:title>
      </cc:Work>
    </rdf:RDF>
  </metadata>
  <g
     inkscape:label="Layer 1"
     inkscape:groupmode="layer"
     id="layer1">
    <path
       style="opacity:1;fill:#11888a;fill-opacity:1;fill-rule:nonzero;stroke:none;stroke-width:0.09999999;stroke-linecap:round;stroke-miterlimit:4;stroke-dasharray:none;stroke-dashoffset:0;stroke-opacity:1"
       d="m 105.80785,251.75805 c -1.80534,-1.30639 -3.34084,-3.46418 -3.35175,-4.71036 -0.008,-0.94265 -1.1921,-5.34647 -2.23806,-8.32539 -0.569148,-1.62032 -1.264428,-3.98109 -1.545448,-5.24593 -0.79352,-3.57091 -2.45298,-6.28862 -3.90445,-6.39432 -0.96088,-0.0688 -1.15476,0.60206 -0.77879,2.70024 0.25642,1.43093 0.26682,1.95808 0.0606,3.07447 -0.31273,1.69222 -0.16893,2.26754 0.70342,2.80234 1.07056,0.65711 2.32382,2.1233 2.60164,3.04402 0.37337,1.23732 0.078,1.69842 -1.46585,2.28345 -0.69996,0.26577 -1.3722,0.63818 -1.49313,0.82912 -0.34305,0.54014 0.39156,1.33133 2.11452,2.2782 0.82644,0.45413 1.59995,0.98033 1.71863,1.16938 0.27981,0.44638 -0.21744,1.00871 -1.54909,1.75114 -0.53884,0.30017 -0.97934,0.68377 -0.97822,0.85148 0.001,0.16772 0.36818,0.76204 0.81605,1.32067 1.4214,1.7735 1.42937,1.7692 -3.08087,1.69214 l -3.89942,-0.0688 -1.2679,-1.34449 c -1.08502,-1.15063 -1.42149,-1.38027 -2.33222,-1.59254 -1.45164,-0.33801 -1.62195,-0.5883 -1.09663,-1.61103 0.46433,-0.90283 0.53017,-2.02009 0.21917,-3.70397 -0.1568,-0.85234 -0.35604,-1.22984 -0.89973,-1.70736 l -0.69822,-0.61324 0.38376,-0.70785 c 0.32399,-0.5969 0.3803,-1.12267 0.36038,-3.34918 -0.0173,-1.56081 0.0693,-2.87536 0.20877,-3.21329 0.1464,-0.36038 0.23303,-2.05802 0.23303,-4.58934 v -4.01739 l -1.35964,-1.70934 c -0.7476,-0.94016 -1.493215,-2.02413 -1.656424,-2.40884 -0.466062,-1.09868 -0.823839,-3.1309 -1.074889,-6.10714 -0.474726,-5.62498 -1.016849,-9.24741 -1.619525,-10.81948 -0.139472,-0.36381 -0.363841,-0.55905 -0.642785,-0.55905 -0.310131,0 -0.400225,-0.0981 -0.327457,-0.35522 0.322259,-1.13549 0.330056,-1.83741 0.03465,-3.51096 -0.416684,-2.3981 -0.584744,-2.7141 -1.360504,-2.56014 -0.593407,0.11783 -0.59514,0.11611 -0.265084,-0.38446 0.395893,-0.60034 0.268549,-1.8067 -0.374236,-3.5433 -0.6116,-1.65086 -0.890804,-1.89925 -1.998613,-1.77531 -0.890717,0.0998 -0.906136,0.092 -0.491185,-0.24169 0.740676,-0.59604 0.954563,-1.21298 0.805648,-2.32894 -0.310131,-2.32052 -1.374452,-3.71051 -2.463895,-3.21768 -0.658379,0.29759 -0.651449,0.10149 0.01732,-0.59518 l 0.533634,-0.55303 -0.764066,-2.27666 c -0.858491,-2.5579 -1.278814,-3.14 -2.143282,-2.96842 -0.31273,0.0602 -0.832503,0.16686 -1.155368,0.23309 -0.466929,0.0963 -0.399359,0.0172 0.334387,-0.375 1.591977,-0.85665 1.739419,-1.13282 1.739419,-3.26206 0,-1.47427 -0.07797,-1.98731 -0.378568,-2.44015 -0.348247,-0.52723 -0.455667,-0.56422 -1.330184,-0.46273 -0.523238,0.0602 -1.18179,0.16858 -1.46316,0.23911 -0.281544,0.0688 -0.03465,-0.11181 0.558755,-0.4051 1.696191,-0.84547 1.95781,-1.30622 1.846059,-3.24933 -0.05198,-0.89406 -0.211374,-1.87078 -0.355178,-2.17052 -0.365573,-0.76204 -1.215141,-1.06057 -2.567936,-0.90275 -1.505868,0.17546 -1.418719,0.002 0.153333,-0.30447 1.724519,-0.33715 2.207214,-0.82998 2.203922,-2.25162 -0.0027,-1.21109 -0.445272,-3.07086 -0.84463,-3.54872 -0.203578,-0.24341 -0.502447,-0.28813 -1.290855,-0.1961 l -1.026465,0.12041 0.712955,-0.42316 c 0.391562,-0.23309 0.965911,-0.65969 1.275435,-0.94834 0.517174,-0.48251 0.560488,-0.64248 0.538831,-1.96031 -0.04331,-2.61879 -0.277212,-2.9784 -2.12457,-3.28063 l -0.818642,-0.13417 0.855892,-0.36726 c 0.470394,-0.20212 0.999783,-0.58572 1.175986,-0.85321 0.385498,-0.58314 0.634122,-2.66791 0.44094,-3.69012 -0.125612,-0.66313 -0.229566,-0.76032 -1.050114,-0.97809 -0.925455,-0.24599 -1.224064,-0.56422 -0.529302,-0.56422 1.012517,0 2.211979,-1.71673 2.420408,-3.46435 0.127344,-1.0696 -0.08663,-1.52725 -0.850694,-1.8202 -0.398493,-0.1531 -0.395028,-0.16772 0.09529,-0.36296 0.281544,-0.11181 0.780525,-0.48509 1.108329,-0.82912 1.062415,-1.11356 0.918871,-3.47458 -0.242561,-3.98436 -0.526703,-0.23136 -0.602936,-0.51089 -0.139472,-0.51089 1.032095,0 2.172216,-1.25134 2.424046,-2.6606 0.168059,-0.94214 -0.418417,-1.73961 -1.418026,-1.92573 -0.700827,-0.13074 -0.796985,-0.48767 -0.134275,-0.49885 0.796118,-0.0172 3.313463,-2.56392 3.313463,-3.35804 0,-0.13418 -0.281543,-0.36038 -0.625459,-0.50143 l -0.62546,-0.25717 0.636721,-0.30619 c 0.909169,-0.43692 2.425606,-2.23141 2.718411,-3.21647 0.177589,-0.5969 0.553558,-1.09429 1.305062,-1.72705 0.580413,-0.48853 2.146228,-1.89856 3.479011,-3.13296 5.588247,-5.17575 10.416237,-8.3247 16.645797,-10.8568 1.40677,-0.57196 2.63222,-1.11356 2.72318,-1.20387 0.091,-0.0903 -0.0346,-0.57884 -0.28501,-1.08569 l -0.45047,-0.92141 0.65231,-3.18284 0.65232,-3.182752 -0.51977,-1.495779 c -0.63932,-1.840071 -0.64019,-2.024818 -0.0173,-4.564915 l 0.49898,-2.045805 -0.39589,-3.402335 c -0.21831,-1.871207 -0.39676,-3.87633 -0.39676,-4.455771 -3.5e-4,-1.211261 -0.25902,-2.008735 -0.85589,-2.641931 -0.5475,-0.58056 -0.69563,-1.967623 -0.37944,-3.568418 0.51111,-2.590585 1.69853,-4.228106 3.849958,-5.310526 1.5154,-0.762038 1.60696,-0.951429 0.9776,-2.01768 -0.40628,-0.68721 -0.57175,-1.334426 -0.70256,-2.738605 -0.14813,-1.598732 -0.25468,-1.95154 -0.81431,-2.707041 -0.89071,-1.202488 -0.84549,-1.80455 0.20445,-2.696117 1.07671,-0.914961 2.56871,-1.423961 3.64508,-1.243429 2.27911,0.382739 6.87624,4.451643 8.41745,7.451027 0.50505,0.982736 1.4636,1.935283 5.4804,5.445043 3.77294,3.29663 4.08636,3.514577 6.64416,4.617553 1.10643,0.477349 2.98012,1.509454 4.1639,2.294112 2.58604,1.713983 2.67198,1.723444 6.49188,0.717314 2.58682,-0.68119 6.21448,-1.332878 7.28573,-1.308366 0.28155,0.0068 -0.54749,0.233944 -1.84181,0.505732 -2.6317,0.552176 -6.66435,1.761889 -7.81591,2.345115 -0.88413,0.448106 -1.65166,1.396524 -1.998,2.469828 -0.20271,0.628724 -0.18972,0.932163 0.078,1.728862 0.37857,1.132306 3.2433,4.883492 5.71967,7.49016 l 1.68345,1.772039 5.82258,0.259747 c 3.20249,0.142774 6.2831,0.287269 6.84593,0.319952 0.56308,0.0344 -2.1121,0.124713 -5.94404,0.203841 -3.83202,0.07741 -7.12504,0.202981 -7.31796,0.276088 -0.4496,0.171158 -0.66877,1.024709 -0.35778,1.396181 0.13168,0.157396 0.62546,0.358656 1.09724,0.447245 0.79612,0.148796 0.73288,0.170298 -0.88153,0.29329 -2.12154,0.161697 -2.78356,0.443806 -3.07073,1.30742 -0.70256,2.113841 3.22978,10.411101 5.63329,11.885891 0.69563,0.42661 5.01789,1.43102 9.25455,2.14997 3.44315,0.584 2.21987,0.56163 -2.12985,-0.043 -6.63689,-0.91737 -11.04941,-0.75 -12.52349,0.47649 -0.52323,0.4352 -1.02118,2.25239 -1.18846,4.33578 -0.11954,1.4926 -0.10482,1.56055 0.46693,2.1774 0.32486,0.35006 1.34344,1.16559 2.2637,1.81186 1.76133,1.23707 2.78399,2.41719 4.85086,5.59822 1.17642,1.81057 2.38732,2.95887 3.72409,3.53152 0.4418,0.18922 1.99999,0.69495 3.46324,1.12439 2.90977,0.85321 2.49326,0.88495 -1.02326,0.0774 -1.2381,-0.28469 -2.50634,-0.51777 -2.81829,-0.51863 -0.31186,-9.5e-4 -1.39204,0.31823 -2.40022,0.70957 -1.0081,0.39134 -2.04219,0.71215 -2.29783,0.71387 -0.72075,0.005 -1.3858,0.22534 -1.3858,0.46101 0,0.11697 1.02213,1.2516 2.27132,2.52092 l 2.2714,2.30778 -0.10915,0.85837 c -0.0606,0.47219 -0.16979,1.14469 -0.24429,1.49415 -0.10482,0.49111 -0.0173,0.81536 0.39156,1.42559 0.63239,0.94859 0.85762,1.91292 0.57175,2.44394 -0.11522,0.21416 -0.66098,0.59862 -1.2122,0.85493 l -1.00212,0.46616 0.18279,1.25212 c 0.10049,0.68893 0.12994,1.86278 0.0693,2.60925 -0.11608,1.34285 -0.10395,1.38173 1.06198,3.65735 0.64799,1.26502 2.35882,4.38868 3.80101,6.94142 3.77373,6.6797 3.32698,6.4037 -1.69012,-1.04406 -4.42015,-6.56169 -5.7272,-8.03631 -8.05249,-9.08424 -1.66665,-0.75086 -4.16503,-1.31972 -5.79928,-1.31972 -1.29423,0 -1.55984,0.0688 -2.11019,0.52637 -1.25248,1.0463 -0.90033,2.30727 2.75176,9.8542 3.50448,7.24168 3.79348,8.54179 0.64799,2.91673 -1.4046,-2.51206 -1.81947,-3.09589 -2.40326,-3.38204 -0.42448,-0.20814 -0.56309,-0.35005 -0.34738,-0.35521 0.23217,-0.007 0.35778,-0.1703 0.35778,-0.46875 0,-0.76806 -2.0719,-4.23155 -3.18699,-5.3273 -1.12877,-1.10925 -3.48317,-2.5868 -3.97565,-2.49511 -0.23996,0.043 -0.31966,0.4524 -0.36644,1.87172 -0.0875,2.65836 0.0996,2.95887 2.81361,4.52415 0.62373,0.35951 1.07481,0.6571 1.00195,0.66054 -0.0693,0.002 -1.26876,-0.37069 -2.65751,-0.8317 -2.93689,-0.97491 -5.60592,-1.29134 -6.08255,-0.72161 -0.37337,0.44638 -0.14294,0.9989 0.5986,1.43359 0.83857,0.49197 0.67744,0.58142 -0.38982,0.21588 -0.59514,-0.20384 -0.98757,-0.23566 -1.23854,-0.10235 -0.92614,0.49197 -2.20279,4.8281 -2.32052,7.88107 -0.0606,1.62281 0.026,1.77961 1.1973,2.19512 l 0.79265,0.28039 -1.19245,0.009 c -1.03894,0.007 -1.26945,0.086 -1.7907,0.60292 -0.51457,0.51089 -0.5986,0.74827 -0.5986,1.70099 0,1.14349 0.72854,4.33467 1.29839,5.68733 0.42188,1.00201 1.05869,1.25341 4.02252,1.58876 l 2.35344,0.26663 -2.55815,0.22362 c -2.78572,0.2434 -3.48005,0.47821 -3.47701,1.17178 0.003,0.56423 1.62264,2.71978 3.67288,4.88651 0.86369,0.91247 1.72513,1.88506 1.91484,2.16139 0.49812,0.72507 0.42795,1.59882 -0.26855,3.3258 -0.65578,1.62686 -0.73547,2.16999 -0.40628,2.78031 0.34998,0.65023 2.73339,2.20165 5.47207,3.56344 1.43492,0.71386 2.47074,1.29891 2.3019,1.30106 -0.16892,0.002 -2.10274,-0.54702 -4.29765,-1.22038 -2.19483,-0.67345 -4.37848,-1.27896 -4.8526,-1.34578 -1.05072,-0.14794 -1.09776,-0.0688 -1.69497,2.92008 -0.8481,4.24213 -2.79248,7.46341 -5.63313,9.33281 -0.44787,0.29501 -1.06553,0.7672 -1.37246,1.04905 -1.35452,1.2455 -1.17598,3.08264 0.51458,5.29513 1.54121,2.017 2.05622,3.26988 2.05345,4.996 -0.005,3.03714 -0.70343,4.19765 -4.49092,7.45764 -1.07316,0.92374 -2.04323,1.8504 -2.15585,2.05923 -0.11261,0.209 -0.33438,1.47917 -0.49205,2.8228 -0.20098,1.70805 -0.41149,2.64245 -0.69996,3.10604 -0.60727,0.97542 -0.52064,1.44925 0.61073,3.35813 1.23533,2.08382 1.31026,2.8019 0.41496,3.97661 -0.93508,1.227 -0.80045,1.88024 0.84463,4.09118 0.75107,1.00974 0.78659,1.12887 0.78659,2.60847 0,1.32841 0.10222,1.78211 0.71642,3.16788 0.80478,1.81685 0.85502,2.11091 0.39242,2.28715 -0.73807,0.28124 -1.68519,0.10579 -2.45947,-0.45413 z"
       id="path143653"
       inkscape:connector-curvature="0" />
  </g>
</svg>
