<?xml version="1.0" encoding="UTF-8" standalone="no"?>
<!-- Created with Inkscape (http://www.inkscape.org/) -->

<svg
   xmlns:dc="http://purl.org/dc/elements/1.1/"
   xmlns:cc="http://creativecommons.org/ns#"
   xmlns:rdf="http://www.w3.org/1999/02/22-rdf-syntax-ns#"
   xmlns:svg="http://www.w3.org/2000/svg"
   xmlns="http://www.w3.org/2000/svg"
   xmlns:sodipodi="http://sodipodi.sourceforge.net/DTD/sodipodi-0.dtd"
   xmlns:inkscape="http://www.inkscape.org/namespaces/inkscape"
   width="268.86768mm"
   height="177.86841mm"
   viewBox="0 0 952.68074 630.24239"
   id="svg34720"
   version="1.1"
   inkscape:version="0.91 r13725"
   sodipodi:docname="H_e_chestertonii.svg"
   inkscape:export-filename="C:\Users\StevenVB\Google Drive\Heliconius\Pictures\cartoons\H_e_etylus.png"
   inkscape:export-xdpi="1000"
   inkscape:export-ydpi="1000">
  <defs
     id="defs34722">
    <clipPath
       id="clipPath157182-1-7-91"
       clipPathUnits="userSpaceOnUse">
      <path
         inkscape:connector-curvature="0"
         id="path157184-3-0-4"
         d="m 57.2446,6174.23 241.6054,0 0,-67.34 -241.6054,0 0,67.34 z" />
    </clipPath>
    <clipPath
       id="clipPath157182-1-7-2-68"
       clipPathUnits="userSpaceOnUse">
      <path
         inkscape:connector-curvature="0"
         id="path157184-3-0-1-41"
         d="m 57.2446,6174.23 241.6054,0 0,-67.34 -241.6054,0 0,67.34 z" />
    </clipPath>
    <clipPath
       id="clipPath156194-8-7-6"
       clipPathUnits="userSpaceOnUse">
      <path
         inkscape:connector-curvature="0"
         id="path156196-6-5-8"
         d="m 54.7373,6624.2 241.6037,0 0,-67.35 -241.6037,0 0,67.35 z" />
    </clipPath>
    <clipPath
       id="clipPath156194-8-6-0"
       clipPathUnits="userSpaceOnUse">
      <path
         inkscape:connector-curvature="0"
         id="path156196-6-3-5"
         d="m 54.7373,6624.2 241.6037,0 0,-67.35 -241.6037,0 0,67.35 z" />
    </clipPath>
    <clipPath
       id="clipPath163250-2-9-6-18-13"
       clipPathUnits="userSpaceOnUse">
      <path
         inkscape:connector-curvature="0"
         id="path163252-8-9-8-41-2"
         d="m 62.1895,5722.56 243.0315,0 0,-67.69 -243.0315,0 0,67.69 z" />
    </clipPath>
    <clipPath
       id="clipPath163250-2-9-6-1-2-1"
       clipPathUnits="userSpaceOnUse">
      <path
         inkscape:connector-curvature="0"
         id="path163252-8-9-8-6-4-6"
         d="m 62.1895,5722.56 243.0315,0 0,-67.69 -243.0315,0 0,67.69 z" />
    </clipPath>
    <clipPath
       id="clipPath163250-2-9-6-18-13-9"
       clipPathUnits="userSpaceOnUse">
      <path
         inkscape:connector-curvature="0"
         id="path163252-8-9-8-41-2-1"
         d="m 62.1895,5722.56 243.0315,0 0,-67.69 -243.0315,0 0,67.69 z" />
    </clipPath>
    <filter
       inkscape:collect="always"
       style="color-interpolation-filters:sRGB"
       id="filter5050"
       x="-0.038123773"
       width="1.0762475"
       y="-0.13688706"
       height="1.2737741">
      <feGaussianBlur
         inkscape:collect="always"
         stdDeviation="3.8605245"
         id="feGaussianBlur5052" />
    </filter>
    <filter
       inkscape:collect="always"
       style="color-interpolation-filters:sRGB"
       id="filter5054"
       x="-0.038123773"
       width="1.0762475"
       y="-0.13688706"
       height="1.2737741">
      <feGaussianBlur
         inkscape:collect="always"
         stdDeviation="3.8605245"
         id="feGaussianBlur5056" />
    </filter>
  </defs>
  <sodipodi:namedview
     id="base"
     pagecolor="#ffffff"
     bordercolor="#666666"
     borderopacity="1.0"
     inkscape:pageopacity="0.0"
     inkscape:pageshadow="2"
     inkscape:zoom="0.49497475"
     inkscape:cx="-168.77484"
     inkscape:cy="406.79987"
     inkscape:document-units="px"
     inkscape:current-layer="layer1"
     showgrid="false"
     fit-margin-top="0"
     fit-margin-left="0"
     fit-margin-right="0"
     fit-margin-bottom="0"
     inkscape:window-width="1920"
     inkscape:window-height="1017"
     inkscape:window-x="-8"
     inkscape:window-y="-8"
     inkscape:window-maximized="1" />
  <metadata
     id="metadata34725">
    <rdf:RDF>
      <cc:Work
         rdf:about="">
        <dc:format>image/svg+xml</dc:format>
        <dc:type
           rdf:resource="http://purl.org/dc/dcmitype/StillImage" />
        <dc:title></dc:title>
      </cc:Work>
    </rdf:RDF>
  </metadata>
  <g
     inkscape:label="Layer 1"
     inkscape:groupmode="layer"
     id="layer1"
     transform="translate(1300.7044,145.84736)">
    <g
       id="g162606-9-5-2-7-2"
       transform="matrix(1.25,0,0,-1.25,-799.01761,174.62201)"
       style="fill:#110f0d;fill-opacity:1">
      <path
         d="m 0,0 c 0.864,-1.02 -1.723,-4.091 0.864,-6.816 2.589,-2.732 -1.295,-4.436 -1.727,-6.48 -0.434,-2.047 -2.587,-5.799 -2.587,-9.209 0,-3.407 -0.432,-8.183 -1.727,-12.274 -1.293,-4.092 -4.312,-17.048 -3.446,-21.482 0.861,-4.431 5.605,-10.905 7.326,-13.292 C 0.43,-71.94 6.9,-83.877 7.761,-84.9 c 0.863,-1.023 9.057,-16.706 11.211,-19.432 2.157,-2.732 15.093,-17.393 26.734,-20.798 0,0 9.055,-4.777 11.212,-4.777 2.16,0 11.212,-4.43 14.662,-4.091 0,0 9.055,-2.045 10.349,-2.384 1.293,-0.343 17.677,-2.05 17.677,-2.05 0,0 9.779,-2.16 14.09,-0.453 4.309,1.703 -1.155,-0.228 1.004,0.115 2.16,0.338 3.879,0.677 6.471,1.02 2.585,0.341 5.174,0.684 7.759,1.368 l 13.366,3.066 c 0,0 12.507,3.752 13.799,4.775 1.295,1.019 15.091,4.432 17.251,6.477 2.154,2.048 9.917,4.434 12.071,6.138 2.155,1.703 12.074,7.499 12.505,9.205 0.43,1.707 6.468,5.8 8.625,8.526 2.155,2.727 9.051,11.249 9.051,11.249 0,0 9.057,9.548 9.491,10.913 0.43,1.361 6.47,7.5 7.762,10.908 1.292,3.411 7.763,12.959 7.328,14.322 -0.43,1.365 3.884,6.48 2.591,14.662 -1.294,8.184 -2.156,11.252 -4.746,17.046 -2.587,5.799 -15.523,14.665 -15.523,14.665 l -18.54,8.182 c 0,0 -18.544,5.115 -21.992,6.137 -3.452,1.02 -24.147,3.752 -24.147,3.752 0,0 -17.251,2.386 -21.991,2.727 -4.747,0.342 -21.131,0 -21.131,0 0,0 -13.798,0.342 -20.262,0.342 -6.474,0 -19.411,-0.683 -21.562,-1.026 -2.158,-0.342 -12.508,-1.023 -16.82,-1.023 -4.31,0 -20.268,-2.384 -21.991,-2.384 -1.723,0 -19.406,-4.435 -19.406,-4.435 L 5.604,5.116 0,0 Z"
         style="fill:#110f0d;fill-opacity:1;fill-rule:nonzero;stroke:none"
         id="path162608-0-3-8-0-8"
         inkscape:connector-curvature="0" />
    </g>
    <g
       id="g156206-8-1-1-7-9"
       transform="matrix(1.2829304,0,0,-1.25,-797.18272,158.22664)">
      <path
         d="m 0,0 c 0,0 22.043,43.366 66.388,83.198 44.352,39.828 53.734,48.298 80.39,68.501 26.664,20.198 54.862,32.676 78.376,43.961 23.509,11.285 57.872,14.689 57.872,14.689 0,0 25.769,1.853 39.884,-7.764 14.11,-9.609 15.363,-11.02 22.587,-25.577 7.233,-14.555 4.947,-39.369 0,-50.229 -4.948,-10.851 -6.879,-27.008 -26.239,-50.09 l -19.35,-23.084 c 0,0 -15.716,-16.408 -17.799,-18.371 C 280.027,33.27 264.532,14.342 249.468,9.415 234.41,4.483 218.148,3.499 214.211,3.395 210.275,3.288 198.471,2.903 177.715,3.283 c -20.752,0.381 -37.309,-3.608 -44.951,-5.641 -7.631,-2.029 -31.903,-9.581 -38.931,-11.366 -7.029,-1.787 -21.998,-6.961 -35.734,-7.083 -13.728,-0.113 -26.58,1.754 -30.863,2.312 -4.274,0.56 -18.401,2.503 -24.126,5.021 -5.728,2.517 -4.022,4.767 -5.449,6.537 C -3.769,-5.164 0,0 0,0"
         style="fill:#110f0d;fill-opacity:1;fill-rule:nonzero;stroke:none"
         id="path156208-7-9-9-2-0"
         inkscape:connector-curvature="0" />
    </g>
    <g
       id="g163262-5-9-9-7-0"
       transform="matrix(1.25,0,0,-1.25,-826.73741,484.39501)">
      <path
         d="m 0,0 3.791,3.082 3.791,7.402 1.267,11.718 0,24.668 0,12.955 0,15.417 0,12.951 -0.636,20.969 0,13.571 -1.264,17.271 -1.265,10.484 3.165,8.019 4.42,14.183 5.685,20.97 3.791,16.035 2.526,16.033 0,14.806 -2.181,8.362 -0.976,7.055 -3.16,1.85 -2.525,0.616 -0.634,3.701 3.159,1.236 4.423,3.7 1.894,4.935 0,5.548 -1.26,4.937 -3.157,3.701 -4.425,2.462 -3.16,1.236 -1.896,8.634 -0.63,8.327 -1.894,-2.158 -2.529,-6.169 -1.898,-4.317 -1.261,-3.082 -0.634,-2.471 -4.425,0 L 0,0 Z"
         style="fill:#211d1d;fill-opacity:1;fill-rule:nonzero;stroke:none"
         id="path163264-0-8-2-8-5"
         inkscape:connector-curvature="0" />
    </g>
    <g
       id="g163266-9-6-5-25-8"
       transform="matrix(1.25,0,0,-1.25,-814.10121,103.16688)">
      <path
         d="M 0,0 C 0,0 101.726,132.292 109.308,159.434"
         style="fill:none;stroke:#211d1d;stroke-width:1;stroke-linecap:butt;stroke-linejoin:miter;stroke-miterlimit:10;stroke-dasharray:none;stroke-opacity:1"
         id="path163268-3-1-6-10-1"
         inkscape:connector-curvature="0" />
    </g>
    <g
       id="g163270-2-6-6-9-4"
       transform="matrix(1.25,0,0,-1.25,-655.74861,-144.04561)">
      <path
         d="m 0,0 0.634,-3.082 -1.264,-3.391 -1.58,-2.774 -1.896,-4.014 -2.214,-4.932 -3.473,-6.782 -3.473,-7.095 -3.16,-6.474 -0.948,-1.234 -0.209,1.849 0.841,2.878 2.21,6.068 2.529,7.092 2.21,6.784 1.268,3.392 1.256,4.009 1.585,4.624 1.685,2.054 2.315,1.645 L 0,0 Z"
         style="fill:#211d1d;fill-opacity:1;fill-rule:nonzero;stroke:none"
         id="path163272-4-0-1-7-9"
         inkscape:connector-curvature="0" />
    </g>
    <g
       id="g163274-5-5-4-30-2"
       transform="matrix(1.25,0,0,-1.25,-655.74861,-144.04561)">
      <path
         d="m 0,0 0.634,-3.082 -1.264,-3.391 -1.58,-2.774 -1.896,-4.014 -2.214,-4.932 -3.473,-6.782 -3.473,-7.095 -3.16,-6.474 -0.948,-1.234 -0.209,1.849 0.841,2.878 2.21,6.068 2.529,7.092 2.21,6.784 1.268,3.392 1.256,4.009 1.585,4.624 1.685,2.054 2.315,1.645 L 0,0 Z"
         style="fill:none;stroke:#211d1d;stroke-width:1;stroke-linecap:butt;stroke-linejoin:miter;stroke-miterlimit:10;stroke-dasharray:none;stroke-opacity:1"
         id="path163276-0-4-0-92-2"
         inkscape:connector-curvature="0" />
    </g>
    <g
       id="g347872-9-9-1"
       transform="matrix(1,0,0,1.1593572,-1189.533,1434.7042)">
      <g
         transform="matrix(1.25,0,0,-1.25,405.85647,-1017.1337)"
         id="g165690-6-4-5-2">
        <path
           inkscape:connector-curvature="0"
           id="path165692-2-9-9-2"
           style="fill:#f1ef14;fill-opacity:1;fill-rule:nonzero;stroke:none"
           d="m 0,0 4.423,-9.886 -4.709,1.048 -2.895,-0.873 -5.971,0 -2.535,3.839 -2.893,3.144 0,1.559 -2.581,2.988 1.223,2.465 0,3.509 0.909,2.721 1.82,3.119 1.822,0 3.191,-0.387 1.361,-1.558 1.831,-0.389 1.365,-1.04 0.298,-1.82 L -2.73,6.624 -2.426,5.063 -1.213,2.207 0,0 Z" />
      </g>
      <g
         transform="matrix(1.25,0,0,-1.25,413.55907,-1033.8715)"
         id="g165694-2-3-1-2">
        <path
           inkscape:connector-curvature="0"
           id="path165696-2-5-7-3"
           style="fill:#f1ef14;fill-opacity:1;fill-rule:nonzero;stroke:none"
           d="m 0,0 2.405,-4.522 3.901,-5.779 7.521,-12.191 1.356,0.525 2.173,1.047 1.9,0.783 3.53,0 9.504,2.88 -2.873,5.193 -2.1,5.027 -1.801,4.276 -1.498,3.264 -0.901,2.51 L 22.211,4.522 19.813,3.77 16.215,2.264 14.106,1.007 10.51,-0.25 7.503,-0.25 5.104,0.256 2.405,0.503 0,0 Z" />
      </g>
      <g
         transform="matrix(1.25,0,0,-1.25,401.30787,-1032.6342)"
         id="g165698-8-9-1-8">
        <path
           inkscape:connector-curvature="0"
           id="path165700-7-3-4-9"
           style="fill:#f1ef14;fill-opacity:1;fill-rule:nonzero;stroke:none"
           d="m 0,0 1.003,-3.444 0.725,-2.967 1.809,-3.14 1.628,-3.488 5.068,-9.421 1.99,1.569 1.812,0.175 1.809,0.698 1.266,0 1.81,-0.698 3.261,-0.35 -8.871,14.307 -3.8,6.455 -1.134,1.084 -2.477,0 -2.491,0 L 0,0 Z" />
      </g>
      <g
         transform="matrix(1.25,0,0,-1.25,442.38237,-1041.742)"
         id="g165702-5-8-1-1">
        <path
           inkscape:connector-curvature="0"
           id="path165704-5-2-1-2"
           style="fill:#f1ef14;fill-opacity:1;fill-rule:nonzero;stroke:none"
           d="m 0,0 3.836,-9.476 2.981,-6.342 4.586,-7.474 1.901,2.093 3.258,2.095 c 0,0 2.909,1.83 3.802,1.83 0.893,0 3.8,0.787 3.8,0.787 0,0 3.158,0.523 4.346,0.523 1.188,0 3.53,-0.262 3.53,-0.262 1.79,-0.254 4.073,-1.048 4.073,-1.048 l 4.341,-1.569 -6.544,15.46 -5.955,1.775 -3.568,1.27 L 19.918,0.934 16.562,2.092 13.846,1.831 10.588,1.57 7.058,0.784 4.073,0.784 0,0 Z" />
      </g>
      <g
         transform="matrix(1.25,0,0,-1.25,486.74697,-1038.0725)"
         id="g165706-9-1-2-3">
        <path
           inkscape:connector-curvature="0"
           id="path165708-8-8-4-7"
           style="fill:#f1ef14;fill-opacity:1;fill-rule:nonzero;stroke:none"
           d="m 0,0 5.236,-12.244 2.986,-3.14 4.346,1.045 2.985,1.572 3.802,0.26 3.333,0.896 2.978,0 5.091,-0.11 3.532,2.356 -4.89,4.187 L 23.426,0.316 13.082,1.161 4.167,0.29 0,0 Z" />
      </g>
      <g
         transform="matrix(1.25,0,0,-1.25,484.32197,-1039.5239)"
         id="g165710-2-9-5-5">
        <path
           inkscape:connector-curvature="0"
           id="path165712-1-0-3-0"
           style="fill:#f1ef14;fill-opacity:1;fill-rule:nonzero;stroke:none"
           d="m 0,0 11.465,1.058 4.216,0 7.534,0 1.509,3.698 L 24.122,7.662 18.036,9.887 8.261,9.362 2.289,8.84 -3.958,7.268 -9.658,6.745 -14.275,5.176 -5.724,2.379 -3.32,1.319 0,0 Z" />
      </g>
      <g
         transform="matrix(1.25,0,0,-1.25,516.67277,-1040.5975)"
         id="g165714-6-9-3-8">
        <path
           inkscape:connector-curvature="0"
           id="path165716-3-3-4-1"
           style="fill:#f1ef14;fill-opacity:1;fill-rule:nonzero;stroke:none"
           d="m 0,0 0.301,5.625 -1.632,4.972 7.79,-2.668 4.609,-1.735 4.304,-2.726 2.461,-1.488 2.453,-1.235 2.153,-1.487 0.919,-1.49 5.453,-2.609 -4.345,-1.833 -2.717,-1.571 -3.529,0.523 -2.985,-1.569 -2.989,-0.786 L 4.612,-3.716 0,0 Z" />
      </g>
      <g
         transform="matrix(1.25,0,0,-1.25,520.78137,-1055.1526)"
         id="g165718-3-3-7-4">
        <path
           inkscape:connector-curvature="0"
           id="path165720-0-9-6-5"
           style="fill:#f1ef14;fill-opacity:1;fill-rule:nonzero;stroke:none"
           d="m 0,0 10.965,-5.33 1.863,-1.538 1.854,-1.285 3.096,-2.306 2.784,-0.513 2.166,-1.796 c 0,0 1.828,-1.11 3.067,-1.364 1.237,-0.256 3.8,-2.353 3.8,-2.353 l 3.259,1.044 2.556,1.139 1.544,1.534 2.17,2.052 c 0,0 0.307,0.257 1.544,0.513 1.24,0.257 2.474,0.512 2.474,0.512 l 2.475,0.766 0.93,1.284 0.928,1.542 -9.585,3.588 -7.12,2.048 -4.643,1.027 -3.862,0.222 -4.074,1.309 -3.801,0 -4.345,0 L 5.972,1.57 2.444,1.307 0,0 Z" />
      </g>
      <g
         transform="matrix(1.25,0,0,-1.25,617.45857,-1054.9585)"
         id="g165722-3-7-5-7">
        <path
           inkscape:connector-curvature="0"
           id="path165724-0-9-1-6"
           style="fill:#f1ef14;fill-opacity:1;fill-rule:nonzero;stroke:none"
           d="m 0,0 -2.81,-0.629 -4.6,-0.151 c 0,0 -1.918,-0.373 -5.745,-2.033 -0.93,-0.403 -4.903,-1.354 -4.903,-1.354 l -3.174,-0.447 -3.169,-0.678 -1.73,0 -8.364,2.704 -5.771,1.579 -14.811,4.304 12.219,1.833 7.055,0.261 4.348,0.785 3.531,0.262 2.713,0.524 3.371,-0.33 4.68,0 5.46,-1.17 4.68,-0.779 5.85,-1.951" />
      </g>
    </g>
    <g
       id="g163246-5-8-5-2-3"
       transform="matrix(1.25,0,0,-1.25,-876.75451,7310.0029)"
       style="opacity:0.417;filter:url(#filter5054)">
      <g
         id="g163248-2-5-5-5-8"
         style="" />
      <g
         id="g163254-6-9-6-5-1"
         style="">
        <g
           clip-path="url(#clipPath163250-2-9-6-18-13)"
           id="g163256-6-7-4-1-0"
           style="opacity:0.57000703">
          <g
             transform="translate(62.5488,5708.2119)"
             id="g163258-6-5-0-7-2"
             style="">
            <path
               d="m 0,0 c 0,0 66.815,-29.909 118.469,-19.734 51.651,10.179 116.413,-33.766 118.624,-33.608 2.213,0.148 2.739,2.563 2.739,2.563 l 1.16,3.703 1.367,4.318 0.313,5.342 -0.839,4.628 -1.264,4.884 -1.472,5.701 -2.478,4.32 -3.473,4.625 -4.109,3.548 -3.79,2.772 -2.843,2.471 -7.107,3.082 -6.476,3.237 -5.108,1.75 -9.9,3.184 -8.002,1.955 -5.425,1.745 -10.159,1.337 -8.956,1.336 -4.837,0.619 -4.794,0.565 -4.11,-0.617 -8.526,-2.005 L 128.892,8.793 118.469,6.014 106.777,2.624 96.672,-0.462 82.297,-4.006 71.24,-6.472 57.496,-7.396 40.912,-6.01 26.854,-4.933 18.48,-3.541 11.529,-2.158 7.107,-0.925 3.16,0.617 0.63,1.852 -0.359,0.866"
               style="fill:#bf925c;fill-opacity:1;fill-rule:nonzero;stroke:none"
               id="path163260-0-3-0-4-5"
               inkscape:connector-curvature="0" />
          </g>
        </g>
      </g>
    </g>
    <g
       id="g162606-9-5-2-0-6-6"
       transform="matrix(-1.25,0,0,-1.25,-848.72051,174.29153)"
       style="fill:#110f0d;fill-opacity:1">
      <path
         d="m 0,0 c 0.864,-1.02 -1.723,-4.091 0.864,-6.816 2.589,-2.732 -1.295,-4.436 -1.727,-6.48 -0.434,-2.047 -2.587,-5.799 -2.587,-9.209 0,-3.407 -0.432,-8.183 -1.727,-12.274 -1.293,-4.092 -4.312,-17.048 -3.446,-21.482 0.861,-4.431 5.605,-10.905 7.326,-13.292 C 0.43,-71.94 6.9,-83.877 7.761,-84.9 c 0.863,-1.023 9.057,-16.706 11.211,-19.432 2.157,-2.732 15.093,-17.393 26.734,-20.798 0,0 9.055,-4.777 11.212,-4.777 2.16,0 11.212,-4.43 14.662,-4.091 0,0 9.055,-2.045 10.349,-2.384 1.293,-0.343 17.677,-2.05 17.677,-2.05 0,0 9.779,-2.16 14.09,-0.453 4.309,1.703 -1.155,-0.228 1.004,0.115 2.16,0.338 3.879,0.677 6.471,1.02 2.585,0.341 5.174,0.684 7.759,1.368 l 13.366,3.066 c 0,0 12.507,3.752 13.799,4.775 1.295,1.019 15.091,4.432 17.251,6.477 2.154,2.048 9.917,4.434 12.071,6.138 2.155,1.703 12.074,7.499 12.505,9.205 0.43,1.707 6.468,5.8 8.625,8.526 2.155,2.727 9.051,11.249 9.051,11.249 0,0 9.057,9.548 9.491,10.913 0.43,1.361 6.47,7.5 7.762,10.908 1.292,3.411 7.763,12.959 7.328,14.322 -0.43,1.365 3.884,6.48 2.591,14.662 -1.294,8.184 -2.156,11.252 -4.746,17.046 -2.587,5.799 -15.523,14.665 -15.523,14.665 l -18.54,8.182 c 0,0 -18.544,5.115 -21.992,6.137 -3.452,1.02 -24.147,3.752 -24.147,3.752 0,0 -17.251,2.386 -21.991,2.727 -4.747,0.342 -21.131,0 -21.131,0 0,0 -13.798,0.342 -20.262,0.342 -6.474,0 -19.411,-0.683 -21.562,-1.026 -2.158,-0.342 -12.508,-1.023 -16.82,-1.023 -4.31,0 -20.268,-2.384 -21.991,-2.384 -1.723,0 -19.406,-4.435 -19.406,-4.435 L 5.604,5.116 0,0 Z"
         style="fill:#110f0d;fill-opacity:1;fill-rule:nonzero;stroke:none"
         id="path162608-0-3-8-2-9-5"
         inkscape:connector-curvature="0" />
    </g>
    <g
       id="g156206-8-1-1-6-5-8"
       transform="matrix(-1.2900892,0,0,-1.25,-849.03892,157.89616)">
      <path
         d="m 0,0 c 0,0 22.043,43.366 66.388,83.198 44.352,39.828 53.734,48.298 80.39,68.501 26.664,20.198 54.862,32.676 78.376,43.961 23.509,11.285 57.872,14.689 57.872,14.689 0,0 25.769,1.853 39.884,-7.764 14.11,-9.609 15.363,-11.02 22.587,-25.577 7.233,-14.555 4.947,-39.369 0,-50.229 -4.948,-10.851 -6.879,-27.008 -26.239,-50.09 l -19.35,-23.084 c 0,0 -15.716,-16.408 -17.799,-18.371 C 280.027,33.27 264.532,14.342 249.468,9.415 234.41,4.483 218.148,3.499 214.211,3.395 210.275,3.288 198.471,2.903 177.715,3.283 c -20.752,0.381 -37.309,-3.608 -44.951,-5.641 -7.631,-2.029 -31.903,-9.581 -38.931,-11.366 -7.029,-1.787 -21.998,-6.961 -35.734,-7.083 -13.728,-0.113 -26.58,1.754 -30.863,2.312 -4.274,0.56 -18.401,2.503 -24.126,5.021 -5.728,2.517 -4.022,4.767 -5.449,6.537 C -3.769,-5.164 0,0 0,0"
         style="fill:#110f0d;fill-opacity:1;fill-rule:nonzero;stroke:none"
         id="path156208-7-9-9-0-6-7"
         inkscape:connector-curvature="0" />
    </g>
    <g
       id="g163262-5-9-9-9-9-7"
       transform="matrix(-1.25,0,0,-1.25,-821.00071,484.06453)">
      <path
         d="m 0,0 3.791,3.082 3.791,7.402 1.267,11.718 0,24.668 0,12.955 0,15.417 0,12.951 -0.636,20.969 0,13.571 -1.264,17.271 -1.265,10.484 3.165,8.019 4.42,14.183 5.685,20.97 3.791,16.035 2.526,16.033 0,14.806 -2.181,8.362 -0.976,7.055 -3.16,1.85 -2.525,0.616 -0.634,3.701 3.159,1.236 4.423,3.7 1.894,4.935 0,5.548 -1.26,4.937 -3.157,3.701 -4.425,2.462 -3.16,1.236 -1.896,8.634 -0.63,8.327 -1.894,-2.158 -2.529,-6.169 -1.898,-4.317 -1.261,-3.082 -0.634,-2.471 -4.425,0 L 0,0 Z"
         style="fill:#211d1d;fill-opacity:1;fill-rule:nonzero;stroke:none"
         id="path163264-0-8-2-2-30-8"
         inkscape:connector-curvature="0" />
    </g>
    <g
       id="g163266-9-6-5-2-3-8"
       transform="matrix(-1.25,0,0,-1.25,-833.63691,102.8364)">
      <path
         d="M 0,0 C 0,0 101.726,132.292 109.308,159.434"
         style="fill:none;stroke:#211d1d;stroke-width:1;stroke-linecap:butt;stroke-linejoin:miter;stroke-miterlimit:10;stroke-dasharray:none;stroke-opacity:1"
         id="path163268-3-1-6-3-8-4"
         inkscape:connector-curvature="0" />
    </g>
    <g
       id="g163270-2-6-6-7-7-3"
       transform="matrix(-1.25,0,0,-1.25,-991.98951,-144.37609)">
      <path
         d="m 0,0 0.634,-3.082 -1.264,-3.391 -1.58,-2.774 -1.896,-4.014 -2.214,-4.932 -3.473,-6.782 -3.473,-7.095 -3.16,-6.474 -0.948,-1.234 -0.209,1.849 0.841,2.878 2.21,6.068 2.529,7.092 2.21,6.784 1.268,3.392 1.256,4.009 1.585,4.624 1.685,2.054 2.315,1.645 L 0,0 Z"
         style="fill:#211d1d;fill-opacity:1;fill-rule:nonzero;stroke:none"
         id="path163272-4-0-1-2-70-1"
         inkscape:connector-curvature="0" />
    </g>
    <g
       id="g163274-5-5-4-3-2-9"
       transform="matrix(-1.25,0,0,-1.25,-991.98951,-144.37609)">
      <path
         d="m 0,0 0.634,-3.082 -1.264,-3.391 -1.58,-2.774 -1.896,-4.014 -2.214,-4.932 -3.473,-6.782 -3.473,-7.095 -3.16,-6.474 -0.948,-1.234 -0.209,1.849 0.841,2.878 2.21,6.068 2.529,7.092 2.21,6.784 1.268,3.392 1.256,4.009 1.585,4.624 1.685,2.054 2.315,1.645 L 0,0 Z"
         style="fill:none;stroke:#211d1d;stroke-width:1;stroke-linecap:butt;stroke-linejoin:miter;stroke-miterlimit:10;stroke-dasharray:none;stroke-opacity:1"
         id="path163276-0-4-0-9-45-8"
         inkscape:connector-curvature="0" />
    </g>
    <g
       id="g347872-9-1-7-7"
       transform="matrix(-1,0,0,1.1593572,-458.20511,1433.7916)">
      <g
         transform="matrix(1.25,0,0,-1.25,405.85647,-1017.1337)"
         id="g165690-6-4-0-2-56">
        <path
           inkscape:connector-curvature="0"
           id="path165692-2-9-7-5-47"
           style="fill:#f1ef14;fill-opacity:1;fill-rule:nonzero;stroke:none"
           d="m 0,0 4.423,-9.886 -4.709,1.048 -2.895,-0.873 -5.971,0 -2.535,3.839 -2.893,3.144 0,1.559 -2.581,2.988 1.223,2.465 0,3.509 0.909,2.721 1.82,3.119 1.822,0 3.191,-0.387 1.361,-1.558 1.831,-0.389 1.365,-1.04 0.298,-1.82 L -2.73,6.624 -2.426,5.063 -1.213,2.207 0,0 Z" />
      </g>
      <g
         transform="matrix(1.25,0,0,-1.25,413.55907,-1033.8715)"
         id="g165694-2-3-8-1-4">
        <path
           inkscape:connector-curvature="0"
           id="path165696-2-5-6-0-6"
           style="fill:#f1ef14;fill-opacity:1;fill-rule:nonzero;stroke:none"
           d="m 0,0 2.405,-4.522 3.901,-5.779 7.521,-12.191 1.356,0.525 2.173,1.047 1.9,0.783 3.53,0 9.504,2.88 -2.873,5.193 -2.1,5.027 -1.801,4.276 -1.498,3.264 -0.901,2.51 L 22.211,4.522 19.813,3.77 16.215,2.264 14.106,1.007 10.51,-0.25 7.503,-0.25 5.104,0.256 2.405,0.503 0,0 Z" />
      </g>
      <g
         transform="matrix(1.25,0,0,-1.25,401.30787,-1032.6342)"
         id="g165698-8-9-6-6-2">
        <path
           inkscape:connector-curvature="0"
           id="path165700-7-3-1-0-2"
           style="fill:#f1ef14;fill-opacity:1;fill-rule:nonzero;stroke:none"
           d="m 0,0 1.003,-3.444 0.725,-2.967 1.809,-3.14 1.628,-3.488 5.068,-9.421 1.99,1.569 1.812,0.175 1.809,0.698 1.266,0 1.81,-0.698 3.261,-0.35 -8.871,14.307 -3.8,6.455 -1.134,1.084 -2.477,0 -2.491,0 L 0,0 Z" />
      </g>
      <g
         transform="matrix(1.25,0,0,-1.25,442.38237,-1041.742)"
         id="g165702-5-8-9-2-0">
        <path
           inkscape:connector-curvature="0"
           id="path165704-5-2-2-4-0"
           style="fill:#f1ef14;fill-opacity:1;fill-rule:nonzero;stroke:none"
           d="m 0,0 3.836,-9.476 2.981,-6.342 4.586,-7.474 1.901,2.093 3.258,2.095 c 0,0 2.909,1.83 3.802,1.83 0.893,0 3.8,0.787 3.8,0.787 0,0 3.158,0.523 4.346,0.523 1.188,0 3.53,-0.262 3.53,-0.262 1.79,-0.254 4.073,-1.048 4.073,-1.048 l 4.341,-1.569 -6.544,15.46 -5.955,1.775 -3.568,1.27 L 19.918,0.934 16.562,2.092 13.846,1.831 10.588,1.57 7.058,0.784 4.073,0.784 0,0 Z" />
      </g>
      <g
         transform="matrix(1.25,0,0,-1.25,486.74697,-1038.0725)"
         id="g165706-9-1-3-0-0">
        <path
           inkscape:connector-curvature="0"
           id="path165708-8-8-5-2-3"
           style="fill:#f1ef14;fill-opacity:1;fill-rule:nonzero;stroke:none"
           d="m 0,0 5.236,-12.244 2.986,-3.14 4.346,1.045 2.985,1.572 3.802,0.26 3.333,0.896 2.978,0 5.091,-0.11 3.532,2.356 -4.89,4.187 L 23.426,0.316 13.082,1.161 4.167,0.29 0,0 Z" />
      </g>
      <g
         transform="matrix(1.25,0,0,-1.25,484.32197,-1039.5239)"
         id="g165710-2-9-0-0-29">
        <path
           inkscape:connector-curvature="0"
           id="path165712-1-0-8-4-5"
           style="fill:#f1ef14;fill-opacity:1;fill-rule:nonzero;stroke:none"
           d="m 0,0 11.465,1.058 4.216,0 7.534,0 1.509,3.698 L 24.122,7.662 18.036,9.887 8.261,9.362 2.289,8.84 -3.958,7.268 -9.658,6.745 -14.275,5.176 -5.724,2.379 -3.32,1.319 0,0 Z" />
      </g>
      <g
         transform="matrix(1.25,0,0,-1.25,516.67277,-1040.5975)"
         id="g165714-6-9-4-0-0">
        <path
           inkscape:connector-curvature="0"
           id="path165716-3-3-0-6-5"
           style="fill:#f1ef14;fill-opacity:1;fill-rule:nonzero;stroke:none"
           d="m 0,0 0.301,5.625 -1.632,4.972 7.79,-2.668 4.609,-1.735 4.304,-2.726 2.461,-1.488 2.453,-1.235 2.153,-1.487 0.919,-1.49 5.453,-2.609 -4.345,-1.833 -2.717,-1.571 -3.529,0.523 -2.985,-1.569 -2.989,-0.786 L 4.612,-3.716 0,0 Z" />
      </g>
      <g
         transform="matrix(1.25,0,0,-1.25,520.78137,-1055.1526)"
         id="g165718-3-3-4-1-9">
        <path
           inkscape:connector-curvature="0"
           id="path165720-0-9-1-3-9"
           style="fill:#f1ef14;fill-opacity:1;fill-rule:nonzero;stroke:none"
           d="m 0,0 10.965,-5.33 1.863,-1.538 1.854,-1.285 3.096,-2.306 2.784,-0.513 2.166,-1.796 c 0,0 1.828,-1.11 3.067,-1.364 1.237,-0.256 3.8,-2.353 3.8,-2.353 l 3.259,1.044 2.556,1.139 1.544,1.534 2.17,2.052 c 0,0 0.307,0.257 1.544,0.513 1.24,0.257 2.474,0.512 2.474,0.512 l 2.475,0.766 0.93,1.284 0.928,1.542 -9.585,3.588 -7.12,2.048 -4.643,1.027 -3.862,0.222 -4.074,1.309 -3.801,0 -4.345,0 L 5.972,1.57 2.444,1.307 0,0 Z" />
      </g>
      <g
         transform="matrix(1.25,0,0,-1.25,617.45857,-1054.9585)"
         id="g165722-3-7-7-2-4">
        <path
           inkscape:connector-curvature="0"
           id="path165724-0-9-7-0-8"
           style="fill:#f1ef14;fill-opacity:1;fill-rule:nonzero;stroke:none"
           d="m 0,0 -2.81,-0.629 -4.6,-0.151 c 0,0 -1.918,-0.373 -5.745,-2.033 -0.93,-0.403 -4.903,-1.354 -4.903,-1.354 l -3.174,-0.447 -3.169,-0.678 -1.73,0 -8.364,2.704 -5.771,1.579 -14.811,4.304 12.219,1.833 7.055,0.261 4.348,0.785 3.531,0.262 2.713,0.524 3.371,-0.33 4.68,0 5.46,-1.17 4.68,-0.779 5.85,-1.951" />
      </g>
    </g>
    <g
       id="g163246-5-8-5-2-3-1"
       transform="matrix(-1.25,0,0,-1.25,-771.07278,7309.5714)"
       style="opacity:0.417;filter:url(#filter5050)">
      <g
         id="g163248-2-5-5-5-8-5"
         style="" />
      <g
         id="g163254-6-9-6-5-1-6"
         style="">
        <g
           clip-path="url(#clipPath163250-2-9-6-18-13-9)"
           id="g163256-6-7-4-1-0-4"
           style="opacity:0.57000703">
          <g
             transform="translate(62.5488,5708.2119)"
             id="g163258-6-5-0-7-2-9"
             style="">
            <path
               d="m 0,0 c 0,0 66.815,-29.909 118.469,-19.734 51.651,10.179 116.413,-33.766 118.624,-33.608 2.213,0.148 2.739,2.563 2.739,2.563 l 1.16,3.703 1.367,4.318 0.313,5.342 -0.839,4.628 -1.264,4.884 -1.472,5.701 -2.478,4.32 -3.473,4.625 -4.109,3.548 -3.79,2.772 -2.843,2.471 -7.107,3.082 -6.476,3.237 -5.108,1.75 -9.9,3.184 -8.002,1.955 -5.425,1.745 -10.159,1.337 -8.956,1.336 -4.837,0.619 -4.794,0.565 -4.11,-0.617 -8.526,-2.005 L 128.892,8.793 118.469,6.014 106.777,2.624 96.672,-0.462 82.297,-4.006 71.24,-6.472 57.496,-7.396 40.912,-6.01 26.854,-4.933 18.48,-3.541 11.529,-2.158 7.107,-0.925 3.16,0.617 0.63,1.852 -0.359,0.866"
               style="fill:#bf925c;fill-opacity:1;fill-rule:nonzero;stroke:none"
               id="path163260-0-3-0-4-5-0"
               inkscape:connector-curvature="0" />
          </g>
        </g>
      </g>
    </g>
  </g>
</svg>
