<?xml version="1.0" encoding="UTF-8" standalone="no"?>
<!-- Created with Inkscape (http://www.inkscape.org/) -->

<svg
   xmlns:dc="http://purl.org/dc/elements/1.1/"
   xmlns:cc="http://creativecommons.org/ns#"
   xmlns:rdf="http://www.w3.org/1999/02/22-rdf-syntax-ns#"
   xmlns:svg="http://www.w3.org/2000/svg"
   xmlns="http://www.w3.org/2000/svg"
   xmlns:sodipodi="http://sodipodi.sourceforge.net/DTD/sodipodi-0.dtd"
   xmlns:inkscape="http://www.inkscape.org/namespaces/inkscape"
   width="268.86768mm"
   height="177.86841mm"
   viewBox="0 0 952.68074 630.24239"
   id="svg34720"
   version="1.1"
   inkscape:version="0.91 r13725"
   sodipodi:docname="H_m_melpomene.svg"
   inkscape:export-filename="C:\Users\StevenVB\Dropbox (Cambridge University)\Heliconius\Pictures\cartoons\H_m_rosina_simple_half.png"
   inkscape:export-xdpi="1000"
   inkscape:export-ydpi="1000">
  <defs
     id="defs34722">
    <clipPath
       id="clipPath157182-1-7-91"
       clipPathUnits="userSpaceOnUse">
      <path
         inkscape:connector-curvature="0"
         id="path157184-3-0-4"
         d="m 57.2446,6174.23 241.6054,0 0,-67.34 -241.6054,0 0,67.34 z" />
    </clipPath>
    <clipPath
       id="clipPath157182-1-7-2-68"
       clipPathUnits="userSpaceOnUse">
      <path
         inkscape:connector-curvature="0"
         id="path157184-3-0-1-41"
         d="m 57.2446,6174.23 241.6054,0 0,-67.34 -241.6054,0 0,67.34 z" />
    </clipPath>
    <clipPath
       id="clipPath156194-8-7-6"
       clipPathUnits="userSpaceOnUse">
      <path
         inkscape:connector-curvature="0"
         id="path156196-6-5-8"
         d="m 54.7373,6624.2 241.6037,0 0,-67.35 -241.6037,0 0,67.35 z" />
    </clipPath>
    <clipPath
       id="clipPath156194-8-6-0"
       clipPathUnits="userSpaceOnUse">
      <path
         inkscape:connector-curvature="0"
         id="path156196-6-3-5"
         d="m 54.7373,6624.2 241.6037,0 0,-67.35 -241.6037,0 0,67.35 z" />
    </clipPath>
    <clipPath
       id="clipPath163250-2-9-6-18-13"
       clipPathUnits="userSpaceOnUse">
      <path
         inkscape:connector-curvature="0"
         id="path163252-8-9-8-41-2"
         d="m 62.1895,5722.56 243.0315,0 0,-67.69 -243.0315,0 0,67.69 z" />
    </clipPath>
    <clipPath
       id="clipPath163250-2-9-6-1-2-1"
       clipPathUnits="userSpaceOnUse">
      <path
         inkscape:connector-curvature="0"
         id="path163252-8-9-8-6-4-6"
         d="m 62.1895,5722.56 243.0315,0 0,-67.69 -243.0315,0 0,67.69 z" />
    </clipPath>
    <clipPath
       id="clipPath163250-2-9-6-18-13-9"
       clipPathUnits="userSpaceOnUse">
      <path
         inkscape:connector-curvature="0"
         id="path163252-8-9-8-41-2-1"
         d="m 62.1895,5722.56 243.0315,0 0,-67.69 -243.0315,0 0,67.69 z" />
    </clipPath>
    <filter
       inkscape:collect="always"
       style="color-interpolation-filters:sRGB"
       id="filter5050"
       x="-0.038123773"
       width="1.0762475"
       y="-0.13688706"
       height="1.2737741">
      <feGaussianBlur
         inkscape:collect="always"
         stdDeviation="3.8605245"
         id="feGaussianBlur5052" />
    </filter>
    <filter
       inkscape:collect="always"
       style="color-interpolation-filters:sRGB"
       id="filter5054"
       x="-0.038123773"
       width="1.0762475"
       y="-0.13688706"
       height="1.2737741">
      <feGaussianBlur
         inkscape:collect="always"
         stdDeviation="3.8605245"
         id="feGaussianBlur5056" />
    </filter>
  </defs>
  <sodipodi:namedview
     id="base"
     pagecolor="#ffffff"
     bordercolor="#666666"
     borderopacity="1.0"
     inkscape:pageopacity="0.0"
     inkscape:pageshadow="2"
     inkscape:zoom="0.9899495"
     inkscape:cx="249.16422"
     inkscape:cy="313.86252"
     inkscape:document-units="px"
     inkscape:current-layer="layer1"
     showgrid="false"
     fit-margin-top="0"
     fit-margin-left="0"
     fit-margin-right="0"
     fit-margin-bottom="0"
     inkscape:window-width="1920"
     inkscape:window-height="1017"
     inkscape:window-x="-8"
     inkscape:window-y="-8"
     inkscape:window-maximized="1" />
  <metadata
     id="metadata34725">
    <rdf:RDF>
      <cc:Work
         rdf:about="">
        <dc:format>image/svg+xml</dc:format>
        <dc:type
           rdf:resource="http://purl.org/dc/dcmitype/StillImage" />
        <dc:title></dc:title>
      </cc:Work>
    </rdf:RDF>
  </metadata>
  <g
     inkscape:label="Layer 1"
     inkscape:groupmode="layer"
     id="layer1"
     transform="translate(1300.7044,145.84736)">
    <g
       id="g162606-9-5-2-7-2"
       transform="matrix(1.25,0,0,-1.25,-799.01761,174.62201)"
       style="fill:#110f0d;fill-opacity:1">
      <path
         d="m 0,0 c 0.864,-1.02 -1.723,-4.091 0.864,-6.816 2.589,-2.732 -1.295,-4.436 -1.727,-6.48 -0.434,-2.047 -2.587,-5.799 -2.587,-9.209 0,-3.407 -0.432,-8.183 -1.727,-12.274 -1.293,-4.092 -4.312,-17.048 -3.446,-21.482 0.861,-4.431 5.605,-10.905 7.326,-13.292 C 0.43,-71.94 6.9,-83.877 7.761,-84.9 c 0.863,-1.023 9.057,-16.706 11.211,-19.432 2.157,-2.732 15.093,-17.393 26.734,-20.798 0,0 9.055,-4.777 11.212,-4.777 2.16,0 11.212,-4.43 14.662,-4.091 0,0 9.055,-2.045 10.349,-2.384 1.293,-0.343 17.677,-2.05 17.677,-2.05 0,0 9.779,-2.16 14.09,-0.453 4.309,1.703 -1.155,-0.228 1.004,0.115 2.16,0.338 3.879,0.677 6.471,1.02 2.585,0.341 5.174,0.684 7.759,1.368 l 13.366,3.066 c 0,0 12.507,3.752 13.799,4.775 1.295,1.019 15.091,4.432 17.251,6.477 2.154,2.048 9.917,4.434 12.071,6.138 2.155,1.703 12.074,7.499 12.505,9.205 0.43,1.707 6.468,5.8 8.625,8.526 2.155,2.727 9.051,11.249 9.051,11.249 0,0 9.057,9.548 9.491,10.913 0.43,1.361 6.47,7.5 7.762,10.908 1.292,3.411 7.763,12.959 7.328,14.322 -0.43,1.365 3.884,6.48 2.591,14.662 -1.294,8.184 -2.156,11.252 -4.746,17.046 -2.587,5.799 -15.523,14.665 -15.523,14.665 l -18.54,8.182 c 0,0 -18.544,5.115 -21.992,6.137 -3.452,1.02 -24.147,3.752 -24.147,3.752 0,0 -17.251,2.386 -21.991,2.727 -4.747,0.342 -21.131,0 -21.131,0 0,0 -13.798,0.342 -20.262,0.342 -6.474,0 -19.411,-0.683 -21.562,-1.026 -2.158,-0.342 -12.508,-1.023 -16.82,-1.023 -4.31,0 -20.268,-2.384 -21.991,-2.384 -1.723,0 -19.406,-4.435 -19.406,-4.435 L 5.604,5.116 0,0 Z"
         style="fill:#110f0d;fill-opacity:1;fill-rule:nonzero;stroke:none"
         id="path162608-0-3-8-0-8"
         inkscape:connector-curvature="0" />
    </g>
    <g
       id="g156206-8-1-1-7-9"
       transform="matrix(1.2829304,0,0,-1.25,-797.18272,158.22664)">
      <path
         d="m 0,0 c 0,0 22.043,43.366 66.388,83.198 44.352,39.828 53.734,48.298 80.39,68.501 26.664,20.198 54.862,32.676 78.376,43.961 23.509,11.285 57.872,14.689 57.872,14.689 0,0 25.769,1.853 39.884,-7.764 14.11,-9.609 15.363,-11.02 22.587,-25.577 7.233,-14.555 4.947,-39.369 0,-50.229 -4.948,-10.851 -6.879,-27.008 -26.239,-50.09 l -19.35,-23.084 c 0,0 -15.716,-16.408 -17.799,-18.371 C 280.027,33.27 264.532,14.342 249.468,9.415 234.41,4.483 218.148,3.499 214.211,3.395 210.275,3.288 198.471,2.903 177.715,3.283 c -20.752,0.381 -37.309,-3.608 -44.951,-5.641 -7.631,-2.029 -31.903,-9.581 -38.931,-11.366 -7.029,-1.787 -21.998,-6.961 -35.734,-7.083 -13.728,-0.113 -26.58,1.754 -30.863,2.312 -4.274,0.56 -18.401,2.503 -24.126,5.021 -5.728,2.517 -4.022,4.767 -5.449,6.537 C -3.769,-5.164 0,0 0,0"
         style="fill:#110f0d;fill-opacity:1;fill-rule:nonzero;stroke:none"
         id="path156208-7-9-9-2-0"
         inkscape:connector-curvature="0" />
    </g>
    <g
       id="g163214-5-1-7-04-2"
       transform="matrix(1.25,0,0,-1.25,-655.66011,28.85726)">
      <path
         d="m 0,0 0.813,-4.162 0,-2.573 4.694,0 0,-4.12 13.56,-6.698 7.3,-4.119 2.606,-4.639 5.739,0 5.738,-5.15 0,-8.757 2.605,-2.578 5.845,0 4.449,-9.066 14.807,-1.568 7.839,-3.658 4.181,-8.362 -0.16,-6.451 8.934,-1.286 4.558,-3.544 10.038,-2.123 4.237,-2.708 7.234,-2.444 6.748,-1.701 8.362,-1.045 -3.962,6.319 -2.09,5.576 1.393,5.574 6.968,1.394 9.059,-0.696 7.664,0.696 4.181,2.786 2.09,4.182 -2.308,7.093 -3.136,9.93 -4.703,8.361 -7.273,10.153 3.092,2.913 -3.136,2.612 -4.703,4.181 -2.613,4.181 2.613,5.226 -4.181,9.93 -11.497,2.089 -7.316,2.614 -7.317,1.567 -7.839,0.524 -3.135,3.658 -4.182,4.702 -5.748,2.091 -10.234,1.093 -3.876,2.042 -3.789,2.14 -4.181,5.574 -5.574,7.665 -4.18,2.091 L 36.582,36.06 30.006,33.146 21.645,26.179 12.587,17.121 12.542,9.929 0,0 Z"
         style="fill:#ec1d27;fill-opacity:1;fill-rule:nonzero;stroke:none"
         id="path163216-7-2-2-4-8"
         inkscape:connector-curvature="0" />
    </g>
    <g
       id="g163262-5-9-9-7-0"
       transform="matrix(1.25,0,0,-1.25,-826.73741,484.39501)">
      <path
         d="m 0,0 3.791,3.082 3.791,7.402 1.267,11.718 0,24.668 0,12.955 0,15.417 0,12.951 -0.636,20.969 0,13.571 -1.264,17.271 -1.265,10.484 3.165,8.019 4.42,14.183 5.685,20.97 3.791,16.035 2.526,16.033 0,14.806 -2.181,8.362 -0.976,7.055 -3.16,1.85 -2.525,0.616 -0.634,3.701 3.159,1.236 4.423,3.7 1.894,4.935 0,5.548 -1.26,4.937 -3.157,3.701 -4.425,2.462 -3.16,1.236 -1.896,8.634 -0.63,8.327 -1.894,-2.158 -2.529,-6.169 -1.898,-4.317 -1.261,-3.082 -0.634,-2.471 -4.425,0 L 0,0 Z"
         style="fill:#211d1d;fill-opacity:1;fill-rule:nonzero;stroke:none"
         id="path163264-0-8-2-8-5"
         inkscape:connector-curvature="0" />
    </g>
    <g
       id="g163266-9-6-5-25-8"
       transform="matrix(1.25,0,0,-1.25,-814.10121,103.16688)">
      <path
         d="M 0,0 C 0,0 101.726,132.292 109.308,159.434"
         style="fill:none;stroke:#211d1d;stroke-width:1;stroke-linecap:butt;stroke-linejoin:miter;stroke-miterlimit:10;stroke-dasharray:none;stroke-opacity:1"
         id="path163268-3-1-6-10-1"
         inkscape:connector-curvature="0" />
    </g>
    <g
       id="g163270-2-6-6-9-4"
       transform="matrix(1.25,0,0,-1.25,-655.74861,-144.04561)">
      <path
         d="m 0,0 0.634,-3.082 -1.264,-3.391 -1.58,-2.774 -1.896,-4.014 -2.214,-4.932 -3.473,-6.782 -3.473,-7.095 -3.16,-6.474 -0.948,-1.234 -0.209,1.849 0.841,2.878 2.21,6.068 2.529,7.092 2.21,6.784 1.268,3.392 1.256,4.009 1.585,4.624 1.685,2.054 2.315,1.645 L 0,0 Z"
         style="fill:#211d1d;fill-opacity:1;fill-rule:nonzero;stroke:none"
         id="path163272-4-0-1-7-9"
         inkscape:connector-curvature="0" />
    </g>
    <g
       id="g163274-5-5-4-30-2"
       transform="matrix(1.25,0,0,-1.25,-655.74861,-144.04561)">
      <path
         d="m 0,0 0.634,-3.082 -1.264,-3.391 -1.58,-2.774 -1.896,-4.014 -2.214,-4.932 -3.473,-6.782 -3.473,-7.095 -3.16,-6.474 -0.948,-1.234 -0.209,1.849 0.841,2.878 2.21,6.068 2.529,7.092 2.21,6.784 1.268,3.392 1.256,4.009 1.585,4.624 1.685,2.054 2.315,1.645 L 0,0 Z"
         style="fill:none;stroke:#211d1d;stroke-width:1;stroke-linecap:butt;stroke-linejoin:miter;stroke-miterlimit:10;stroke-dasharray:none;stroke-opacity:1"
         id="path163276-0-4-0-92-2"
         inkscape:connector-curvature="0" />
    </g>
    <g
       id="g163246-5-8-5-2-3"
       transform="matrix(1.25,0,0,-1.25,-876.75451,7310.0029)"
       style="opacity:0.417;filter:url(#filter5054)">
      <g
         id="g163248-2-5-5-5-8"
         style="" />
      <g
         id="g163254-6-9-6-5-1"
         style="">
        <g
           clip-path="url(#clipPath163250-2-9-6-18-13)"
           id="g163256-6-7-4-1-0"
           style="opacity:0.57000703">
          <g
             transform="translate(62.5488,5708.2119)"
             id="g163258-6-5-0-7-2"
             style="">
            <path
               d="m 0,0 c 0,0 66.815,-29.909 118.469,-19.734 51.651,10.179 116.413,-33.766 118.624,-33.608 2.213,0.148 2.739,2.563 2.739,2.563 l 1.16,3.703 1.367,4.318 0.313,5.342 -0.839,4.628 -1.264,4.884 -1.472,5.701 -2.478,4.32 -3.473,4.625 -4.109,3.548 -3.79,2.772 -2.843,2.471 -7.107,3.082 -6.476,3.237 -5.108,1.75 -9.9,3.184 -8.002,1.955 -5.425,1.745 -10.159,1.337 -8.956,1.336 -4.837,0.619 -4.794,0.565 -4.11,-0.617 -8.526,-2.005 L 128.892,8.793 118.469,6.014 106.777,2.624 96.672,-0.462 82.297,-4.006 71.24,-6.472 57.496,-7.396 40.912,-6.01 26.854,-4.933 18.48,-3.541 11.529,-2.158 7.107,-0.925 3.16,0.617 0.63,1.852 -0.359,0.866"
               style="fill:#bf925c;fill-opacity:1;fill-rule:nonzero;stroke:none"
               id="path163260-0-3-0-4-5"
               inkscape:connector-curvature="0" />
          </g>
        </g>
      </g>
    </g>
    <g
       id="g162606-9-5-2-0-6-6"
       transform="matrix(-1.25,0,0,-1.25,-848.72051,174.29153)"
       style="fill:#110f0d;fill-opacity:1">
      <path
         d="m 0,0 c 0.864,-1.02 -1.723,-4.091 0.864,-6.816 2.589,-2.732 -1.295,-4.436 -1.727,-6.48 -0.434,-2.047 -2.587,-5.799 -2.587,-9.209 0,-3.407 -0.432,-8.183 -1.727,-12.274 -1.293,-4.092 -4.312,-17.048 -3.446,-21.482 0.861,-4.431 5.605,-10.905 7.326,-13.292 C 0.43,-71.94 6.9,-83.877 7.761,-84.9 c 0.863,-1.023 9.057,-16.706 11.211,-19.432 2.157,-2.732 15.093,-17.393 26.734,-20.798 0,0 9.055,-4.777 11.212,-4.777 2.16,0 11.212,-4.43 14.662,-4.091 0,0 9.055,-2.045 10.349,-2.384 1.293,-0.343 17.677,-2.05 17.677,-2.05 0,0 9.779,-2.16 14.09,-0.453 4.309,1.703 -1.155,-0.228 1.004,0.115 2.16,0.338 3.879,0.677 6.471,1.02 2.585,0.341 5.174,0.684 7.759,1.368 l 13.366,3.066 c 0,0 12.507,3.752 13.799,4.775 1.295,1.019 15.091,4.432 17.251,6.477 2.154,2.048 9.917,4.434 12.071,6.138 2.155,1.703 12.074,7.499 12.505,9.205 0.43,1.707 6.468,5.8 8.625,8.526 2.155,2.727 9.051,11.249 9.051,11.249 0,0 9.057,9.548 9.491,10.913 0.43,1.361 6.47,7.5 7.762,10.908 1.292,3.411 7.763,12.959 7.328,14.322 -0.43,1.365 3.884,6.48 2.591,14.662 -1.294,8.184 -2.156,11.252 -4.746,17.046 -2.587,5.799 -15.523,14.665 -15.523,14.665 l -18.54,8.182 c 0,0 -18.544,5.115 -21.992,6.137 -3.452,1.02 -24.147,3.752 -24.147,3.752 0,0 -17.251,2.386 -21.991,2.727 -4.747,0.342 -21.131,0 -21.131,0 0,0 -13.798,0.342 -20.262,0.342 -6.474,0 -19.411,-0.683 -21.562,-1.026 -2.158,-0.342 -12.508,-1.023 -16.82,-1.023 -4.31,0 -20.268,-2.384 -21.991,-2.384 -1.723,0 -19.406,-4.435 -19.406,-4.435 L 5.604,5.116 0,0 Z"
         style="fill:#110f0d;fill-opacity:1;fill-rule:nonzero;stroke:none"
         id="path162608-0-3-8-2-9-5"
         inkscape:connector-curvature="0" />
    </g>
    <g
       id="g156206-8-1-1-6-5-8"
       transform="matrix(-1.2900892,0,0,-1.25,-849.03892,157.89616)">
      <path
         d="m 0,0 c 0,0 22.043,43.366 66.388,83.198 44.352,39.828 53.734,48.298 80.39,68.501 26.664,20.198 54.862,32.676 78.376,43.961 23.509,11.285 57.872,14.689 57.872,14.689 0,0 25.769,1.853 39.884,-7.764 14.11,-9.609 15.363,-11.02 22.587,-25.577 7.233,-14.555 4.947,-39.369 0,-50.229 -4.948,-10.851 -6.879,-27.008 -26.239,-50.09 l -19.35,-23.084 c 0,0 -15.716,-16.408 -17.799,-18.371 C 280.027,33.27 264.532,14.342 249.468,9.415 234.41,4.483 218.148,3.499 214.211,3.395 210.275,3.288 198.471,2.903 177.715,3.283 c -20.752,0.381 -37.309,-3.608 -44.951,-5.641 -7.631,-2.029 -31.903,-9.581 -38.931,-11.366 -7.029,-1.787 -21.998,-6.961 -35.734,-7.083 -13.728,-0.113 -26.58,1.754 -30.863,2.312 -4.274,0.56 -18.401,2.503 -24.126,5.021 -5.728,2.517 -4.022,4.767 -5.449,6.537 C -3.769,-5.164 0,0 0,0"
         style="fill:#110f0d;fill-opacity:1;fill-rule:nonzero;stroke:none"
         id="path156208-7-9-9-0-6-7"
         inkscape:connector-curvature="0" />
    </g>
    <g
       id="g163214-5-1-7-0-5-3"
       transform="matrix(-1.25,0,0,-1.25,-992.07801,28.52678)">
      <path
         d="m 0,0 0.813,-4.162 0,-2.573 4.694,0 0,-4.12 13.56,-6.698 7.3,-4.119 2.606,-4.639 5.739,0 5.738,-5.15 0,-8.757 2.605,-2.578 5.845,0 4.449,-9.066 14.807,-1.568 7.839,-3.658 4.181,-8.362 -0.16,-6.451 8.934,-1.286 4.558,-3.544 10.038,-2.123 4.237,-2.708 7.234,-2.444 6.748,-1.701 8.362,-1.045 -3.962,6.319 -2.09,5.576 1.393,5.574 6.968,1.394 9.059,-0.696 7.664,0.696 4.181,2.786 2.09,4.182 -2.308,7.093 -3.136,9.93 -4.703,8.361 -7.273,10.153 3.092,2.913 -3.136,2.612 -4.703,4.181 -2.613,4.181 2.613,5.226 -4.181,9.93 -11.497,2.089 -7.316,2.614 -7.317,1.567 -7.839,0.524 -3.135,3.658 -4.182,4.702 -5.748,2.091 -10.234,1.093 -3.876,2.042 -3.789,2.14 -4.181,5.574 -5.574,7.665 -4.18,2.091 L 36.582,36.06 30.006,33.146 21.645,26.179 12.587,17.121 12.542,9.929 0,0 Z"
         style="fill:#ec1d27;fill-opacity:1;fill-rule:nonzero;stroke:none"
         id="path163216-7-2-2-6-3-6"
         inkscape:connector-curvature="0" />
    </g>
    <g
       id="g163262-5-9-9-9-9-7"
       transform="matrix(-1.25,0,0,-1.25,-821.00071,484.06453)">
      <path
         d="m 0,0 3.791,3.082 3.791,7.402 1.267,11.718 0,24.668 0,12.955 0,15.417 0,12.951 -0.636,20.969 0,13.571 -1.264,17.271 -1.265,10.484 3.165,8.019 4.42,14.183 5.685,20.97 3.791,16.035 2.526,16.033 0,14.806 -2.181,8.362 -0.976,7.055 -3.16,1.85 -2.525,0.616 -0.634,3.701 3.159,1.236 4.423,3.7 1.894,4.935 0,5.548 -1.26,4.937 -3.157,3.701 -4.425,2.462 -3.16,1.236 -1.896,8.634 -0.63,8.327 -1.894,-2.158 -2.529,-6.169 -1.898,-4.317 -1.261,-3.082 -0.634,-2.471 -4.425,0 L 0,0 Z"
         style="fill:#211d1d;fill-opacity:1;fill-rule:nonzero;stroke:none"
         id="path163264-0-8-2-2-30-8"
         inkscape:connector-curvature="0" />
    </g>
    <g
       id="g163266-9-6-5-2-3-8"
       transform="matrix(-1.25,0,0,-1.25,-833.63691,102.8364)">
      <path
         d="M 0,0 C 0,0 101.726,132.292 109.308,159.434"
         style="fill:none;stroke:#211d1d;stroke-width:1;stroke-linecap:butt;stroke-linejoin:miter;stroke-miterlimit:10;stroke-dasharray:none;stroke-opacity:1"
         id="path163268-3-1-6-3-8-4"
         inkscape:connector-curvature="0" />
    </g>
    <g
       id="g163270-2-6-6-7-7-3"
       transform="matrix(-1.25,0,0,-1.25,-991.98951,-144.37609)">
      <path
         d="m 0,0 0.634,-3.082 -1.264,-3.391 -1.58,-2.774 -1.896,-4.014 -2.214,-4.932 -3.473,-6.782 -3.473,-7.095 -3.16,-6.474 -0.948,-1.234 -0.209,1.849 0.841,2.878 2.21,6.068 2.529,7.092 2.21,6.784 1.268,3.392 1.256,4.009 1.585,4.624 1.685,2.054 2.315,1.645 L 0,0 Z"
         style="fill:#211d1d;fill-opacity:1;fill-rule:nonzero;stroke:none"
         id="path163272-4-0-1-2-70-1"
         inkscape:connector-curvature="0" />
    </g>
    <g
       id="g163274-5-5-4-3-2-9"
       transform="matrix(-1.25,0,0,-1.25,-991.98951,-144.37609)">
      <path
         d="m 0,0 0.634,-3.082 -1.264,-3.391 -1.58,-2.774 -1.896,-4.014 -2.214,-4.932 -3.473,-6.782 -3.473,-7.095 -3.16,-6.474 -0.948,-1.234 -0.209,1.849 0.841,2.878 2.21,6.068 2.529,7.092 2.21,6.784 1.268,3.392 1.256,4.009 1.585,4.624 1.685,2.054 2.315,1.645 L 0,0 Z"
         style="fill:none;stroke:#211d1d;stroke-width:1;stroke-linecap:butt;stroke-linejoin:miter;stroke-miterlimit:10;stroke-dasharray:none;stroke-opacity:1"
         id="path163276-0-4-0-9-45-8"
         inkscape:connector-curvature="0" />
    </g>
    <g
       id="g163246-5-8-5-2-3-1"
       transform="matrix(-1.25,0,0,-1.25,-771.07278,7309.5714)"
       style="opacity:0.417;filter:url(#filter5050)">
      <g
         id="g163248-2-5-5-5-8-5"
         style="" />
      <g
         id="g163254-6-9-6-5-1-6"
         style="">
        <g
           clip-path="url(#clipPath163250-2-9-6-18-13-9)"
           id="g163256-6-7-4-1-0-4"
           style="opacity:0.57000703">
          <g
             transform="translate(62.5488,5708.2119)"
             id="g163258-6-5-0-7-2-9"
             style="">
            <path
               d="m 0,0 c 0,0 66.815,-29.909 118.469,-19.734 51.651,10.179 116.413,-33.766 118.624,-33.608 2.213,0.148 2.739,2.563 2.739,2.563 l 1.16,3.703 1.367,4.318 0.313,5.342 -0.839,4.628 -1.264,4.884 -1.472,5.701 -2.478,4.32 -3.473,4.625 -4.109,3.548 -3.79,2.772 -2.843,2.471 -7.107,3.082 -6.476,3.237 -5.108,1.75 -9.9,3.184 -8.002,1.955 -5.425,1.745 -10.159,1.337 -8.956,1.336 -4.837,0.619 -4.794,0.565 -4.11,-0.617 -8.526,-2.005 L 128.892,8.793 118.469,6.014 106.777,2.624 96.672,-0.462 82.297,-4.006 71.24,-6.472 57.496,-7.396 40.912,-6.01 26.854,-4.933 18.48,-3.541 11.529,-2.158 7.107,-0.925 3.16,0.617 0.63,1.852 -0.359,0.866"
               style="fill:#bf925c;fill-opacity:1;fill-rule:nonzero;stroke:none"
               id="path163260-0-3-0-4-5-0"
               inkscape:connector-curvature="0" />
          </g>
        </g>
      </g>
    </g>
  </g>
</svg>
