<?xml version="1.0" encoding="UTF-8" standalone="no"?>
<!-- Created with Inkscape (http://www.inkscape.org/) -->

<svg
   xmlns:dc="http://purl.org/dc/elements/1.1/"
   xmlns:cc="http://creativecommons.org/ns#"
   xmlns:rdf="http://www.w3.org/1999/02/22-rdf-syntax-ns#"
   xmlns:svg="http://www.w3.org/2000/svg"
   xmlns="http://www.w3.org/2000/svg"
   xmlns:sodipodi="http://sodipodi.sourceforge.net/DTD/sodipodi-0.dtd"
   xmlns:inkscape="http://www.inkscape.org/namespaces/inkscape"
   width="268.86768mm"
   height="177.86841mm"
   viewBox="0 0 952.68074 630.24239"
   id="svg34720"
   version="1.1"
   inkscape:version="0.92.3 (2405546, 2018-03-11)"
   sodipodi:docname="H_charithonia.svg"
   inkscape:export-filename="C:\Users\vanbe\Dropbox (Cambridge University)\Cartoons\Heliconius\H_charithonia.png"
   inkscape:export-xdpi="1000"
   inkscape:export-ydpi="1000">
  <defs
     id="defs34722">
    <clipPath
       id="clipPath157182-1-7-91"
       clipPathUnits="userSpaceOnUse">
      <path
         inkscape:connector-curvature="0"
         id="path157184-3-0-4"
         d="m 57.2446,6174.23 241.6054,0 0,-67.34 -241.6054,0 0,67.34 z" />
    </clipPath>
    <clipPath
       id="clipPath157182-1-7-2-68"
       clipPathUnits="userSpaceOnUse">
      <path
         inkscape:connector-curvature="0"
         id="path157184-3-0-1-41"
         d="m 57.2446,6174.23 241.6054,0 0,-67.34 -241.6054,0 0,67.34 z" />
    </clipPath>
    <clipPath
       id="clipPath156194-8-7-6"
       clipPathUnits="userSpaceOnUse">
      <path
         inkscape:connector-curvature="0"
         id="path156196-6-5-8"
         d="m 54.7373,6624.2 241.6037,0 0,-67.35 -241.6037,0 0,67.35 z" />
    </clipPath>
    <clipPath
       id="clipPath156194-8-6-0"
       clipPathUnits="userSpaceOnUse">
      <path
         inkscape:connector-curvature="0"
         id="path156196-6-3-5"
         d="m 54.7373,6624.2 241.6037,0 0,-67.35 -241.6037,0 0,67.35 z" />
    </clipPath>
    <clipPath
       id="clipPath163250-2-9-6-18-13"
       clipPathUnits="userSpaceOnUse">
      <path
         inkscape:connector-curvature="0"
         id="path163252-8-9-8-41-2"
         d="m 62.1895,5722.56 243.0315,0 0,-67.69 -243.0315,0 0,67.69 z" />
    </clipPath>
    <clipPath
       id="clipPath163250-2-9-6-1-2-1"
       clipPathUnits="userSpaceOnUse">
      <path
         inkscape:connector-curvature="0"
         id="path163252-8-9-8-6-4-6"
         d="m 62.1895,5722.56 243.0315,0 0,-67.69 -243.0315,0 0,67.69 z" />
    </clipPath>
    <clipPath
       id="clipPath163250-2-9-6-18-13-9"
       clipPathUnits="userSpaceOnUse">
      <path
         inkscape:connector-curvature="0"
         id="path163252-8-9-8-41-2-1"
         d="m 62.1895,5722.56 243.0315,0 0,-67.69 -243.0315,0 0,67.69 z" />
    </clipPath>
    <filter
       inkscape:collect="always"
       style="color-interpolation-filters:sRGB"
       id="filter5050"
       x="-0.038123772"
       width="1.0762475"
       y="-0.13688706"
       height="1.2737741">
      <feGaussianBlur
         inkscape:collect="always"
         stdDeviation="3.8605245"
         id="feGaussianBlur5052" />
    </filter>
    <filter
       inkscape:collect="always"
       style="color-interpolation-filters:sRGB"
       id="filter5054"
       x="-0.038123772"
       width="1.0762475"
       y="-0.13688706"
       height="1.2737741">
      <feGaussianBlur
         inkscape:collect="always"
         stdDeviation="3.8605245"
         id="feGaussianBlur5056" />
    </filter>
    <clipPath
       clipPathUnits="userSpaceOnUse"
       id="clipPath157182-1-7-91-2">
      <path
         d="m 57.2446,6174.23 241.6054,0 0,-67.34 -241.6054,0 0,67.34 z"
         id="path157184-3-0-4-8"
         inkscape:connector-curvature="0" />
    </clipPath>
    <clipPath
       clipPathUnits="userSpaceOnUse"
       id="clipPath157182-1-7-2-68-6">
      <path
         d="m 57.2446,6174.23 241.6054,0 0,-67.34 -241.6054,0 0,67.34 z"
         id="path157184-3-0-1-41-1"
         inkscape:connector-curvature="0" />
    </clipPath>
    <clipPath
       clipPathUnits="userSpaceOnUse"
       id="clipPath156194-8-7-6-2">
      <path
         d="m 54.7373,6624.2 241.6037,0 0,-67.35 -241.6037,0 0,67.35 z"
         id="path156196-6-5-8-5"
         inkscape:connector-curvature="0" />
    </clipPath>
    <clipPath
       clipPathUnits="userSpaceOnUse"
       id="clipPath156194-8-6-0-7">
      <path
         d="m 54.7373,6624.2 241.6037,0 0,-67.35 -241.6037,0 0,67.35 z"
         id="path156196-6-3-5-9"
         inkscape:connector-curvature="0" />
    </clipPath>
    <clipPath
       clipPathUnits="userSpaceOnUse"
       id="clipPath163250-2-9-6-18-13-0">
      <path
         d="m 62.1895,5722.56 243.0315,0 0,-67.69 -243.0315,0 0,67.69 z"
         id="path163252-8-9-8-41-2-8"
         inkscape:connector-curvature="0" />
    </clipPath>
    <clipPath
       clipPathUnits="userSpaceOnUse"
       id="clipPath163250-2-9-6-1-2-1-7">
      <path
         d="m 62.1895,5722.56 243.0315,0 0,-67.69 -243.0315,0 0,67.69 z"
         id="path163252-8-9-8-6-4-6-7"
         inkscape:connector-curvature="0" />
    </clipPath>
    <clipPath
       clipPathUnits="userSpaceOnUse"
       id="clipPath154878-7-9-5">
      <path
         d="m 52.4766,7073.57 241.6064,0 0,-67.35 -241.6064,0 0,67.35 z"
         id="path154880-1-4-9"
         inkscape:connector-curvature="0" />
    </clipPath>
    <clipPath
       clipPathUnits="userSpaceOnUse"
       id="clipPath154878-7-7-96">
      <path
         d="m 52.4766,7073.57 241.6064,0 0,-67.35 -241.6064,0 0,67.35 z"
         id="path154880-1-46-1"
         inkscape:connector-curvature="0" />
    </clipPath>
  </defs>
  <sodipodi:namedview
     id="base"
     pagecolor="#ffffff"
     bordercolor="#666666"
     borderopacity="1.0"
     inkscape:pageopacity="0.0"
     inkscape:pageshadow="2"
     inkscape:zoom="0.49497475"
     inkscape:cx="853.56769"
     inkscape:cy="469.6584"
     inkscape:document-units="px"
     inkscape:current-layer="layer1"
     showgrid="false"
     fit-margin-top="0"
     fit-margin-left="0"
     fit-margin-right="0"
     fit-margin-bottom="0"
     inkscape:window-width="4300"
     inkscape:window-height="1721"
     inkscape:window-x="-9"
     inkscape:window-y="-9"
     inkscape:window-maximized="1"
     inkscape:snap-global="false" />
  <metadata
     id="metadata34725">
    <rdf:RDF>
      <cc:Work
         rdf:about="">
        <dc:format>image/svg+xml</dc:format>
        <dc:type
           rdf:resource="http://purl.org/dc/dcmitype/StillImage" />
        <dc:title></dc:title>
      </cc:Work>
    </rdf:RDF>
  </metadata>
  <g
     inkscape:label="Layer 1"
     inkscape:groupmode="layer"
     id="layer1"
     transform="translate(1300.7044,145.84736)">
    <g
       id="g162606-9-5-2-7-2"
       transform="matrix(1.25,0,0,-1.25,-799.01761,174.62201)"
       style="fill:#110f0d;fill-opacity:1">
      <path
         d="m 0,0 c 0.864,-1.02 -1.723,-4.091 0.864,-6.816 2.589,-2.732 -1.295,-4.436 -1.727,-6.48 -0.434,-2.047 -2.587,-5.799 -2.587,-9.209 0,-3.407 -0.432,-8.183 -1.727,-12.274 -1.293,-4.092 -4.312,-17.048 -3.446,-21.482 0.861,-4.431 5.605,-10.905 7.326,-13.292 C 0.43,-71.94 6.9,-83.877 7.761,-84.9 c 0.863,-1.023 9.057,-16.706 11.211,-19.432 2.157,-2.732 15.093,-17.393 26.734,-20.798 0,0 9.055,-4.777 11.212,-4.777 2.16,0 11.212,-4.43 14.662,-4.091 0,0 9.055,-2.045 10.349,-2.384 1.293,-0.343 17.677,-2.05 17.677,-2.05 0,0 9.779,-2.16 14.09,-0.453 4.309,1.703 -1.155,-0.228 1.004,0.115 2.16,0.338 3.879,0.677 6.471,1.02 2.585,0.341 5.174,0.684 7.759,1.368 l 13.366,3.066 c 0,0 12.507,3.752 13.799,4.775 1.295,1.019 15.091,4.432 17.251,6.477 2.154,2.048 9.917,4.434 12.071,6.138 2.155,1.703 12.074,7.499 12.505,9.205 0.43,1.707 6.468,5.8 8.625,8.526 2.155,2.727 9.051,11.249 9.051,11.249 0,0 9.057,9.548 9.491,10.913 0.43,1.361 6.47,7.5 7.762,10.908 1.292,3.411 7.763,12.959 7.328,14.322 -0.43,1.365 3.884,6.48 2.591,14.662 -1.294,8.184 -2.156,11.252 -4.746,17.046 -2.587,5.799 -15.523,14.665 -15.523,14.665 l -18.54,8.182 c 0,0 -18.544,5.115 -21.992,6.137 -3.452,1.02 -24.147,3.752 -24.147,3.752 0,0 -17.251,2.386 -21.991,2.727 -4.747,0.342 -21.131,0 -21.131,0 0,0 -13.798,0.342 -20.262,0.342 -6.474,0 -19.411,-0.683 -21.562,-1.026 -2.158,-0.342 -12.508,-1.023 -16.82,-1.023 -4.31,0 -20.268,-2.384 -21.991,-2.384 -1.723,0 -19.406,-4.435 -19.406,-4.435 L 5.604,5.116 0,0 Z"
         style="fill:#110f0d;fill-opacity:1;fill-rule:nonzero;stroke:none"
         id="path162608-0-3-8-0-8"
         inkscape:connector-curvature="0" />
    </g>
    <g
       id="g156206-8-1-1-7-9"
       transform="matrix(1.2829304,0,0,-1.25,-797.18272,158.22664)">
      <path
         d="m 0,0 c 0,0 22.043,43.366 66.388,83.198 44.352,39.828 53.734,48.298 80.39,68.501 26.664,20.198 54.862,32.676 78.376,43.961 23.509,11.285 57.872,14.689 57.872,14.689 0,0 25.769,1.853 39.884,-7.764 14.11,-9.609 15.363,-11.02 22.587,-25.577 7.233,-14.555 4.947,-39.369 0,-50.229 -4.948,-10.851 -6.879,-27.008 -26.239,-50.09 l -19.35,-23.084 c 0,0 -15.716,-16.408 -17.799,-18.371 C 280.027,33.27 264.532,14.342 249.468,9.415 234.41,4.483 218.148,3.499 214.211,3.395 210.275,3.288 198.471,2.903 177.715,3.283 c -20.752,0.381 -37.309,-3.608 -44.951,-5.641 -7.631,-2.029 -31.903,-9.581 -38.931,-11.366 -7.029,-1.787 -21.998,-6.961 -35.734,-7.083 -13.728,-0.113 -26.58,1.754 -30.863,2.312 -4.274,0.56 -18.401,2.503 -24.126,5.021 -5.728,2.517 -4.022,4.767 -5.449,6.537 C -3.769,-5.164 0,0 0,0"
         style="fill:#110f0d;fill-opacity:1;fill-rule:nonzero;stroke:none"
         id="path156208-7-9-9-2-0"
         inkscape:connector-curvature="0" />
    </g>
    <g
       id="g163262-5-9-9-7-0"
       transform="matrix(1.25,0,0,-1.25,-826.73741,484.39501)">
      <path
         d="m 0,0 3.791,3.082 3.791,7.402 1.267,11.718 0,24.668 0,12.955 0,15.417 0,12.951 -0.636,20.969 0,13.571 -1.264,17.271 -1.265,10.484 3.165,8.019 4.42,14.183 5.685,20.97 3.791,16.035 2.526,16.033 0,14.806 -2.181,8.362 -0.976,7.055 -3.16,1.85 -2.525,0.616 -0.634,3.701 3.159,1.236 4.423,3.7 1.894,4.935 0,5.548 -1.26,4.937 -3.157,3.701 -4.425,2.462 -3.16,1.236 -1.896,8.634 -0.63,8.327 -1.894,-2.158 -2.529,-6.169 -1.898,-4.317 -1.261,-3.082 -0.634,-2.471 -4.425,0 L 0,0 Z"
         style="fill:#211d1d;fill-opacity:1;fill-rule:nonzero;stroke:none"
         id="path163264-0-8-2-8-5"
         inkscape:connector-curvature="0" />
    </g>
    <g
       id="g163266-9-6-5-25-8"
       transform="matrix(1.25,0,0,-1.25,-814.10121,103.16688)">
      <path
         d="M 0,0 C 0,0 101.726,132.292 109.308,159.434"
         style="fill:none;stroke:#211d1d;stroke-width:1;stroke-linecap:butt;stroke-linejoin:miter;stroke-miterlimit:10;stroke-dasharray:none;stroke-opacity:1"
         id="path163268-3-1-6-10-1"
         inkscape:connector-curvature="0" />
    </g>
    <g
       id="g163274-5-5-4-30-2"
       transform="matrix(1.25,0,0,-1.25,-655.74861,-144.04561)">
      <path
         d="m 0,0 0.634,-3.082 -1.264,-3.391 -1.58,-2.774 -1.896,-4.014 -2.214,-4.932 -3.473,-6.782 -3.473,-7.095 -3.16,-6.474 -0.948,-1.234 -0.209,1.849 0.841,2.878 2.21,6.068 2.529,7.092 2.21,6.784 1.268,3.392 1.256,4.009 1.585,4.624 1.685,2.054 2.315,1.645 L 0,0 Z"
         style="fill:none;stroke:#211d1d;stroke-width:1;stroke-linecap:butt;stroke-linejoin:miter;stroke-miterlimit:10;stroke-dasharray:none;stroke-opacity:1"
         id="path163276-0-4-0-92-2"
         inkscape:connector-curvature="0" />
    </g>
    <g
       id="g163246-5-8-5-2-3"
       transform="matrix(1.25,0,0,-1.25,-876.75451,7310.0029)"
       style="opacity:0.41700003;filter:url(#filter5054)">
      <g
         id="g163248-2-5-5-5-8" />
      <g
         id="g163254-6-9-6-5-1">
        <g
           clip-path="url(#clipPath163250-2-9-6-18-13)"
           id="g163256-6-7-4-1-0"
           style="opacity:0.57000703">
          <g
             transform="translate(62.5488,5708.2119)"
             id="g163258-6-5-0-7-2">
            <path
               d="m 0,0 c 0,0 66.815,-29.909 118.469,-19.734 51.651,10.179 116.413,-33.766 118.624,-33.608 2.213,0.148 2.739,2.563 2.739,2.563 l 1.16,3.703 1.367,4.318 0.313,5.342 -0.839,4.628 -1.264,4.884 -1.472,5.701 -2.478,4.32 -3.473,4.625 -4.109,3.548 -3.79,2.772 -2.843,2.471 -7.107,3.082 -6.476,3.237 -5.108,1.75 -9.9,3.184 -8.002,1.955 -5.425,1.745 -10.159,1.337 -8.956,1.336 -4.837,0.619 -4.794,0.565 -4.11,-0.617 -8.526,-2.005 L 128.892,8.793 118.469,6.014 106.777,2.624 96.672,-0.462 82.297,-4.006 71.24,-6.472 57.496,-7.396 40.912,-6.01 26.854,-4.933 18.48,-3.541 11.529,-2.158 7.107,-0.925 3.16,0.617 0.63,1.852 -0.359,0.866"
               style="fill:#bf925c;fill-opacity:1;fill-rule:nonzero;stroke:none"
               id="path163260-0-3-0-4-5"
               inkscape:connector-curvature="0" />
          </g>
        </g>
      </g>
    </g>
    <g
       id="g162606-9-5-2-0-6-6"
       transform="matrix(-1.25,0,0,-1.25,-848.72051,174.29153)"
       style="fill:#110f0d;fill-opacity:1">
      <path
         d="m 0,0 c 0.864,-1.02 -1.723,-4.091 0.864,-6.816 2.589,-2.732 -1.295,-4.436 -1.727,-6.48 -0.434,-2.047 -2.587,-5.799 -2.587,-9.209 0,-3.407 -0.432,-8.183 -1.727,-12.274 -1.293,-4.092 -4.312,-17.048 -3.446,-21.482 0.861,-4.431 5.605,-10.905 7.326,-13.292 C 0.43,-71.94 6.9,-83.877 7.761,-84.9 c 0.863,-1.023 9.057,-16.706 11.211,-19.432 2.157,-2.732 15.093,-17.393 26.734,-20.798 0,0 9.055,-4.777 11.212,-4.777 2.16,0 11.212,-4.43 14.662,-4.091 0,0 9.055,-2.045 10.349,-2.384 1.293,-0.343 17.677,-2.05 17.677,-2.05 0,0 9.779,-2.16 14.09,-0.453 4.309,1.703 -1.155,-0.228 1.004,0.115 2.16,0.338 3.879,0.677 6.471,1.02 2.585,0.341 5.174,0.684 7.759,1.368 l 13.366,3.066 c 0,0 12.507,3.752 13.799,4.775 1.295,1.019 15.091,4.432 17.251,6.477 2.154,2.048 9.917,4.434 12.071,6.138 2.155,1.703 12.074,7.499 12.505,9.205 0.43,1.707 6.468,5.8 8.625,8.526 2.155,2.727 9.051,11.249 9.051,11.249 0,0 9.057,9.548 9.491,10.913 0.43,1.361 6.47,7.5 7.762,10.908 1.292,3.411 7.763,12.959 7.328,14.322 -0.43,1.365 3.884,6.48 2.591,14.662 -1.294,8.184 -2.156,11.252 -4.746,17.046 -2.587,5.799 -15.523,14.665 -15.523,14.665 l -18.54,8.182 c 0,0 -18.544,5.115 -21.992,6.137 -3.452,1.02 -24.147,3.752 -24.147,3.752 0,0 -17.251,2.386 -21.991,2.727 -4.747,0.342 -21.131,0 -21.131,0 0,0 -13.798,0.342 -20.262,0.342 -6.474,0 -19.411,-0.683 -21.562,-1.026 -2.158,-0.342 -12.508,-1.023 -16.82,-1.023 -4.31,0 -20.268,-2.384 -21.991,-2.384 -1.723,0 -19.406,-4.435 -19.406,-4.435 L 5.604,5.116 0,0 Z"
         style="fill:#110f0d;fill-opacity:1;fill-rule:nonzero;stroke:none"
         id="path162608-0-3-8-2-9-5"
         inkscape:connector-curvature="0" />
    </g>
    <g
       id="g156206-8-1-1-6-5-8"
       transform="matrix(-1.2900892,0,0,-1.25,-849.03892,157.89616)">
      <path
         d="m 0,0 c 0,0 22.043,43.366 66.388,83.198 44.352,39.828 53.734,48.298 80.39,68.501 26.664,20.198 54.862,32.676 78.376,43.961 23.509,11.285 57.872,14.689 57.872,14.689 0,0 25.769,1.853 39.884,-7.764 14.11,-9.609 15.363,-11.02 22.587,-25.577 7.233,-14.555 4.947,-39.369 0,-50.229 -4.948,-10.851 -6.879,-27.008 -26.239,-50.09 l -19.35,-23.084 c 0,0 -15.716,-16.408 -17.799,-18.371 C 280.027,33.27 264.532,14.342 249.468,9.415 234.41,4.483 218.148,3.499 214.211,3.395 210.275,3.288 198.471,2.903 177.715,3.283 c -20.752,0.381 -37.309,-3.608 -44.951,-5.641 -7.631,-2.029 -31.903,-9.581 -38.931,-11.366 -7.029,-1.787 -21.998,-6.961 -35.734,-7.083 -13.728,-0.113 -26.58,1.754 -30.863,2.312 -4.274,0.56 -18.401,2.503 -24.126,5.021 -5.728,2.517 -4.022,4.767 -5.449,6.537 C -3.769,-5.164 0,0 0,0"
         style="fill:#110f0d;fill-opacity:1;fill-rule:nonzero;stroke:none"
         id="path156208-7-9-9-0-6-7"
         inkscape:connector-curvature="0" />
    </g>
    <g
       id="g163262-5-9-9-9-9-7"
       transform="matrix(-1.25,0,0,-1.25,-821.00071,484.06453)">
      <path
         d="m 0,0 3.791,3.082 3.791,7.402 1.267,11.718 0,24.668 0,12.955 0,15.417 0,12.951 -0.636,20.969 0,13.571 -1.264,17.271 -1.265,10.484 3.165,8.019 4.42,14.183 5.685,20.97 3.791,16.035 2.526,16.033 0,14.806 -2.181,8.362 -0.976,7.055 -3.16,1.85 -2.525,0.616 -0.634,3.701 3.159,1.236 4.423,3.7 1.894,4.935 0,5.548 -1.26,4.937 -3.157,3.701 -4.425,2.462 -3.16,1.236 -1.896,8.634 -0.63,8.327 -1.894,-2.158 -2.529,-6.169 -1.898,-4.317 -1.261,-3.082 -0.634,-2.471 -4.425,0 L 0,0 Z"
         style="fill:#211d1d;fill-opacity:1;fill-rule:nonzero;stroke:none"
         id="path163264-0-8-2-2-30-8"
         inkscape:connector-curvature="0" />
    </g>
    <g
       id="g163266-9-6-5-2-3-8"
       transform="matrix(-1.25,0,0,-1.25,-833.63691,102.8364)">
      <path
         d="M 0,0 C 0,0 101.726,132.292 109.308,159.434"
         style="fill:none;stroke:#211d1d;stroke-width:1;stroke-linecap:butt;stroke-linejoin:miter;stroke-miterlimit:10;stroke-dasharray:none;stroke-opacity:1"
         id="path163268-3-1-6-3-8-4"
         inkscape:connector-curvature="0" />
    </g>
    <g
       id="g163270-2-6-6-7-7-3"
       transform="matrix(-1.25,0,0,-1.25,-991.98951,-144.37609)">
      <path
         d="m 0,0 0.634,-3.082 -1.264,-3.391 -1.58,-2.774 -1.896,-4.014 -2.214,-4.932 -3.473,-6.782 -3.473,-7.095 -3.16,-6.474 -0.948,-1.234 -0.209,1.849 0.841,2.878 2.21,6.068 2.529,7.092 2.21,6.784 1.268,3.392 1.256,4.009 1.585,4.624 1.685,2.054 2.315,1.645 L 0,0 Z"
         style="fill:#211d1d;fill-opacity:1;fill-rule:nonzero;stroke:none"
         id="path163272-4-0-1-2-70-1"
         inkscape:connector-curvature="0" />
    </g>
    <g
       id="g163274-5-5-4-3-2-9"
       transform="matrix(-1.25,0,0,-1.25,-991.98951,-144.37609)">
      <path
         d="m 0,0 0.634,-3.082 -1.264,-3.391 -1.58,-2.774 -1.896,-4.014 -2.214,-4.932 -3.473,-6.782 -3.473,-7.095 -3.16,-6.474 -0.948,-1.234 -0.209,1.849 0.841,2.878 2.21,6.068 2.529,7.092 2.21,6.784 1.268,3.392 1.256,4.009 1.585,4.624 1.685,2.054 2.315,1.645 L 0,0 Z"
         style="fill:none;stroke:#211d1d;stroke-width:1;stroke-linecap:butt;stroke-linejoin:miter;stroke-miterlimit:10;stroke-dasharray:none;stroke-opacity:1"
         id="path163276-0-4-0-9-45-8"
         inkscape:connector-curvature="0" />
    </g>
    <g
       id="g163246-5-8-5-2-3-1"
       transform="matrix(-1.25,0,0,-1.25,-771.07278,7309.5714)"
       style="opacity:0.41700003;filter:url(#filter5050)">
      <g
         id="g163248-2-5-5-5-8-5" />
      <g
         id="g163254-6-9-6-5-1-6">
        <g
           clip-path="url(#clipPath163250-2-9-6-18-13-9)"
           id="g163256-6-7-4-1-0-4"
           style="opacity:0.57000703">
          <g
             transform="translate(62.5488,5708.2119)"
             id="g163258-6-5-0-7-2-9">
            <path
               d="m 0,0 c 0,0 66.815,-29.909 118.469,-19.734 51.651,10.179 116.413,-33.766 118.624,-33.608 2.213,0.148 2.739,2.563 2.739,2.563 l 1.16,3.703 1.367,4.318 0.313,5.342 -0.839,4.628 -1.264,4.884 -1.472,5.701 -2.478,4.32 -3.473,4.625 -4.109,3.548 -3.79,2.772 -2.843,2.471 -7.107,3.082 -6.476,3.237 -5.108,1.75 -9.9,3.184 -8.002,1.955 -5.425,1.745 -10.159,1.337 -8.956,1.336 -4.837,0.619 -4.794,0.565 -4.11,-0.617 -8.526,-2.005 L 128.892,8.793 118.469,6.014 106.777,2.624 96.672,-0.462 82.297,-4.006 71.24,-6.472 57.496,-7.396 40.912,-6.01 26.854,-4.933 18.48,-3.541 11.529,-2.158 7.107,-0.925 3.16,0.617 0.63,1.852 -0.359,0.866"
               style="fill:#bf925c;fill-opacity:1;fill-rule:nonzero;stroke:none"
               id="path163260-0-3-0-4-5-0"
               inkscape:connector-curvature="0" />
          </g>
        </g>
      </g>
    </g>
    <g
       id="g991">
      <g
         transform="matrix(1.25,0,0,-1.25,-655.74861,-144.04561)"
         id="g163270-2-6-6-9-4">
        <path
           inkscape:connector-curvature="0"
           id="path163272-4-0-1-7-9"
           style="fill:#211d1d;fill-opacity:1;fill-rule:nonzero;stroke:none"
           d="m 0,0 0.634,-3.082 -1.264,-3.391 -1.58,-2.774 -1.896,-4.014 -2.214,-4.932 -3.473,-6.782 -3.473,-7.095 -3.16,-6.474 -0.948,-1.234 -0.209,1.849 0.841,2.878 2.21,6.068 2.529,7.092 2.21,6.784 1.268,3.392 1.256,4.009 1.585,4.624 1.685,2.054 2.315,1.645 L 0,0 Z" />
      </g>
      <path
         sodipodi:nodetypes="ssssssssssssssssssssssss"
         inkscape:connector-curvature="0"
         id="path959"
         d="m -511.20227,-80.639685 c 0.69562,-2.370398 3.67182,-3.61167 5.93519,-4.875615 4.62819,-2.584539 9.9305,-4.069946 15.17303,-5.28085 3.67075,-0.847846 9.37843,-4.418811 11.25646,-1.356262 0.85533,1.39474 -2.00042,2.619442 -3.18869,3.777443 -1.35268,1.318204 -5.44332,1.996196 -4.44876,3.572654 1.57693,2.499649 5.67078,-3.191606 8.77145,-2.942587 2.31074,0.185577 4.98218,1.288513 6.05441,3.204094 0.41894,0.748551 -0.98958,2.018793 -0.25654,2.516393 0.80716,0.547903 1.75996,-1.239702 2.74649,-1.09817 1.61013,0.231009 2.81991,1.696599 3.70974,2.967877 0.52076,0.743964 -0.0222,2.144725 0.82804,2.547832 1.49775,0.710192 3.23302,-2.219224 4.74978,-1.544873 1.34476,0.597887 1.93552,2.587884 1.5106,3.913665 -0.8812,2.749737 -5.92005,4.371287 -7.39123,5.169913 -1.47119,0.798638 -6.58819,1.766532 -9.8509,2.743053 -3.55568,1.0642 -9.50952,3.425955 -10.59401,3.394519 -1.08438,-0.03143 -5.71569,-0.02419 -7.54567,-1.733029 -0.48571,-0.453607 0.065,-1.482225 -0.48678,-1.864912 -1.74815,-1.212456 -4.5314,1.142772 -6.52173,0.315717 -1.52382,-0.633238 -2.73967,-2.119827 -3.14737,-3.6246 -0.37315,-1.377427 1.78937,-3.060998 0.8491,-4.181762 -1.3004,-1.550018 -4.65,0.852626 -6.32093,-0.351482 -1.5697,-1.131181 -2.35337,-3.491442 -1.83168,-5.269018 z"
         style="fill:#e7efc0;fill-opacity:1;stroke:none;stroke-width:0.976565px;stroke-linecap:butt;stroke-linejoin:miter;stroke-opacity:1" />
      <path
         sodipodi:nodetypes="sssssssssssssssssssssssssssssssss"
         inkscape:connector-curvature="0"
         id="path961"
         d="m -470.4444,-67.427966 c 2.89877,-0.724892 5.82825,-1.479359 8.82398,-1.679149 2.19459,-0.146359 4.50243,-0.289173 6.59202,0.35934 1.68328,0.522431 3.49003,1.341593 4.44023,2.736661 0.85238,1.251446 -0.0623,3.084705 0.68217,4.394414 1.50932,2.656838 4.42397,4.473229 7.14334,6.096007 3.67487,2.192917 8.42712,2.484062 12.06879,4.724472 2.38763,1.468856 6.18972,4.72232 6.16449,5.562872 -0.0252,0.840541 1.59953,6.37887 3.80681,8.775495 1.8988,2.061737 5.49621,2.213436 7.51895,4.170605 1.88246,1.821432 1.66651,5.210289 3.89347,6.656449 1.83194,1.189641 4.49885,0.269222 6.62435,0.905875 4.23169,1.267549 7.63993,4.376878 11.85297,5.69743 3.71611,1.16479 7.8973,0.637955 11.58369,1.882455 2.45801,0.829828 6.3331,2.087165 6.79792,3.647311 0.46481,1.560138 5.28568,7.7790043 2.87744,10.6721367 -2.0855,2.50540875 -6.85144,0.4784575 -10.23489,0.060245 -3.74154,-0.4624752 -7.83422,-0.7813369 -10.91622,-2.8148951 -1.99136,-1.3139677 -2.036,-4.5102496 -4.18112,-5.5940246 -2.13759,-1.079962 -6.65291,0.0451 -7.28479,-0.211166 -0.6319,-0.256269 -4.22629,-6.62783 -7.67758,-8.431791 -2.39968,-1.254298 -5.73795,0.04382 -8.15095,-1.188071 -3.17627,-1.62154 -3.95378,-6.072216 -7.19124,-7.584872 -2.97831,-1.391568 -6.75346,0.09402 -9.95447,-0.764453 -3.59293,-0.963564 -7.4822,-2.201985 -9.96087,-4.809763 -2.86676,-3.016092 -1.91237,-8.102518 -4.52104,-11.314651 -2.40503,-2.961435 -5.9855,-5.12453 -9.65167,-6.585432 -1.62518,-0.647594 -3.5914,-0.221796 -5.21855,-0.865116 -1.18718,-0.469366 -1.91398,-1.725353 -3.13439,-2.11343 -0.92842,-0.295239 -2.13225,0.434484 -2.9395,-0.08521 -1.8067,-1.163136 -0.82577,-4.358776 -2.51613,-5.664733 -3.00166,-2.319046 -11.20668,1.382367 -11.44526,-2.235353 -0.30396,-4.61046 9.31737,-3.201663 14.10805,-4.399655 z"
         style="fill:#e7efc0;fill-opacity:1;stroke:none;stroke-width:0.976565px;stroke-linecap:butt;stroke-linejoin:miter;stroke-opacity:1" />
      <path
         sodipodi:nodetypes="ssssssssssssssssss"
         inkscape:connector-curvature="0"
         id="path963"
         d="m -640.79127,-0.4332577 c -5.13681,-0.55462722 6.33959,-6.2168604 10.47524,-7.5126823 2.03106,-0.6363988 4.3621,0.6545342 6.40966,0.069313 2.90816,-0.8311833 4.65358,-4.089526 7.57784,-4.866233 4.44715,-1.181197 9.24639,1.171852 13.83007,0.66624 2.80483,-0.309397 5.4131,-2.947547 8.14334,-2.239466 1.72348,0.44698 3.96768,2.003941 3.7399,3.716804 -0.30428,2.2889336 -4.00855,2.497638 -6.12906,3.5430094 -1.71855,0.8472139 -3.42481,1.8547353 -5.32106,2.200437 -0.96516,0.1759548 -2.08943,-0.5516715 -2.94685,-0.089 -1.10072,0.5940122 -1.00552,2.3016775 -1.88665,3.1740578 -1.2083,1.19641276 -3.6626,2.49905716 -4.43496,2.60001013 -0.77225,0.10093812 -3.79561,0.32868597 -5.2959,1.33130147 -0.50655,0.3384823 -0.48219,1.275384 -1.06791,1.4589971 -0.97638,0.3060854 -2.10639,-0.3501779 -2.9218,-0.9581406 -0.70575,-0.5262003 -0.70074,-1.73404679 -1.47662,-2.15720081 -4.51165,-2.46069419 -10.34291,-0.21593457 -15.49936,-0.59238506 -1.06877,-0.07802899 -3.19588,-0.34506368 -3.19588,-0.34506454 z"
         style="fill:#e7efc0;fill-opacity:1;stroke:none;stroke-width:0.99931151px;stroke-linecap:butt;stroke-linejoin:miter;stroke-opacity:1" />
      <path
         sodipodi:nodetypes="ssssssssssssssssssssssss"
         inkscape:connector-curvature="0"
         id="path965"
         d="m -602.06534,-4.855833 c 2.81818,-1.1409482 6.35417,0.3935676 9.12894,-0.842722 2.38533,-1.06275 3.44789,-3.9379828 5.66669,-5.296767 1.32614,-0.812107 2.9808,-2.250964 4.40635,-1.60671 1.82879,0.826474 0.12338,4.8643622 2.02065,5.528942 1.86326,0.6526732 3.12786,-2.6814411 5.08622,-2.953153 1.90746,-0.264658 4.03522,0.3179081 5.60163,1.4118888 0.5489,0.3833459 0.46011,1.4569769 1.10661,1.6489415 1.75622,0.5214909 3.23397,-1.9240624 5.06118,-2.0840158 2.25248,-0.1971917 4.38872,1.113908 6.62658,1.4428456 7.78543,1.1443598 15.89437,0.00419 23.54241,1.8294692 1.82716,0.4360686 3.3474,1.8049976 5.19583,2.1452578 2.14563,0.3949674 4.69768,-1.3077038 6.54496,-0.1751404 1.68206,1.0312777 3.30285,3.57301323 2.41226,5.2922262 -1.75994,3.3972557 -7.66212,1.6521087 -11.48526,2.511348 -5.08486,1.1428146 -10.1082,2.5530181 -15.23296,3.516595 -5.83741,1.0975609 -11.70983,2.1511983 -17.6423,2.5739341 -2.98317,0.212572 -6.02106,-0.4691721 -8.97575,-0.02255 -2.50895,0.379247 -4.72801,1.950027 -7.24641,2.266558 -5.54954,0.697506 -11.57913,1.160691 -16.77345,-0.879409 -1.69017,-0.66383 -3.43317,-1.8472065 -4.13141,-3.4800878 -0.77029,-1.8015699 1.77407,-4.3802331 0.42445,-5.8279051 -2.15171,-2.30802685 -8.55456,2.6455973 -9.60923,-0.29022 -1.18536,-3.2994949 4.95283,-5.3655585 8.27201,-6.7093285 z"
         style="fill:#e7efc0;fill-opacity:1;stroke:none;stroke-width:0.99931151px;stroke-linecap:butt;stroke-linejoin:miter;stroke-opacity:1" />
      <path
         sodipodi:nodetypes="sssssssssssssssssssssssssssss"
         inkscape:connector-curvature="0"
         id="path967"
         d="m -561.63053,10.941536 c 0.14941,2.392198 6.19956,-0.699798 7.915,1.141255 3.29305,3.534146 -2.25597,9.535163 -0.30127,13.792025 1.03762,2.259705 3.38418,4.103915 5.86801,5.109169 11.12377,4.502072 24.36458,1.189657 36.46851,2.514343 7.87809,0.862195 15.62955,2.514413 23.48516,3.531503 3.31304,0.428946 6.85887,-0.033 9.96851,1.083643 0.96941,0.348105 1.5394,1.340331 2.51244,1.680277 5.07407,1.772836 10.87177,0.682416 16.23939,1.488924 4.90301,0.736693 9.60333,2.416839 14.52372,3.051023 5.24785,0.67639 10.57722,0.763347 15.87653,0.788763 3.38493,0.01623 6.88839,0.417793 10.14317,-0.406526 1.76841,-0.447869 4.27804,-0.820479 4.8192,-2.395386 0.77059,-2.242543 -1.59214,-4.715732 -3.52233,-6.308646 -5.23028,-4.316297 -12.73765,-6.33132 -19.7833,-7.108154 -2.5386,-0.279895 -5.04524,1.113857 -7.59498,0.937757 -2.16003,-0.149188 -4.4017,-0.624506 -6.23152,-1.669221 -0.89362,-0.510218 -1.15821,-1.719241 -2.11367,-2.129142 -2.23858,-0.960384 -5.06912,0.367356 -7.42757,-0.322605 -3.72363,-1.089332 -6.34632,-4.172178 -9.82184,-5.794697 -4.23747,-1.978233 -9.86174,-1.781821 -13.31694,-4.74235 -1.20401,-1.031621 -0.67561,-3.243547 -2.05297,-4.082511 -2.47799,-1.509447 -6.12363,0.480529 -8.96502,-0.365576 -1.97039,-0.586755 -3.1002,-2.9089603 -5.15995,-3.1343154 -1.92232,-0.2103242 -3.62409,2.4049214 -5.44204,1.8029582 -1.6377,-0.5422621 -1.07858,-3.2750488 -2.56535,-4.0968324 -5.31852,-2.9397794 -12.4704,-1.0494952 -18.6988,-0.7526386 -6.59291,0.3142232 -13.11826,1.4500273 -19.57481,2.6729886 -5.15372,0.9761804 -15.54217,-1.0069424 -15.24728,3.7139716 z"
         style="fill:#e7efc0;fill-opacity:1;stroke:none;stroke-width:0.9613297px;stroke-linecap:butt;stroke-linejoin:miter;stroke-opacity:1" />
      <path
         sodipodi:nodetypes="sssssssssss"
         inkscape:connector-curvature="0"
         id="path969"
         d="m -471.92318,120.23511 c -1.51791,-0.65155 -3.46851,-1.69683 -4.90482,-0.90459 -1.48101,0.81691 -0.20984,3.70772 -1.6272,4.61996 -1.38863,0.89374 -3.65,-1.15094 -5.03863,-0.2572 -1.41737,0.91225 -2.27029,3.11144 -1.62721,4.61997 0.62105,1.45682 2.75086,2.15183 4.40808,2.19262 2.22087,0.0547 5.58336,-2.65778 6.04169,-2.64426 0.45834,0.0135 1.77222,1.26943 2.82305,1.49452 1.16155,0.2488 2.74511,0.59633 3.5618,-0.2206 1.49483,-1.49533 1.01889,-4.3277 0.0678,-6.18576 -0.6808,-1.32991 -2.28277,-2.10442 -3.70453,-2.71466 z"
         style="fill:#e7efc0;fill-opacity:1;stroke:none;stroke-width:0.88328362px;stroke-linecap:butt;stroke-linejoin:miter;stroke-opacity:1" />
      <path
         sodipodi:nodetypes="sssssssssssssssssssssssssssssssssssssss"
         inkscape:connector-curvature="0"
         id="path971"
         d="m -503.84555,121.57311 c 2.27017,-0.2307 4.34012,-1.38888 6.58904,-1.75966 2.60933,-0.43019 6.16272,1.33887 7.92897,-0.526 1.53135,-1.61691 0.91707,-4.65327 -0.26647,-6.52131 -1.72627,-2.72465 -8.11901,-4.69035 -8.68875,-4.81572 -0.56975,-0.12536 -9.02137,0.97467 -13.17751,-0.38873 -1.14281,-0.3749 -1.76283,-1.71253 -2.92166,-2.04023 -0.84599,-0.23924 -1.80592,0.40825 -2.64192,0.13919 -2.93518,-0.94466 -4.27077,-4.45314 -7.05573,-5.74457 -2.64915,-1.228475 -5.75583,-1.22966 -8.66704,-1.666925 -3.18262,-0.478027 -6.54431,-0.07842 -9.60291,-1.043183 -3.26372,-1.029467 -5.6328,-3.955326 -8.91478,-4.930952 -2.26501,-0.673303 -4.8478,0.190708 -7.0948,-0.53497 -1.73836,-0.561405 -3.06084,-1.92668 -4.6181,-2.850172 -1.52452,-0.90405 -2.89985,-2.152246 -4.62441,-2.633231 -2.3112,-0.64459 -4.90405,0.418993 -7.21901,-0.21296 -2.81165,-0.767538 -4.80933,-3.307091 -7.57852,-4.203603 -2.62274,-0.849098 -5.70455,0.04684 -8.2419,-1.010754 -1.83276,-0.763892 -2.6834,-3.104857 -4.59537,-3.666596 -6.3561,-1.867405 -13.40591,0.31226 -19.84254,1.871018 -2.99589,0.725529 -5.47896,2.981109 -8.53526,3.432765 -1.76427,0.260727 -3.61101,-0.889698 -5.33866,-0.464534 -3.36571,0.828242 -5.68089,3.793106 -8.59851,5.580226 -2.48785,1.523888 -5.08728,2.879863 -7.59008,4.381799 -2.06083,1.23675 -4.03561,2.600264 -6.11351,3.811251 -2.8056,1.635055 -6.14634,2.549486 -8.57146,4.659891 -0.94742,0.82448 -2.34698,1.79325 -2.19712,3.00565 0.22284,1.80275 2.5448,2.86381 4.2713,3.65703 4.27493,1.96412 9.32546,1.76194 14.04405,2.25658 5.05161,0.52956 10.15909,0.35732 15.22368,0.75614 6.53995,0.51504 13.03801,1.44265 19.56285,2.11234 7.54299,0.7742 15.13258,1.17065 22.6418,2.20316 5.19844,0.71479 10.26756,2.22079 15.48902,2.75978 7.30835,0.75442 14.70492,0.17968 22.0388,0.65014 2.21693,0.14223 4.43917,0.30453 6.63054,0.65618 3.20944,0.515 6.25521,2.00322 9.50664,2.12272 3.51651,0.12924 6.90871,-1.65281 10.42554,-1.53472 3.08236,0.10353 5.97119,1.53888 9.02505,1.95498 3.08107,0.41982 6.22618,0.85224 9.31874,0.53798 z"
         style="fill:#e7efc0;fill-opacity:1;stroke:none;stroke-width:0.88328362px;stroke-linecap:butt;stroke-linejoin:miter;stroke-opacity:1" />
      <path
         sodipodi:nodetypes="sssssssssssssssssssssssssssssssssssssssssssssss"
         inkscape:connector-curvature="0"
         id="path973"
         d="m -773.12906,142.07506 c -1.62919,-4.90598 8.56979,-6.47867 13.5506,-8.50461 0.97432,-0.3963 2.15708,-0.22007 3.10158,-0.67613 1.76898,-0.85413 2.69046,-2.90746 4.48849,-3.70567 1.54291,-0.68494 3.44938,-0.21933 5.05069,-0.77215 3.85457,-1.33071 7.03685,-3.9902 10.55675,-5.98302 1.67646,-0.94916 3.36366,-1.88167 5.03085,-2.8453 2.07564,-1.19969 4.01575,-2.62333 6.19001,-3.65548 1.41571,-0.67206 3.07618,-0.85315 4.42731,-1.6349 0.53748,-0.31095 0.84282,-0.93415 1.41363,-1.1865 1.09344,-0.48341 2.47179,-0.063 3.58328,-0.50837 1.53699,-0.61592 2.60509,-1.97797 3.97739,-2.87638 3.68013,-2.40931 7.36699,-4.86906 11.38968,-6.72607 3.39596,-1.56769 7.34381,-1.94857 10.65093,-3.677411 2.26516,-1.184146 3.81499,-3.414153 6.13387,-4.501513 1.5147,-0.710252 3.3813,-0.538874 4.90222,-1.237092 1.83146,-0.840782 3.00253,-2.734128 4.88681,-3.463638 1.06361,-0.411788 2.36216,-0.0091 3.41887,-0.436476 1.07406,-0.434349 1.6978,-1.564644 2.73721,-2.068578 1.28374,-0.622387 2.81478,-0.632998 4.16851,-1.105214 1.8688,-0.651897 3.56628,-1.689572 5.42226,-2.37318 2.18774,-0.805786 4.59898,-1.056607 6.70975,-2.028146 1.40772,-0.64795 2.38382,-2.073601 3.88505,-2.495292 4.16695,-1.170488 9.14051,-1.587865 13.04961,0.23144 0.86109,0.400759 1.90976,1.2246 1.80248,2.125743 -0.4103,3.444987 -5.61774,4.450368 -8.62351,6.423865 -3.70148,2.430279 -7.86464,4.191606 -11.54936,6.644604 -2.47255,1.646027 -4.59005,3.735921 -7.05234,5.395558 -1.98091,1.33516 -4.06463,2.5363 -6.19002,3.65549 -2.16238,1.13862 -4.34795,2.26853 -6.66029,3.10426 -2.536,0.91658 -5.2768,1.24169 -7.84628,2.07138 -3.85445,1.24465 -7.50355,3.00232 -11.31945,4.34854 -3.88951,1.3722 -7.82059,2.64566 -11.78982,3.79733 -2.72675,0.79116 -5.61928,1.1037 -8.25374,2.13613 -2.63005,1.0307 -4.7972,2.94859 -7.41663,4.0031 -3.26711,1.31523 -6.94819,1.54308 -10.22093,2.84572 -2.03086,0.80832 -3.71881,2.285 -5.76681,3.05386 -1.56454,0.58734 -3.33298,0.57892 -4.89996,1.1604 -1.63329,0.60606 -2.95283,1.85727 -4.61207,2.39707 -1.61199,0.52446 -3.43995,0.24434 -5.05068,0.77215 -1.24672,0.40853 -2.30416,1.21532 -3.45969,1.81697 -1.12316,0.5848 -2.30779,1.07263 -3.37632,1.74268 -0.94167,0.59051 -1.62945,1.54317 -2.65382,1.99428 -1.28194,0.5645 -2.80014,0.42851 -4.15946,0.79844 -0.95401,0.25963 -1.84071,0.70753 -2.78654,0.99246 -1.18015,0.3555 -2.36709,0.73106 -3.5945,0.89187 -1.07139,0.14037 -2.92074,1.03592 -3.24561,0.0578 z"
         style="fill:#e7efc0;fill-opacity:1;stroke:none;stroke-width:0.88328362px;stroke-linecap:butt;stroke-linejoin:miter;stroke-opacity:1" />
      <path
         sodipodi:nodetypes="ssssssssssssssssssssssssssssssssssssssssssss"
         inkscape:connector-curvature="0"
         id="path975"
         d="m -793.92746,154.35746 c 1.21461,-6.37087 12.7289,-4.75271 18.87559,-7.57991 2.62264,-1.20628 7.37505,-4.00263 7.66157,-3.99418 0.28642,0.008 3.49033,-1.45002 5.27923,-2.06969 1.88199,-0.65194 3.88993,-0.97558 5.72808,-1.73077 2.34762,-0.96454 4.34951,-2.58737 6.69914,-3.54761 2.33825,-0.95559 4.91629,-1.29741 7.2894,-2.17322 1.49499,-0.55174 2.87582,-1.35201 4.35776,-1.93404 2.04897,-0.80473 4.46723,-0.90942 6.25651,-2.14941 0.99646,-0.69058 1.19698,-2.18078 2.25658,-2.78153 3.08764,-1.75061 7.2795,-0.50119 10.66228,-1.66818 2.44255,-0.8426 4.3064,-2.81728 6.70544,-3.76452 3.12099,-1.2323 6.60615,-1.42651 9.81992,-2.42426 3.14355,-0.97594 6.0979,-2.43804 9.22005,-3.47323 2.69998,-0.89525 5.56686,-1.33343 8.21248,-2.36312 1.82578,-0.71061 3.39205,-1.95096 5.23802,-2.61369 2.66684,-0.95747 5.64338,-0.97828 8.31419,-1.92588 2.71996,-0.96502 4.83087,-3.76103 7.73843,-3.78833 2.17299,-0.0203 3.81836,2.01208 5.86053,2.72194 3.42656,1.19114 7.04057,1.84099 10.61379,2.54058 1.45366,0.28461 2.92384,0.49178 4.39557,0.67245 1.13986,0.13992 3.25335,-0.75668 3.43128,0.31833 0.43678,2.63948 -5.06643,2.40313 -7.77652,3.13588 -4.89235,1.32278 -10.12575,1.15233 -15.08927,2.21452 -3.59221,0.76872 -7.03302,2.07051 -10.58236,2.99882 -2.73721,0.7159 -5.53595,1.21802 -8.25849,1.9818 -2.34556,0.65802 -4.65044,1.44132 -6.94727,2.2376 -2.32023,0.8044 -4.50313,1.99155 -6.89947,2.56468 -2.07845,0.4971 -4.30253,0.2592 -6.38673,0.73434 -3.28118,0.74798 -6.27772,2.35936 -9.50178,3.30208 -1.85884,0.54352 -3.80992,0.78234 -5.65956,1.35284 -2.25912,0.69678 -4.39006,1.72157 -6.61145,2.51891 -3.52587,1.26555 -7.2026,2.16364 -10.65717,3.59367 -2.70868,1.12126 -5.18757,2.68957 -7.85615,3.89342 -3.57554,1.61303 -7.23838,3.0515 -10.91198,4.45463 -1.62677,0.62136 -3.26605,1.21652 -4.92591,1.75445 -1.27916,0.41453 -2.60391,0.69943 -3.87552,1.13406 -1.61484,0.55198 -3.32474,0.97329 -4.75719,1.86798 -0.64186,0.40092 -1.37346,0.84601 -1.65063,1.52539 -0.3934,0.96432 0.85763,2.2784 0.19523,3.09965 -1.47682,1.83107 -4.72444,1.22119 -7.15239,1.41737 -3.95845,0.31985 -7.95638,-0.0683 -11.91541,-0.40583 -2.20279,-0.1878 -4.57764,0.0184 -6.56795,-0.89939 -0.34295,-0.15814 -0.89549,-0.39389 -0.82787,-0.74864 z"
         style="fill:#e7efc0;fill-opacity:1;stroke:none;stroke-width:0.88328362px;stroke-linecap:butt;stroke-linejoin:miter;stroke-opacity:1" />
      <path
         sodipodi:nodetypes="sssssssssss"
         inkscape:connector-curvature="0"
         id="path977"
         d="m -798.23216,165.81044 c -0.4881,-1.3726 -0.0551,-3.96395 0.12798,-4.33851 0.18301,-0.37455 2.62311,-1.68532 3.52559,-2.88134 0.76827,-1.01813 0.27846,-2.96014 1.479,-3.48444 1.98983,-0.86902 4.08495,1.62898 6.24953,1.97552 3.05384,0.4889 6.90345,-1.76675 9.28629,0.11111 0.99538,0.78444 1.24098,2.47222 0.75378,3.60463 -0.89119,2.07147 -3.86932,2.56623 -5.84606,3.78988 -2.36024,1.46104 -4.49561,3.41142 -7.17828,4.23909 -1.7516,0.5404 -3.8238,1.07862 -5.51617,0.38007 -1.40541,-0.58011 -2.39257,-2.02073 -2.88166,-3.39601 z"
         style="fill:#e7efc0;fill-opacity:1;stroke:none;stroke-width:0.88328362px;stroke-linecap:butt;stroke-linejoin:miter;stroke-opacity:1" />
    </g>
    <g
       id="g1017"
       transform="matrix(-1,0,0,1,-1647.3602,0)">
      <g
         id="g995"
         transform="matrix(1.25,0,0,-1.25,-655.74861,-144.04561)">
        <path
           d="m 0,0 0.634,-3.082 -1.264,-3.391 -1.58,-2.774 -1.896,-4.014 -2.214,-4.932 -3.473,-6.782 -3.473,-7.095 -3.16,-6.474 -0.948,-1.234 -0.209,1.849 0.841,2.878 2.21,6.068 2.529,7.092 2.21,6.784 1.268,3.392 1.256,4.009 1.585,4.624 1.685,2.054 2.315,1.645 z"
           style="fill:#211d1d;fill-opacity:1;fill-rule:nonzero;stroke:none"
           id="path993"
           inkscape:connector-curvature="0" />
      </g>
      <path
         style="fill:#e7efc0;fill-opacity:1;stroke:none;stroke-width:0.976565px;stroke-linecap:butt;stroke-linejoin:miter;stroke-opacity:1"
         d="m -511.20227,-80.639685 c 0.69562,-2.370398 3.67182,-3.61167 5.93519,-4.875615 4.62819,-2.584539 9.9305,-4.069946 15.17303,-5.28085 3.67075,-0.847846 9.37843,-4.418811 11.25646,-1.356262 0.85533,1.39474 -2.00042,2.619442 -3.18869,3.777443 -1.35268,1.318204 -5.44332,1.996196 -4.44876,3.572654 1.57693,2.499649 5.67078,-3.191606 8.77145,-2.942587 2.31074,0.185577 4.98218,1.288513 6.05441,3.204094 0.41894,0.748551 -0.98958,2.018793 -0.25654,2.516393 0.80716,0.547903 1.75996,-1.239702 2.74649,-1.09817 1.61013,0.231009 2.81991,1.696599 3.70974,2.967877 0.52076,0.743964 -0.0222,2.144725 0.82804,2.547832 1.49775,0.710192 3.23302,-2.219224 4.74978,-1.544873 1.34476,0.597887 1.93552,2.587884 1.5106,3.913665 -0.8812,2.749737 -5.92005,4.371287 -7.39123,5.169913 -1.47119,0.798638 -6.58819,1.766532 -9.8509,2.743053 -3.55568,1.0642 -9.50952,3.425955 -10.59401,3.394519 -1.08438,-0.03143 -5.71569,-0.02419 -7.54567,-1.733029 -0.48571,-0.453607 0.065,-1.482225 -0.48678,-1.864912 -1.74815,-1.212456 -4.5314,1.142772 -6.52173,0.315717 -1.52382,-0.633238 -2.73967,-2.119827 -3.14737,-3.6246 -0.37315,-1.377427 1.78937,-3.060998 0.8491,-4.181762 -1.3004,-1.550018 -4.65,0.852626 -6.32093,-0.351482 -1.5697,-1.131181 -2.35337,-3.491442 -1.83168,-5.269018 z"
         id="path997"
         inkscape:connector-curvature="0"
         sodipodi:nodetypes="ssssssssssssssssssssssss" />
      <path
         style="fill:#e7efc0;fill-opacity:1;stroke:none;stroke-width:0.976565px;stroke-linecap:butt;stroke-linejoin:miter;stroke-opacity:1"
         d="m -470.4444,-67.427966 c 2.89877,-0.724892 5.82825,-1.479359 8.82398,-1.679149 2.19459,-0.146359 4.50243,-0.289173 6.59202,0.35934 1.68328,0.522431 3.49003,1.341593 4.44023,2.736661 0.85238,1.251446 -0.0623,3.084705 0.68217,4.394414 1.50932,2.656838 4.42397,4.473229 7.14334,6.096007 3.67487,2.192917 8.42712,2.484062 12.06879,4.724472 2.38763,1.468856 6.18972,4.72232 6.16449,5.562872 -0.0252,0.840541 1.59953,6.37887 3.80681,8.775495 1.8988,2.061737 5.49621,2.213436 7.51895,4.170605 1.88246,1.821432 1.66651,5.210289 3.89347,6.656449 1.83194,1.189641 4.49885,0.269222 6.62435,0.905875 4.23169,1.267549 7.63993,4.376878 11.85297,5.69743 3.71611,1.16479 7.8973,0.637955 11.58369,1.882455 2.45801,0.829828 6.3331,2.087165 6.79792,3.647311 0.46481,1.560138 5.28568,7.7790043 2.87744,10.6721367 -2.0855,2.50540875 -6.85144,0.4784575 -10.23489,0.060245 -3.74154,-0.4624752 -7.83422,-0.7813369 -10.91622,-2.8148951 -1.99136,-1.3139677 -2.036,-4.5102496 -4.18112,-5.5940246 -2.13759,-1.079962 -6.65291,0.0451 -7.28479,-0.211166 -0.6319,-0.256269 -4.22629,-6.62783 -7.67758,-8.431791 -2.39968,-1.254298 -5.73795,0.04382 -8.15095,-1.188071 -3.17627,-1.62154 -3.95378,-6.072216 -7.19124,-7.584872 -2.97831,-1.391568 -6.75346,0.09402 -9.95447,-0.764453 -3.59293,-0.963564 -7.4822,-2.201985 -9.96087,-4.809763 -2.86676,-3.016092 -1.91237,-8.102518 -4.52104,-11.314651 -2.40503,-2.961435 -5.9855,-5.12453 -9.65167,-6.585432 -1.62518,-0.647594 -3.5914,-0.221796 -5.21855,-0.865116 -1.18718,-0.469366 -1.91398,-1.725353 -3.13439,-2.11343 -0.92842,-0.295239 -2.13225,0.434484 -2.9395,-0.08521 -1.8067,-1.163136 -0.82577,-4.358776 -2.51613,-5.664733 -3.00166,-2.319046 -11.20668,1.382367 -11.44526,-2.235353 -0.30396,-4.61046 9.31737,-3.201663 14.10805,-4.399655 z"
         id="path999"
         inkscape:connector-curvature="0"
         sodipodi:nodetypes="sssssssssssssssssssssssssssssssss" />
      <path
         style="fill:#e7efc0;fill-opacity:1;stroke:none;stroke-width:0.99931151px;stroke-linecap:butt;stroke-linejoin:miter;stroke-opacity:1"
         d="m -640.79127,-0.4332577 c -5.13681,-0.55462722 6.33959,-6.2168604 10.47524,-7.5126823 2.03106,-0.6363988 4.3621,0.6545342 6.40966,0.069313 2.90816,-0.8311833 4.65358,-4.089526 7.57784,-4.866233 4.44715,-1.181197 9.24639,1.171852 13.83007,0.66624 2.80483,-0.309397 5.4131,-2.947547 8.14334,-2.239466 1.72348,0.44698 3.96768,2.003941 3.7399,3.716804 -0.30428,2.2889336 -4.00855,2.497638 -6.12906,3.5430094 -1.71855,0.8472139 -3.42481,1.8547353 -5.32106,2.200437 -0.96516,0.1759548 -2.08943,-0.5516715 -2.94685,-0.089 -1.10072,0.5940122 -1.00552,2.3016775 -1.88665,3.1740578 -1.2083,1.19641276 -3.6626,2.49905716 -4.43496,2.60001013 -0.77225,0.10093812 -3.79561,0.32868597 -5.2959,1.33130147 -0.50655,0.3384823 -0.48219,1.275384 -1.06791,1.4589971 -0.97638,0.3060854 -2.10639,-0.3501779 -2.9218,-0.9581406 -0.70575,-0.5262003 -0.70074,-1.73404679 -1.47662,-2.15720081 -4.51165,-2.46069419 -10.34291,-0.21593457 -15.49936,-0.59238506 -1.06877,-0.07802899 -3.19588,-0.34506368 -3.19588,-0.34506454 z"
         id="path1001"
         inkscape:connector-curvature="0"
         sodipodi:nodetypes="ssssssssssssssssss" />
      <path
         style="fill:#e7efc0;fill-opacity:1;stroke:none;stroke-width:0.99931151px;stroke-linecap:butt;stroke-linejoin:miter;stroke-opacity:1"
         d="m -602.06534,-4.855833 c 2.81818,-1.1409482 6.35417,0.3935676 9.12894,-0.842722 2.38533,-1.06275 3.44789,-3.9379828 5.66669,-5.296767 1.32614,-0.812107 2.9808,-2.250964 4.40635,-1.60671 1.82879,0.826474 0.12338,4.8643622 2.02065,5.528942 1.86326,0.6526732 3.12786,-2.6814411 5.08622,-2.953153 1.90746,-0.264658 4.03522,0.3179081 5.60163,1.4118888 0.5489,0.3833459 0.46011,1.4569769 1.10661,1.6489415 1.75622,0.5214909 3.23397,-1.9240624 5.06118,-2.0840158 2.25248,-0.1971917 4.38872,1.113908 6.62658,1.4428456 7.78543,1.1443598 15.89437,0.00419 23.54241,1.8294692 1.82716,0.4360686 3.3474,1.8049976 5.19583,2.1452578 2.14563,0.3949674 4.69768,-1.3077038 6.54496,-0.1751404 1.68206,1.0312777 3.30285,3.57301323 2.41226,5.2922262 -1.75994,3.3972557 -7.66212,1.6521087 -11.48526,2.511348 -5.08486,1.1428146 -10.1082,2.5530181 -15.23296,3.516595 -5.83741,1.0975609 -11.70983,2.1511983 -17.6423,2.5739341 -2.98317,0.212572 -6.02106,-0.4691721 -8.97575,-0.02255 -2.50895,0.379247 -4.72801,1.950027 -7.24641,2.266558 -5.54954,0.697506 -11.57913,1.160691 -16.77345,-0.879409 -1.69017,-0.66383 -3.43317,-1.8472065 -4.13141,-3.4800878 -0.77029,-1.8015699 1.77407,-4.3802331 0.42445,-5.8279051 -2.15171,-2.30802685 -8.55456,2.6455973 -9.60923,-0.29022 -1.18536,-3.2994949 4.95283,-5.3655585 8.27201,-6.7093285 z"
         id="path1003"
         inkscape:connector-curvature="0"
         sodipodi:nodetypes="ssssssssssssssssssssssss" />
      <path
         style="fill:#e7efc0;fill-opacity:1;stroke:none;stroke-width:0.9613297px;stroke-linecap:butt;stroke-linejoin:miter;stroke-opacity:1"
         d="m -561.63053,10.941536 c 0.14941,2.392198 6.19956,-0.699798 7.915,1.141255 3.29305,3.534146 -2.25597,9.535163 -0.30127,13.792025 1.03762,2.259705 3.38418,4.103915 5.86801,5.109169 11.12377,4.502072 24.36458,1.189657 36.46851,2.514343 7.87809,0.862195 15.62955,2.514413 23.48516,3.531503 3.31304,0.428946 6.85887,-0.033 9.96851,1.083643 0.96941,0.348105 1.5394,1.340331 2.51244,1.680277 5.07407,1.772836 10.87177,0.682416 16.23939,1.488924 4.90301,0.736693 9.60333,2.416839 14.52372,3.051023 5.24785,0.67639 10.57722,0.763347 15.87653,0.788763 3.38493,0.01623 6.88839,0.417793 10.14317,-0.406526 1.76841,-0.447869 4.27804,-0.820479 4.8192,-2.395386 0.77059,-2.242543 -1.59214,-4.715732 -3.52233,-6.308646 -5.23028,-4.316297 -12.73765,-6.33132 -19.7833,-7.108154 -2.5386,-0.279895 -5.04524,1.113857 -7.59498,0.937757 -2.16003,-0.149188 -4.4017,-0.624506 -6.23152,-1.669221 -0.89362,-0.510218 -1.15821,-1.719241 -2.11367,-2.129142 -2.23858,-0.960384 -5.06912,0.367356 -7.42757,-0.322605 -3.72363,-1.089332 -6.34632,-4.172178 -9.82184,-5.794697 -4.23747,-1.978233 -9.86174,-1.781821 -13.31694,-4.74235 -1.20401,-1.031621 -0.67561,-3.243547 -2.05297,-4.082511 -2.47799,-1.509447 -6.12363,0.480529 -8.96502,-0.365576 -1.97039,-0.586755 -3.1002,-2.9089603 -5.15995,-3.1343154 -1.92232,-0.2103242 -3.62409,2.4049214 -5.44204,1.8029582 -1.6377,-0.5422621 -1.07858,-3.2750488 -2.56535,-4.0968324 -5.31852,-2.9397794 -12.4704,-1.0494952 -18.6988,-0.7526386 -6.59291,0.3142232 -13.11826,1.4500273 -19.57481,2.6729886 -5.15372,0.9761804 -15.54217,-1.0069424 -15.24728,3.7139716 z"
         id="path1005"
         inkscape:connector-curvature="0"
         sodipodi:nodetypes="sssssssssssssssssssssssssssss" />
      <path
         style="fill:#e7efc0;fill-opacity:1;stroke:none;stroke-width:0.88328362px;stroke-linecap:butt;stroke-linejoin:miter;stroke-opacity:1"
         d="m -471.92318,120.23511 c -1.51791,-0.65155 -3.46851,-1.69683 -4.90482,-0.90459 -1.48101,0.81691 -0.20984,3.70772 -1.6272,4.61996 -1.38863,0.89374 -3.65,-1.15094 -5.03863,-0.2572 -1.41737,0.91225 -2.27029,3.11144 -1.62721,4.61997 0.62105,1.45682 2.75086,2.15183 4.40808,2.19262 2.22087,0.0547 5.58336,-2.65778 6.04169,-2.64426 0.45834,0.0135 1.77222,1.26943 2.82305,1.49452 1.16155,0.2488 2.74511,0.59633 3.5618,-0.2206 1.49483,-1.49533 1.01889,-4.3277 0.0678,-6.18576 -0.6808,-1.32991 -2.28277,-2.10442 -3.70453,-2.71466 z"
         id="path1007"
         inkscape:connector-curvature="0"
         sodipodi:nodetypes="sssssssssss" />
      <path
         style="fill:#e7efc0;fill-opacity:1;stroke:none;stroke-width:0.88328362px;stroke-linecap:butt;stroke-linejoin:miter;stroke-opacity:1"
         d="m -503.84555,121.57311 c 2.27017,-0.2307 4.34012,-1.38888 6.58904,-1.75966 2.60933,-0.43019 6.16272,1.33887 7.92897,-0.526 1.53135,-1.61691 0.91707,-4.65327 -0.26647,-6.52131 -1.72627,-2.72465 -8.11901,-4.69035 -8.68875,-4.81572 -0.56975,-0.12536 -9.02137,0.97467 -13.17751,-0.38873 -1.14281,-0.3749 -1.76283,-1.71253 -2.92166,-2.04023 -0.84599,-0.23924 -1.80592,0.40825 -2.64192,0.13919 -2.93518,-0.94466 -4.27077,-4.45314 -7.05573,-5.74457 -2.64915,-1.228475 -5.75583,-1.22966 -8.66704,-1.666925 -3.18262,-0.478027 -6.54431,-0.07842 -9.60291,-1.043183 -3.26372,-1.029467 -5.6328,-3.955326 -8.91478,-4.930952 -2.26501,-0.673303 -4.8478,0.190708 -7.0948,-0.53497 -1.73836,-0.561405 -3.06084,-1.92668 -4.6181,-2.850172 -1.52452,-0.90405 -2.89985,-2.152246 -4.62441,-2.633231 -2.3112,-0.64459 -4.90405,0.418993 -7.21901,-0.21296 -2.81165,-0.767538 -4.80933,-3.307091 -7.57852,-4.203603 -2.62274,-0.849098 -5.70455,0.04684 -8.2419,-1.010754 -1.83276,-0.763892 -2.6834,-3.104857 -4.59537,-3.666596 -6.3561,-1.867405 -13.40591,0.31226 -19.84254,1.871018 -2.99589,0.725529 -5.47896,2.981109 -8.53526,3.432765 -1.76427,0.260727 -3.61101,-0.889698 -5.33866,-0.464534 -3.36571,0.828242 -5.68089,3.793106 -8.59851,5.580226 -2.48785,1.523888 -5.08728,2.879863 -7.59008,4.381799 -2.06083,1.23675 -4.03561,2.600264 -6.11351,3.811251 -2.8056,1.635055 -6.14634,2.549486 -8.57146,4.659891 -0.94742,0.82448 -2.34698,1.79325 -2.19712,3.00565 0.22284,1.80275 2.5448,2.86381 4.2713,3.65703 4.27493,1.96412 9.32546,1.76194 14.04405,2.25658 5.05161,0.52956 10.15909,0.35732 15.22368,0.75614 6.53995,0.51504 13.03801,1.44265 19.56285,2.11234 7.54299,0.7742 15.13258,1.17065 22.6418,2.20316 5.19844,0.71479 10.26756,2.22079 15.48902,2.75978 7.30835,0.75442 14.70492,0.17968 22.0388,0.65014 2.21693,0.14223 4.43917,0.30453 6.63054,0.65618 3.20944,0.515 6.25521,2.00322 9.50664,2.12272 3.51651,0.12924 6.90871,-1.65281 10.42554,-1.53472 3.08236,0.10353 5.97119,1.53888 9.02505,1.95498 3.08107,0.41982 6.22618,0.85224 9.31874,0.53798 z"
         id="path1009"
         inkscape:connector-curvature="0"
         sodipodi:nodetypes="sssssssssssssssssssssssssssssssssssssss" />
      <path
         style="fill:#e7efc0;fill-opacity:1;stroke:none;stroke-width:0.88328362px;stroke-linecap:butt;stroke-linejoin:miter;stroke-opacity:1"
         d="m -773.12906,142.07506 c -1.62919,-4.90598 8.56979,-6.47867 13.5506,-8.50461 0.97432,-0.3963 2.15708,-0.22007 3.10158,-0.67613 1.76898,-0.85413 2.69046,-2.90746 4.48849,-3.70567 1.54291,-0.68494 3.44938,-0.21933 5.05069,-0.77215 3.85457,-1.33071 7.03685,-3.9902 10.55675,-5.98302 1.67646,-0.94916 3.36366,-1.88167 5.03085,-2.8453 2.07564,-1.19969 4.01575,-2.62333 6.19001,-3.65548 1.41571,-0.67206 3.07618,-0.85315 4.42731,-1.6349 0.53748,-0.31095 0.84282,-0.93415 1.41363,-1.1865 1.09344,-0.48341 2.47179,-0.063 3.58328,-0.50837 1.53699,-0.61592 2.60509,-1.97797 3.97739,-2.87638 3.68013,-2.40931 7.36699,-4.86906 11.38968,-6.72607 3.39596,-1.56769 7.34381,-1.94857 10.65093,-3.677411 2.26516,-1.184146 3.81499,-3.414153 6.13387,-4.501513 1.5147,-0.710252 3.3813,-0.538874 4.90222,-1.237092 1.83146,-0.840782 3.00253,-2.734128 4.88681,-3.463638 1.06361,-0.411788 2.36216,-0.0091 3.41887,-0.436476 1.07406,-0.434349 1.6978,-1.564644 2.73721,-2.068578 1.28374,-0.622387 2.81478,-0.632998 4.16851,-1.105214 1.8688,-0.651897 3.56628,-1.689572 5.42226,-2.37318 2.18774,-0.805786 4.59898,-1.056607 6.70975,-2.028146 1.40772,-0.64795 2.38382,-2.073601 3.88505,-2.495292 4.16695,-1.170488 9.14051,-1.587865 13.04961,0.23144 0.86109,0.400759 1.90976,1.2246 1.80248,2.125743 -0.4103,3.444987 -5.61774,4.450368 -8.62351,6.423865 -3.70148,2.430279 -7.86464,4.191606 -11.54936,6.644604 -2.47255,1.646027 -4.59005,3.735921 -7.05234,5.395558 -1.98091,1.33516 -4.06463,2.5363 -6.19002,3.65549 -2.16238,1.13862 -4.34795,2.26853 -6.66029,3.10426 -2.536,0.91658 -5.2768,1.24169 -7.84628,2.07138 -3.85445,1.24465 -7.50355,3.00232 -11.31945,4.34854 -3.88951,1.3722 -7.82059,2.64566 -11.78982,3.79733 -2.72675,0.79116 -5.61928,1.1037 -8.25374,2.13613 -2.63005,1.0307 -4.7972,2.94859 -7.41663,4.0031 -3.26711,1.31523 -6.94819,1.54308 -10.22093,2.84572 -2.03086,0.80832 -3.71881,2.285 -5.76681,3.05386 -1.56454,0.58734 -3.33298,0.57892 -4.89996,1.1604 -1.63329,0.60606 -2.95283,1.85727 -4.61207,2.39707 -1.61199,0.52446 -3.43995,0.24434 -5.05068,0.77215 -1.24672,0.40853 -2.30416,1.21532 -3.45969,1.81697 -1.12316,0.5848 -2.30779,1.07263 -3.37632,1.74268 -0.94167,0.59051 -1.62945,1.54317 -2.65382,1.99428 -1.28194,0.5645 -2.80014,0.42851 -4.15946,0.79844 -0.95401,0.25963 -1.84071,0.70753 -2.78654,0.99246 -1.18015,0.3555 -2.36709,0.73106 -3.5945,0.89187 -1.07139,0.14037 -2.92074,1.03592 -3.24561,0.0578 z"
         id="path1011"
         inkscape:connector-curvature="0"
         sodipodi:nodetypes="sssssssssssssssssssssssssssssssssssssssssssssss" />
      <path
         style="fill:#e7efc0;fill-opacity:1;stroke:none;stroke-width:0.88328362px;stroke-linecap:butt;stroke-linejoin:miter;stroke-opacity:1"
         d="m -793.92746,154.35746 c 1.21461,-6.37087 12.7289,-4.75271 18.87559,-7.57991 2.62264,-1.20628 7.37505,-4.00263 7.66157,-3.99418 0.28642,0.008 3.49033,-1.45002 5.27923,-2.06969 1.88199,-0.65194 3.88993,-0.97558 5.72808,-1.73077 2.34762,-0.96454 4.34951,-2.58737 6.69914,-3.54761 2.33825,-0.95559 4.91629,-1.29741 7.2894,-2.17322 1.49499,-0.55174 2.87582,-1.35201 4.35776,-1.93404 2.04897,-0.80473 4.46723,-0.90942 6.25651,-2.14941 0.99646,-0.69058 1.19698,-2.18078 2.25658,-2.78153 3.08764,-1.75061 7.2795,-0.50119 10.66228,-1.66818 2.44255,-0.8426 4.3064,-2.81728 6.70544,-3.76452 3.12099,-1.2323 6.60615,-1.42651 9.81992,-2.42426 3.14355,-0.97594 6.0979,-2.43804 9.22005,-3.47323 2.69998,-0.89525 5.56686,-1.33343 8.21248,-2.36312 1.82578,-0.71061 3.39205,-1.95096 5.23802,-2.61369 2.66684,-0.95747 5.64338,-0.97828 8.31419,-1.92588 2.71996,-0.96502 4.83087,-3.76103 7.73843,-3.78833 2.17299,-0.0203 3.81836,2.01208 5.86053,2.72194 3.42656,1.19114 7.04057,1.84099 10.61379,2.54058 1.45366,0.28461 2.92384,0.49178 4.39557,0.67245 1.13986,0.13992 3.25335,-0.75668 3.43128,0.31833 0.43678,2.63948 -5.06643,2.40313 -7.77652,3.13588 -4.89235,1.32278 -10.12575,1.15233 -15.08927,2.21452 -3.59221,0.76872 -7.03302,2.07051 -10.58236,2.99882 -2.73721,0.7159 -5.53595,1.21802 -8.25849,1.9818 -2.34556,0.65802 -4.65044,1.44132 -6.94727,2.2376 -2.32023,0.8044 -4.50313,1.99155 -6.89947,2.56468 -2.07845,0.4971 -4.30253,0.2592 -6.38673,0.73434 -3.28118,0.74798 -6.27772,2.35936 -9.50178,3.30208 -1.85884,0.54352 -3.80992,0.78234 -5.65956,1.35284 -2.25912,0.69678 -4.39006,1.72157 -6.61145,2.51891 -3.52587,1.26555 -7.2026,2.16364 -10.65717,3.59367 -2.70868,1.12126 -5.18757,2.68957 -7.85615,3.89342 -3.57554,1.61303 -7.23838,3.0515 -10.91198,4.45463 -1.62677,0.62136 -3.26605,1.21652 -4.92591,1.75445 -1.27916,0.41453 -2.60391,0.69943 -3.87552,1.13406 -1.61484,0.55198 -3.32474,0.97329 -4.75719,1.86798 -0.64186,0.40092 -1.37346,0.84601 -1.65063,1.52539 -0.3934,0.96432 0.85763,2.2784 0.19523,3.09965 -1.47682,1.83107 -4.72444,1.22119 -7.15239,1.41737 -3.95845,0.31985 -7.95638,-0.0683 -11.91541,-0.40583 -2.20279,-0.1878 -4.57764,0.0184 -6.56795,-0.89939 -0.34295,-0.15814 -0.89549,-0.39389 -0.82787,-0.74864 z"
         id="path1013"
         inkscape:connector-curvature="0"
         sodipodi:nodetypes="ssssssssssssssssssssssssssssssssssssssssssss" />
      <path
         style="fill:#e7efc0;fill-opacity:1;stroke:none;stroke-width:0.88328362px;stroke-linecap:butt;stroke-linejoin:miter;stroke-opacity:1"
         d="m -798.23216,165.81044 c -0.4881,-1.3726 -0.0551,-3.96395 0.12798,-4.33851 0.18301,-0.37455 2.62311,-1.68532 3.52559,-2.88134 0.76827,-1.01813 0.27846,-2.96014 1.479,-3.48444 1.98983,-0.86902 4.08495,1.62898 6.24953,1.97552 3.05384,0.4889 6.90345,-1.76675 9.28629,0.11111 0.99538,0.78444 1.24098,2.47222 0.75378,3.60463 -0.89119,2.07147 -3.86932,2.56623 -5.84606,3.78988 -2.36024,1.46104 -4.49561,3.41142 -7.17828,4.23909 -1.7516,0.5404 -3.8238,1.07862 -5.51617,0.38007 -1.40541,-0.58011 -2.39257,-2.02073 -2.88166,-3.39601 z"
         id="path1015"
         inkscape:connector-curvature="0"
         sodipodi:nodetypes="sssssssssss" />
    </g>
    <g
       id="g1103">
      <path
         inkscape:connector-curvature="0"
         id="path1019"
         d="m -791.96076,206.48108 c 0.3348,-1.03735 2.3438,-5.6313 2.3438,-5.6313 l 7.5335,1.33373 3.683,-3.55661 5.1897,1.33372 6.3616,-4.59395 h 9.7099 l 6.3616,6.07588 44.5312,17.04208 21.2612,-0.74096 6.8638,6.07587 -7.5335,3.11203 -9.0401,0.1482 -5.8594,1.92649 -22.0982,-0.14819 -8.2032,3.26022 -6.3616,-0.14819 -6.529,0.59277 -5.3571,-1.63012 -9.5424,2.51928 h -8.7054 l -8.5379,-3.55661 -6.1942,2.81564 -5.5246,-0.29638 -5.3571,-4.59395 -1.5067,-10.07706 -1.0045,-3.7048 z"
         style="fill:#e7efc0;fill-opacity:1;stroke:none;stroke-width:0.88204765px;stroke-linecap:butt;stroke-linejoin:miter;stroke-opacity:1" />
      <path
         inkscape:connector-curvature="0"
         id="path1021"
         d="m -752.61926,194.62572 0.6697,4.29757 10.5469,5.63129 17.4944,6.07588 13.8951,5.48309 5.5245,2.00059 19.0011,-1.55601 7.1987,6.89094 5.7757,1.18553 10.8817,-2.22288 12.3047,-0.22229 4.2689,-0.66686 -6.6127,-5.26082 -14.7321,-10.22525 -12.0536,-8.44695 -9.8772,-5.92767 -21.596,0.59276 -6.6965,1.03734 -15.7366,0.29639 -9.5424,-0.29639 z"
         style="fill:#e7efc0;fill-opacity:1;stroke:none;stroke-width:0.88204765px;stroke-linecap:butt;stroke-linejoin:miter;stroke-opacity:1" />
      <path
         inkscape:connector-curvature="0"
         id="path1023"
         d="m -661.60956,193.41589 -6.6291,-1.25746 -11.9561,-0.31436 -6.9843,-0.31436 7.1027,4.40108 12.7847,8.17344 7.6945,6.39204 15.981,10.37396 11.3642,-3.3532 h 11.0091 l 6.7475,0.62872 7.6945,-2.41011 -12.548,-7.02077 -26.3981,-10.68833 z"
         style="fill:#e7efc0;fill-opacity:1;stroke:none;stroke-width:0.88204765px;stroke-linecap:butt;stroke-linejoin:miter;stroke-opacity:1" />
      <path
         inkscape:connector-curvature="0"
         id="path1025"
         d="m -659.24196,191.6345 30.4229,0.10479 29.1208,5.76331 24.3857,7.85906 3.0778,7.96387 -4.2615,2.72448 -0.5919,3.03884 -10.8907,-0.9431 -10.4172,-1.99095 -7.221,-0.9431 -13.8502,-6.81119 -14.2053,-6.18247 -11.3642,-4.92501 -12.7847,-3.66756 -7.6945,-1.57182 2.0124,-0.41915 z"
         style="fill:#e7efc0;fill-opacity:1;stroke:none;stroke-width:0.88204765px;stroke-linecap:butt;stroke-linejoin:miter;stroke-opacity:1" />
      <path
         inkscape:connector-curvature="0"
         id="path1027"
         d="m -565.84236,205.78082 13.9685,-1.04787 6.9843,3.77235 4.3799,4.82023 -1.3021,5.13459 -7.4578,1.04788 -8.7599,-1.7814 c 0,0 -3.4329,-3.77234 -4.0248,-3.77234 -0.5919,0 -9.2334,-0.20958 -9.2334,-0.20958 l -3.9065,-8.38302 z"
         style="fill:#e7efc0;fill-opacity:1;stroke:none;stroke-width:0.88204765px;stroke-linecap:butt;stroke-linejoin:miter;stroke-opacity:1" />
      <path
         inkscape:connector-curvature="0"
         id="path1029"
         d="m -526.86586,194.10704 -3.3482,-0.44457 1.5067,2.88974 3.0971,1.77831 0.9207,-1.77831 z"
         style="fill:#e7efc0;fill-opacity:1;stroke:none;stroke-width:0.88204765px;stroke-linecap:butt;stroke-linejoin:miter;stroke-opacity:1" />
      <path
         inkscape:connector-curvature="0"
         id="path1031"
         d="m -520.42056,209.51901 0.9208,4.00119 2.3437,1.9265 0.7534,3.5566 2.9296,0.66687 1.8416,-1.55603 -2.3438,-4.81623 -3.5993,-3.85299 z"
         style="fill:#e7efc0;fill-opacity:1;stroke:none;stroke-width:0.88204765px;stroke-linecap:butt;stroke-linejoin:miter;stroke-opacity:1" />
      <path
         inkscape:connector-curvature="0"
         id="path1033"
         d="m -516.15156,236.71225 -3.4319,0.96324 -1.0045,2.74156 3.4319,2.44516 5.0223,-1.33372 0.5023,-2.51927 -1.7579,-2.22288 z"
         style="fill:#e7efc0;fill-opacity:1;stroke:none;stroke-width:0.88204765px;stroke-linecap:butt;stroke-linejoin:miter;stroke-opacity:1" />
      <path
         inkscape:connector-curvature="0"
         id="path1035"
         d="m -528.45626,250.34591 -2.3438,0.96324 -0.9207,5.48312 1.423,2.88974 3.9341,-1.18553 1.7578,-4.14938 -0.837,-3.33433 z"
         style="fill:#e7efc0;fill-opacity:1;stroke:none;stroke-width:0.88204765px;stroke-linecap:butt;stroke-linejoin:miter;stroke-opacity:1" />
      <path
         inkscape:connector-curvature="0"
         id="path1037"
         d="m -549.88486,258.86696 -6.6127,0.14819 -0.9208,3.18612 1.3393,3.7789 4.0179,1.03735 h 6.3616 l 3.0134,-0.44458 1.3393,-3.03794 -1.423,-2.44516 -4.6038,-0.22229 -0.8371,-2.22288 z"
         style="fill:#e7efc0;fill-opacity:1;stroke:none;stroke-width:0.88204765px;stroke-linecap:butt;stroke-linejoin:miter;stroke-opacity:1" />
      <path
         inkscape:connector-curvature="0"
         id="path1039"
         d="m -566.20736,269.61087 -1.8415,-3.26022 -2.7623,0.44458 -1.7578,3.85299 1.0881,6.07587 1.1719,2.74156 3.9342,0.81505 3.5156,-3.11203 1.5904,-5.18673 -1.0882,-1.7783 h -2.0926 z"
         style="fill:#e7efc0;fill-opacity:1;stroke:none;stroke-width:0.88204765px;stroke-linecap:butt;stroke-linejoin:miter;stroke-opacity:1" />
      <path
         inkscape:connector-curvature="0"
         id="path1041"
         d="m -587.30116,278.20601 -4.7712,-1.33372 -4.7712,0.37047 -0.837,4.81624 1.1718,2.81565 4.6038,3.7048 5.692,0.29638 5.4408,-2.29698 -0.5022,-3.26022 -3.683,-3.6307 z"
         style="fill:#e7efc0;fill-opacity:1;stroke:none;stroke-width:0.88204765px;stroke-linecap:butt;stroke-linejoin:miter;stroke-opacity:1" />
      <path
         inkscape:connector-curvature="0"
         id="path1043"
         d="m -610.82236,280.2807 -3.8504,-1.03734 -4.6875,0.59275 -2.009,3.48252 1.5067,5.85359 4.9387,4.74215 5.0223,0.81504 3.683,-2.59335 1.5904,-4.22347 -3.1808,-4.81624 z"
         style="fill:#e7efc0;fill-opacity:1;stroke:none;stroke-width:0.88204765px;stroke-linecap:butt;stroke-linejoin:miter;stroke-opacity:1" />
      <path
         inkscape:connector-curvature="0"
         id="path1045"
         d="m -631.74866,285.46742 -4.1016,-4.81624 -5.0223,0.66687 -3.9342,3.33432 1.2556,5.409 5.7757,6.81683 6.4453,0.44458 4.6038,-2.29697 -0.084,-3.48251 z"
         style="fill:#e7efc0;fill-opacity:1;stroke:none;stroke-width:0.88204765px;stroke-linecap:butt;stroke-linejoin:miter;stroke-opacity:1" />
      <path
         inkscape:connector-curvature="0"
         id="path1047"
         d="m -655.85586,283.46683 -5.2734,-1.48193 -4.0179,2.96385 -0.2511,6.66864 3.5994,5.70539 5.8593,1.33373 4.9386,-0.22229 0.9208,-5.33491 -2.0089,-5.6313 z"
         style="fill:#e7efc0;fill-opacity:1;stroke:none;stroke-width:0.88204765px;stroke-linecap:butt;stroke-linejoin:miter;stroke-opacity:1" />
      <path
         inkscape:connector-curvature="0"
         id="path1049"
         d="m -673.76876,286.72705 c -0.4185,-1.03734 -4.1853,-4.29757 -4.1853,-4.29757 l -5.3571,-0.74095 -4.3527,3.18612 0.6696,4.07528 3.6831,6.29816 5.0223,4.14938 4.3527,-0.0741 3.3482,-0.66686 0.6696,-4.37166 z"
         style="fill:#e7efc0;fill-opacity:1;stroke:none;stroke-width:0.88204765px;stroke-linecap:butt;stroke-linejoin:miter;stroke-opacity:1" />
      <path
         inkscape:connector-curvature="0"
         id="path1051"
         d="m -695.69956,284.35597 -5.2734,-3.70479 -6.5291,2.37107 -1.423,3.77889 1.5067,5.92769 7.952,6.44635 4.4364,-2.44517 3.3482,1.9265 2.3438,-0.44458 -1.3393,-5.33491 z"
         style="fill:#e7efc0;fill-opacity:1;stroke:none;stroke-width:0.88204765px;stroke-linecap:butt;stroke-linejoin:miter;stroke-opacity:1" />
      <path
         inkscape:connector-curvature="0"
         id="path1053"
         d="m -717.37926,282.79996 -4.3527,-2.88975 -4.1015,0.44458 -0.6697,2.66746 3.5993,5.03853 1.423,4.81624 5.3572,4.22347 4.9386,-0.66687 -0.6696,-5.70539 -3.5157,-5.26081 z"
         style="fill:#e7efc0;fill-opacity:1;stroke:none;stroke-width:0.88204765px;stroke-linecap:butt;stroke-linejoin:miter;stroke-opacity:1" />
      <path
         inkscape:connector-curvature="0"
         id="path1055"
         d="m -729.60026,279.31745 -6.529,-2.07469 -2.4275,3.55661 5.2735,9.92886 5.9431,7.5578 5.106,0.37048 0.3348,-4.07529 -3.4319,-5.2608 0.1674,-4.14938 z"
         style="fill:#e7efc0;fill-opacity:1;stroke:none;stroke-width:0.88204765px;stroke-linecap:butt;stroke-linejoin:miter;stroke-opacity:1" />
      <path
         inkscape:connector-curvature="0"
         id="path1057"
         d="m -741.15156,278.79877 -3.0134,-2.81564 -5.3572,0.88916 -1.3392,3.5566 2.0926,5.92768 7.4498,7.92827 3.9341,-0.0741 1.7578,-2.88975 -0.6696,-5.63129 z"
         style="fill:#e7efc0;fill-opacity:1;stroke:none;stroke-width:0.88204765px;stroke-linecap:butt;stroke-linejoin:miter;stroke-opacity:1" />
      <path
         inkscape:connector-curvature="0"
         id="path1059"
         d="m -754.79556,278.72468 c -0.5022,-0.59277 -1.2556,-5.03853 -1.2556,-5.03853 l -1.5067,-2.00059 -4.0178,0.0741 -0.4186,5.77949 1.0045,4.96444 2.846,3.92708 2.6786,1.77831 3.5156,-0.96324 0.9207,-3.33433 -2.5948,-3.40841 z"
         style="fill:#e7efc0;fill-opacity:1;stroke:none;stroke-width:0.88204765px;stroke-linecap:butt;stroke-linejoin:miter;stroke-opacity:1" />
      <path
         inkscape:connector-curvature="0"
         id="path1061"
         d="m -589.75456,315.91257 -2.9594,0.31436 0.3551,1.67659 3.5513,0.31437 1.4206,-1.04788 z"
         style="fill:#e7efc0;fill-opacity:1;stroke:none;stroke-width:0.88204765px;stroke-linecap:butt;stroke-linejoin:miter;stroke-opacity:1" />
      <path
         inkscape:connector-curvature="0"
         id="path1063"
         d="m -610.82566,325.34345 -5.8005,0.41915 0.7102,2.82927 5.6821,0.83829 2.7227,-2.20054 -1.894,-1.57181 z"
         style="fill:#e7efc0;fill-opacity:1;stroke:none;stroke-width:0.88204765px;stroke-linecap:butt;stroke-linejoin:miter;stroke-opacity:1" />
      <path
         inkscape:connector-curvature="0"
         id="path1065"
         d="m -633.31736,331.52592 -3.433,1.99095 -0.3551,2.93406 3.9065,1.25746 4.4983,-2.30533 -1.1838,-3.56278 z"
         style="fill:#e7efc0;fill-opacity:1;stroke:none;stroke-width:0.88204765px;stroke-linecap:butt;stroke-linejoin:miter;stroke-opacity:1" />
      <path
         inkscape:connector-curvature="0"
         id="path1067"
         d="m -653.79666,335.40306 -4.4983,-0.73352 -1.3022,2.72448 2.2492,3.35321 5.4454,-0.41917 v -2.41011 z"
         style="fill:#e7efc0;fill-opacity:1;stroke:none;stroke-width:0.88204765px;stroke-linecap:butt;stroke-linejoin:miter;stroke-opacity:1" />
      <path
         inkscape:connector-curvature="0"
         id="path1069"
         d="m -673.80236,336.13657 -4.4984,-1.15266 -1.7756,4.0867 2.4859,1.88619 3.1962,0.31436 2.3675,-1.6766 z"
         style="fill:#e7efc0;fill-opacity:1;stroke:none;stroke-width:0.88204765px;stroke-linecap:butt;stroke-linejoin:miter;stroke-opacity:1" />
      <path
         inkscape:connector-curvature="0"
         id="path1071"
         d="m -697.24106,335.19348 -3.0778,-1.57182 -0.3552,4.92502 3.1962,2.20055 3.1962,-1.36225 -0.4735,-2.20054 z"
         style="fill:#e7efc0;fill-opacity:1;stroke:none;stroke-width:0.88204765px;stroke-linecap:butt;stroke-linejoin:miter;stroke-opacity:1" />
      <path
         inkscape:connector-curvature="0"
         id="path1073"
         d="m -710.02586,332.15464 -2.6043,-0.94309 -2.1308,1.88618 2.3676,2.93405 3.4329,0.20957 0.1184,-1.78138 z"
         style="fill:#e7efc0;fill-opacity:1;stroke:none;stroke-width:0.88204765px;stroke-linecap:butt;stroke-linejoin:miter;stroke-opacity:1" />
    </g>
    <g
       id="g1161"
       transform="matrix(-1,0,0,1,-1648.3578,0)">
      <path
         style="fill:#e7efc0;fill-opacity:1;stroke:none;stroke-width:0.88204765px;stroke-linecap:butt;stroke-linejoin:miter;stroke-opacity:1"
         d="m -791.96076,206.48108 c 0.3348,-1.03735 2.3438,-5.6313 2.3438,-5.6313 l 7.5335,1.33373 3.683,-3.55661 5.1897,1.33372 6.3616,-4.59395 h 9.7099 l 6.3616,6.07588 44.5312,17.04208 21.2612,-0.74096 6.8638,6.07587 -7.5335,3.11203 -9.0401,0.1482 -5.8594,1.92649 -22.0982,-0.14819 -8.2032,3.26022 -6.3616,-0.14819 -6.529,0.59277 -5.3571,-1.63012 -9.5424,2.51928 h -8.7054 l -8.5379,-3.55661 -6.1942,2.81564 -5.5246,-0.29638 -5.3571,-4.59395 -1.5067,-10.07706 -1.0045,-3.7048 z"
         id="path1105"
         inkscape:connector-curvature="0" />
      <path
         style="fill:#e7efc0;fill-opacity:1;stroke:none;stroke-width:0.88204765px;stroke-linecap:butt;stroke-linejoin:miter;stroke-opacity:1"
         d="m -752.61926,194.62572 0.6697,4.29757 10.5469,5.63129 17.4944,6.07588 13.8951,5.48309 5.5245,2.00059 19.0011,-1.55601 7.1987,6.89094 5.7757,1.18553 10.8817,-2.22288 12.3047,-0.22229 4.2689,-0.66686 -6.6127,-5.26082 -14.7321,-10.22525 -12.0536,-8.44695 -9.8772,-5.92767 -21.596,0.59276 -6.6965,1.03734 -15.7366,0.29639 -9.5424,-0.29639 z"
         id="path1107"
         inkscape:connector-curvature="0" />
      <path
         style="fill:#e7efc0;fill-opacity:1;stroke:none;stroke-width:0.88204765px;stroke-linecap:butt;stroke-linejoin:miter;stroke-opacity:1"
         d="m -661.60956,193.41589 -6.6291,-1.25746 -11.9561,-0.31436 -6.9843,-0.31436 7.1027,4.40108 12.7847,8.17344 7.6945,6.39204 15.981,10.37396 11.3642,-3.3532 h 11.0091 l 6.7475,0.62872 7.6945,-2.41011 -12.548,-7.02077 -26.3981,-10.68833 z"
         id="path1109"
         inkscape:connector-curvature="0" />
      <path
         style="fill:#e7efc0;fill-opacity:1;stroke:none;stroke-width:0.88204765px;stroke-linecap:butt;stroke-linejoin:miter;stroke-opacity:1"
         d="m -659.24196,191.6345 30.4229,0.10479 29.1208,5.76331 24.3857,7.85906 3.0778,7.96387 -4.2615,2.72448 -0.5919,3.03884 -10.8907,-0.9431 -10.4172,-1.99095 -7.221,-0.9431 -13.8502,-6.81119 -14.2053,-6.18247 -11.3642,-4.92501 -12.7847,-3.66756 -7.6945,-1.57182 2.0124,-0.41915 z"
         id="path1111"
         inkscape:connector-curvature="0" />
      <path
         style="fill:#e7efc0;fill-opacity:1;stroke:none;stroke-width:0.88204765px;stroke-linecap:butt;stroke-linejoin:miter;stroke-opacity:1"
         d="m -565.84236,205.78082 13.9685,-1.04787 6.9843,3.77235 4.3799,4.82023 -1.3021,5.13459 -7.4578,1.04788 -8.7599,-1.7814 c 0,0 -3.4329,-3.77234 -4.0248,-3.77234 -0.5919,0 -9.2334,-0.20958 -9.2334,-0.20958 l -3.9065,-8.38302 z"
         id="path1113"
         inkscape:connector-curvature="0" />
      <path
         style="fill:#e7efc0;fill-opacity:1;stroke:none;stroke-width:0.88204765px;stroke-linecap:butt;stroke-linejoin:miter;stroke-opacity:1"
         d="m -526.86586,194.10704 -3.3482,-0.44457 1.5067,2.88974 3.0971,1.77831 0.9207,-1.77831 z"
         id="path1115"
         inkscape:connector-curvature="0" />
      <path
         style="fill:#e7efc0;fill-opacity:1;stroke:none;stroke-width:0.88204765px;stroke-linecap:butt;stroke-linejoin:miter;stroke-opacity:1"
         d="m -520.42056,209.51901 0.9208,4.00119 2.3437,1.9265 0.7534,3.5566 2.9296,0.66687 1.8416,-1.55603 -2.3438,-4.81623 -3.5993,-3.85299 z"
         id="path1117"
         inkscape:connector-curvature="0" />
      <path
         style="fill:#e7efc0;fill-opacity:1;stroke:none;stroke-width:0.88204765px;stroke-linecap:butt;stroke-linejoin:miter;stroke-opacity:1"
         d="m -516.15156,236.71225 -3.4319,0.96324 -1.0045,2.74156 3.4319,2.44516 5.0223,-1.33372 0.5023,-2.51927 -1.7579,-2.22288 z"
         id="path1119"
         inkscape:connector-curvature="0" />
      <path
         style="fill:#e7efc0;fill-opacity:1;stroke:none;stroke-width:0.88204765px;stroke-linecap:butt;stroke-linejoin:miter;stroke-opacity:1"
         d="m -528.45626,250.34591 -2.3438,0.96324 -0.9207,5.48312 1.423,2.88974 3.9341,-1.18553 1.7578,-4.14938 -0.837,-3.33433 z"
         id="path1121"
         inkscape:connector-curvature="0" />
      <path
         style="fill:#e7efc0;fill-opacity:1;stroke:none;stroke-width:0.88204765px;stroke-linecap:butt;stroke-linejoin:miter;stroke-opacity:1"
         d="m -549.88486,258.86696 -6.6127,0.14819 -0.9208,3.18612 1.3393,3.7789 4.0179,1.03735 h 6.3616 l 3.0134,-0.44458 1.3393,-3.03794 -1.423,-2.44516 -4.6038,-0.22229 -0.8371,-2.22288 z"
         id="path1123"
         inkscape:connector-curvature="0" />
      <path
         style="fill:#e7efc0;fill-opacity:1;stroke:none;stroke-width:0.88204765px;stroke-linecap:butt;stroke-linejoin:miter;stroke-opacity:1"
         d="m -566.20736,269.61087 -1.8415,-3.26022 -2.7623,0.44458 -1.7578,3.85299 1.0881,6.07587 1.1719,2.74156 3.9342,0.81505 3.5156,-3.11203 1.5904,-5.18673 -1.0882,-1.7783 h -2.0926 z"
         id="path1125"
         inkscape:connector-curvature="0" />
      <path
         style="fill:#e7efc0;fill-opacity:1;stroke:none;stroke-width:0.88204765px;stroke-linecap:butt;stroke-linejoin:miter;stroke-opacity:1"
         d="m -587.30116,278.20601 -4.7712,-1.33372 -4.7712,0.37047 -0.837,4.81624 1.1718,2.81565 4.6038,3.7048 5.692,0.29638 5.4408,-2.29698 -0.5022,-3.26022 -3.683,-3.6307 z"
         id="path1127"
         inkscape:connector-curvature="0" />
      <path
         style="fill:#e7efc0;fill-opacity:1;stroke:none;stroke-width:0.88204765px;stroke-linecap:butt;stroke-linejoin:miter;stroke-opacity:1"
         d="m -610.82236,280.2807 -3.8504,-1.03734 -4.6875,0.59275 -2.009,3.48252 1.5067,5.85359 4.9387,4.74215 5.0223,0.81504 3.683,-2.59335 1.5904,-4.22347 -3.1808,-4.81624 z"
         id="path1129"
         inkscape:connector-curvature="0" />
      <path
         style="fill:#e7efc0;fill-opacity:1;stroke:none;stroke-width:0.88204765px;stroke-linecap:butt;stroke-linejoin:miter;stroke-opacity:1"
         d="m -631.74866,285.46742 -4.1016,-4.81624 -5.0223,0.66687 -3.9342,3.33432 1.2556,5.409 5.7757,6.81683 6.4453,0.44458 4.6038,-2.29697 -0.084,-3.48251 z"
         id="path1131"
         inkscape:connector-curvature="0" />
      <path
         style="fill:#e7efc0;fill-opacity:1;stroke:none;stroke-width:0.88204765px;stroke-linecap:butt;stroke-linejoin:miter;stroke-opacity:1"
         d="m -655.85586,283.46683 -5.2734,-1.48193 -4.0179,2.96385 -0.2511,6.66864 3.5994,5.70539 5.8593,1.33373 4.9386,-0.22229 0.9208,-5.33491 -2.0089,-5.6313 z"
         id="path1133"
         inkscape:connector-curvature="0" />
      <path
         style="fill:#e7efc0;fill-opacity:1;stroke:none;stroke-width:0.88204765px;stroke-linecap:butt;stroke-linejoin:miter;stroke-opacity:1"
         d="m -673.76876,286.72705 c -0.4185,-1.03734 -4.1853,-4.29757 -4.1853,-4.29757 l -5.3571,-0.74095 -4.3527,3.18612 0.6696,4.07528 3.6831,6.29816 5.0223,4.14938 4.3527,-0.0741 3.3482,-0.66686 0.6696,-4.37166 z"
         id="path1135"
         inkscape:connector-curvature="0" />
      <path
         style="fill:#e7efc0;fill-opacity:1;stroke:none;stroke-width:0.88204765px;stroke-linecap:butt;stroke-linejoin:miter;stroke-opacity:1"
         d="m -695.69956,284.35597 -5.2734,-3.70479 -6.5291,2.37107 -1.423,3.77889 1.5067,5.92769 7.952,6.44635 4.4364,-2.44517 3.3482,1.9265 2.3438,-0.44458 -1.3393,-5.33491 z"
         id="path1137"
         inkscape:connector-curvature="0" />
      <path
         style="fill:#e7efc0;fill-opacity:1;stroke:none;stroke-width:0.88204765px;stroke-linecap:butt;stroke-linejoin:miter;stroke-opacity:1"
         d="m -717.37926,282.79996 -4.3527,-2.88975 -4.1015,0.44458 -0.6697,2.66746 3.5993,5.03853 1.423,4.81624 5.3572,4.22347 4.9386,-0.66687 -0.6696,-5.70539 -3.5157,-5.26081 z"
         id="path1139"
         inkscape:connector-curvature="0" />
      <path
         style="fill:#e7efc0;fill-opacity:1;stroke:none;stroke-width:0.88204765px;stroke-linecap:butt;stroke-linejoin:miter;stroke-opacity:1"
         d="m -729.60026,279.31745 -6.529,-2.07469 -2.4275,3.55661 5.2735,9.92886 5.9431,7.5578 5.106,0.37048 0.3348,-4.07529 -3.4319,-5.2608 0.1674,-4.14938 z"
         id="path1141"
         inkscape:connector-curvature="0" />
      <path
         style="fill:#e7efc0;fill-opacity:1;stroke:none;stroke-width:0.88204765px;stroke-linecap:butt;stroke-linejoin:miter;stroke-opacity:1"
         d="m -741.15156,278.79877 -3.0134,-2.81564 -5.3572,0.88916 -1.3392,3.5566 2.0926,5.92768 7.4498,7.92827 3.9341,-0.0741 1.7578,-2.88975 -0.6696,-5.63129 z"
         id="path1143"
         inkscape:connector-curvature="0" />
      <path
         style="fill:#e7efc0;fill-opacity:1;stroke:none;stroke-width:0.88204765px;stroke-linecap:butt;stroke-linejoin:miter;stroke-opacity:1"
         d="m -754.79556,278.72468 c -0.5022,-0.59277 -1.2556,-5.03853 -1.2556,-5.03853 l -1.5067,-2.00059 -4.0178,0.0741 -0.4186,5.77949 1.0045,4.96444 2.846,3.92708 2.6786,1.77831 3.5156,-0.96324 0.9207,-3.33433 -2.5948,-3.40841 z"
         id="path1145"
         inkscape:connector-curvature="0" />
      <path
         style="fill:#e7efc0;fill-opacity:1;stroke:none;stroke-width:0.88204765px;stroke-linecap:butt;stroke-linejoin:miter;stroke-opacity:1"
         d="m -589.75456,315.91257 -2.9594,0.31436 0.3551,1.67659 3.5513,0.31437 1.4206,-1.04788 z"
         id="path1147"
         inkscape:connector-curvature="0" />
      <path
         style="fill:#e7efc0;fill-opacity:1;stroke:none;stroke-width:0.88204765px;stroke-linecap:butt;stroke-linejoin:miter;stroke-opacity:1"
         d="m -610.82566,325.34345 -5.8005,0.41915 0.7102,2.82927 5.6821,0.83829 2.7227,-2.20054 -1.894,-1.57181 z"
         id="path1149"
         inkscape:connector-curvature="0" />
      <path
         style="fill:#e7efc0;fill-opacity:1;stroke:none;stroke-width:0.88204765px;stroke-linecap:butt;stroke-linejoin:miter;stroke-opacity:1"
         d="m -633.31736,331.52592 -3.433,1.99095 -0.3551,2.93406 3.9065,1.25746 4.4983,-2.30533 -1.1838,-3.56278 z"
         id="path1151"
         inkscape:connector-curvature="0" />
      <path
         style="fill:#e7efc0;fill-opacity:1;stroke:none;stroke-width:0.88204765px;stroke-linecap:butt;stroke-linejoin:miter;stroke-opacity:1"
         d="m -653.79666,335.40306 -4.4983,-0.73352 -1.3022,2.72448 2.2492,3.35321 5.4454,-0.41917 v -2.41011 z"
         id="path1153"
         inkscape:connector-curvature="0" />
      <path
         style="fill:#e7efc0;fill-opacity:1;stroke:none;stroke-width:0.88204765px;stroke-linecap:butt;stroke-linejoin:miter;stroke-opacity:1"
         d="m -673.80236,336.13657 -4.4984,-1.15266 -1.7756,4.0867 2.4859,1.88619 3.1962,0.31436 2.3675,-1.6766 z"
         id="path1155"
         inkscape:connector-curvature="0" />
      <path
         style="fill:#e7efc0;fill-opacity:1;stroke:none;stroke-width:0.88204765px;stroke-linecap:butt;stroke-linejoin:miter;stroke-opacity:1"
         d="m -697.24106,335.19348 -3.0778,-1.57182 -0.3552,4.92502 3.1962,2.20055 3.1962,-1.36225 -0.4735,-2.20054 z"
         id="path1157"
         inkscape:connector-curvature="0" />
      <path
         style="fill:#e7efc0;fill-opacity:1;stroke:none;stroke-width:0.88204765px;stroke-linecap:butt;stroke-linejoin:miter;stroke-opacity:1"
         d="m -710.02586,332.15464 -2.6043,-0.94309 -2.1308,1.88618 2.3676,2.93405 3.4329,0.20957 0.1184,-1.78138 z"
         id="path1159"
         inkscape:connector-curvature="0" />
    </g>
  </g>
</svg>
